<?xml version="1.0" encoding="utf-8" ?>
<svg baseProfile="full" height="846.4101615217102" version="1.1" viewBox="0,0,900.0,846.4101615217102" width="900.0" xmlns="http://www.w3.org/2000/svg" xmlns:ev="http://www.w3.org/2001/xml-events" xmlns:xlink="http://www.w3.org/1999/xlink"><defs /><rect fill="white" height="846.4101615217102" width="900.0" x="0" y="0" /><circle cx="450.00000000367385" cy="249.99999999999994" fill="none" r="200" stroke="black" stroke-width="1" /><circle cx="450.00000000367385" cy="249.99999999999994" fill="black" r="2" stroke="black" stroke-width="1" /><text fill="black" font-size="15px" text-anchor="middle" x="470.00000000367385" y="249.99999999999994">2</text><circle cx="650.0000000000001" cy="596.4101615217102" fill="none" r="200" stroke="black" stroke-width="1" /><circle cx="650.0000000000001" cy="596.4101615217102" fill="black" r="2" stroke="black" stroke-width="1" /><text fill="black" font-size="15px" text-anchor="middle" x="670.0000000000001" y="596.4101615217102">3</text><circle cx="250.0" cy="596.4101615116543" fill="none" r="200" stroke="black" stroke-width="1" /><circle cx="250.0" cy="596.4101615116543" fill="black" r="2" stroke="black" stroke-width="1" /><text fill="black" font-size="15px" text-anchor="middle" x="270.0" y="596.4101615116543">1</text><circle cx="429.79589711572527" cy="469.27526343588664" fill="none" r="20.204102887263005" stroke="black" stroke-width="1" /><circle cx="429.79589711572527" cy="469.27526343588664" fill="black" r="2" stroke="black" stroke-width="1" /><text fill="black" font-size="15px" text-anchor="middle" x="431.81630740445155" y="469.27526343588664">4</text><circle cx="450.00000000231637" cy="504.26979615833227" fill="none" r="20.204102887231034" stroke="black" stroke-width="1" /><circle cx="450.00000000231637" cy="504.26979615833227" fill="black" r="2" stroke="black" stroke-width="1" /><text fill="black" font-size="15px" text-anchor="middle" x="452.02041029103947" y="504.26979615833227">5</text><circle cx="470.20410289011284" cy="469.27526343588664" fill="none" r="20.204102887124492" stroke="black" stroke-width="1" /><circle cx="470.20410289011284" cy="469.27526343588664" fill="black" r="2" stroke="black" stroke-width="1" /><text fill="black" font-size="15px" text-anchor="middle" x="472.2245131788253" y="469.27526343588664">7</text><circle cx="427.280113545679" cy="494.0574402383588" fill="none" r="4.705442552995524" stroke="black" stroke-width="1" /><circle cx="427.280113545679" cy="494.0574402383588" fill="black" r="2" stroke="black" stroke-width="1" /><text fill="black" font-size="15px" text-anchor="middle" x="427.75065780097856" y="494.0574402383588">8</text><path d="M 550.000000001837,423.2050807608551 A 115.47005383792515 115.47005383792515 0 0,1 450.0 596.4101615166823" fill="none" stroke="blue" stroke-width="2" /><path d="M 450.0,596.4101615166823 A 63.56744904017686 63.56744904017686 0 0,1 413.29931618737794 480.940107676321" fill="none" stroke="blue" stroke-width="2" /><path d="M 413.29931618737794,480.940107676321 A 18.428073071864794 18.428073071864794 0 0,1 439.8979485590288 486.7725297971233" fill="none" stroke="blue" stroke-width="2" /><path d="M 439.8979485590288,486.7725297971233 A 18.428073071864933 18.428073071864933 0 0,1 431.6496580944621 512.7238321969747" fill="none" stroke="blue" stroke-width="2" /><path d="M 431.6496580944621,512.7238321969747 A 63.56744904021161 63.56744904021161 0 0,1 350.00000000183695 423.2050807558271" fill="none" stroke="blue" stroke-width="2" /><path d="M 350.00000000183695,423.2050807558271 A 115.47005383792515 115.47005383792515 0 0,1 550.000000001837 423.2050807608551" fill="none" stroke="blue" stroke-width="2" /><path d="M 439.8979485590288,486.7725297971233 A 18.428073071864866 18.428073071864866 0 0,0 413.2993161873779 480.940107676321" fill="none" stroke="blue" stroke-width="2" /><path d="M 413.2993161873779,480.940107676321 A 63.56744904017688 63.56744904017688 0 0,0 450.0000000000001 596.4101615166823" fill="none" stroke="blue" stroke-width="2" /><path d="M 450.0000000000001,596.4101615166823 A 115.47005383792515 115.47005383792515 0 0,0 550.000000001837 423.205080760855" fill="none" stroke="blue" stroke-width="2" /><path d="M 550.000000001837,423.205080760855 A 115.47005383792515 115.47005383792515 0 0,0 350.00000000183695 423.2050807558271" fill="none" stroke="blue" stroke-width="2" /><path d="M 350.00000000183695,423.2050807558271 A 63.56744904021161 63.56744904021161 0 0,0 431.6496580944621 512.7238321969747" fill="none" stroke="blue" stroke-width="2" /><path d="M 431.6496580944621,512.7238321969747 A 18.428073071864933 18.428073071864933 0 0,0 439.8979485590288 486.7725297971233" fill="none" stroke="blue" stroke-width="2" /></svg>