<?xml version="1.0" encoding="utf-8" ?>
<svg baseProfile="full" height="1687.1640446873353" version="1.1" viewBox="0,0,1764.9226993511916,1687.1640446873353" width="1764.9226993511916" xmlns="http://www.w3.org/2000/svg" xmlns:ev="http://www.w3.org/2001/xml-events" xmlns:xlink="http://www.w3.org/1999/xlink"><defs /><rect fill="white" height="1687.1640446873353" width="1764.9226993511916" x="0" y="0" /><circle cx="611.0722273103768" cy="560.329746769435" fill="#89CFF0" r="200" stroke="black" stroke-width="1" /><circle cx="611.0722273103768" cy="560.329746769435" fill="black" r="2" stroke="black" stroke-width="1" /><text fill="black" font-size="15px" text-anchor="middle" x="631.0722273103768" y="560.329746769435">5</text><circle cx="863.4517991367397" cy="250.0" fill="#89CFF0" r="200" stroke="black" stroke-width="1" /><circle cx="863.4517991367397" cy="250.0" fill="black" r="2" stroke="black" stroke-width="1" /><text fill="black" font-size="15px" text-anchor="middle" x="883.4517991367397" y="250.0">10</text><circle cx="1110.9334873666999" cy="564.2496046076888" fill="#89CFF0" r="200" stroke="black" stroke-width="1" /><circle cx="1110.9334873666999" cy="564.2496046076888" fill="black" r="2" stroke="black" stroke-width="1" /><text fill="black" font-size="15px" text-anchor="middle" x="1130.9334873666999" y="564.2496046076888">1</text><circle cx="1505.680388296366" cy="628.8629487037024" fill="#89CFF0" r="200" stroke="black" stroke-width="1" /><circle cx="1505.680388296366" cy="628.8629487037024" fill="black" r="2" stroke="black" stroke-width="1" /><text fill="black" font-size="15px" text-anchor="middle" x="1525.680388296366" y="628.8629487037024">9</text><circle cx="1514.9226993511916" cy="1028.756159079408" fill="#89CFF0" r="200" stroke="black" stroke-width="1" /><circle cx="1514.9226993511916" cy="1028.756159079408" fill="black" r="2" stroke="black" stroke-width="1" /><text fill="black" font-size="15px" text-anchor="middle" x="1534.9226993511916" y="1028.756159079408">4</text><circle cx="1329.040967082443" cy="1382.9425247332415" fill="#89CFF0" r="200" stroke="black" stroke-width="1" /><circle cx="1329.040967082443" cy="1382.9425247332415" fill="black" r="2" stroke="black" stroke-width="1" /><text fill="black" font-size="15px" text-anchor="middle" x="1349.040967082443" y="1382.9425247332415">16</text><circle cx="946.6646850554627" cy="1265.518596381628" fill="#89CFF0" r="200" stroke="black" stroke-width="1" /><circle cx="946.6646850554627" cy="1265.518596381628" fill="black" r="2" stroke="black" stroke-width="1" /><text fill="black" font-size="15px" text-anchor="middle" x="966.6646850554627" y="1265.518596381628">6</text><circle cx="585.3644773591451" cy="1437.1640446873353" fill="#89CFF0" r="200" stroke="black" stroke-width="1" /><circle cx="585.3644773591451" cy="1437.1640446873353" fill="black" r="2" stroke="black" stroke-width="1" /><text fill="black" font-size="15px" text-anchor="middle" x="605.3644773591451" y="1437.1640446873353">24</text><circle cx="497.06466440288307" cy="1047.031832434414" fill="#89CFF0" r="200" stroke="black" stroke-width="1" /><circle cx="497.06466440288307" cy="1047.031832434414" fill="black" r="2" stroke="black" stroke-width="1" /><text fill="black" font-size="15px" text-anchor="middle" x="517.0646644028831" y="1047.031832434414">8</text><circle cx="250.0" cy="732.4542559785489" fill="#89CFF0" r="200" stroke="black" stroke-width="1" /><circle cx="250.0" cy="732.4542559785489" fill="black" r="2" stroke="black" stroke-width="1" /><text fill="black" font-size="15px" text-anchor="middle" x="270.0" y="732.4542559785489">23</text><circle cx="1119.6779100567742" cy="936.1720167183305" fill="#89CFF0" r="67.86396430301296" stroke="black" stroke-width="1" /><circle cx="1119.6779100567742" cy="936.1720167183305" fill="black" r="2" stroke="black" stroke-width="1" /><text fill="black" font-size="15px" text-anchor="middle" x="1126.4643064870754" y="936.1720167183305">2</text><circle cx="1275.712984352724" cy="972.7224632329776" fill="#89CFF0" r="25.321335380036075" stroke="black" stroke-width="1" /><circle cx="1275.712984352724" cy="972.7224632329776" fill="black" r="2" stroke="black" stroke-width="1" /><text fill="black" font-size="15px" text-anchor="middle" x="1278.2451178907277" y="972.7224632329776">3</text><circle cx="1220.5215391901456" cy="959.7941394312777" fill="#89CFF0" r="21.428838788349445" stroke="black" stroke-width="1" /><circle cx="1220.5215391901456" cy="959.7941394312777" fill="black" r="2" stroke="black" stroke-width="1" /><text fill="black" font-size="15px" text-anchor="middle" x="1222.6644230689806" y="959.7941394312777">7</text><circle cx="1198.4452053012697" cy="936.1720167183305" fill="#89CFF0" r="10.903330941482512" stroke="black" stroke-width="1" /><circle cx="1198.4452053012697" cy="936.1720167183305" fill="black" r="2" stroke="black" stroke-width="1" /><text fill="black" font-size="15px" text-anchor="middle" x="1199.535538395418" y="936.1720167183305">11</text><circle cx="1104.6138242331085" cy="816.7123152411846" fill="#89CFF0" r="52.541795354237074" stroke="black" stroke-width="1" /><circle cx="1104.6138242331085" cy="816.7123152411846" fill="black" r="2" stroke="black" stroke-width="1" /><text fill="black" font-size="15px" text-anchor="middle" x="1109.8680037685322" y="816.7123152411846">12</text><circle cx="1312.4815466429704" cy="955.4169251544898" fill="#89CFF0" r="15.316194329876511" stroke="black" stroke-width="1" /><circle cx="1312.4815466429704" cy="955.4169251544898" fill="black" r="2" stroke="black" stroke-width="1" /><text fill="black" font-size="15px" text-anchor="middle" x="1314.013166075958" y="955.4169251544898">13</text><circle cx="1248.9233530429053" cy="953.4703910119615" fill="#89CFF0" r="7.668460472893543" stroke="black" stroke-width="1" /><circle cx="1248.9233530429053" cy="953.4703910119615" fill="black" r="2" stroke="black" stroke-width="1" /><text fill="black" font-size="15px" text-anchor="middle" x="1249.6901990901947" y="953.4703910119615">14</text><circle cx="1300.9706471766942" cy="1004.5573385947586" fill="#89CFF0" r="15.316194329876511" stroke="black" stroke-width="1" /><circle cx="1300.9706471766942" cy="1004.5573385947586" fill="black" r="2" stroke="black" stroke-width="1" /><text fill="black" font-size="15px" text-anchor="middle" x="1302.5022666096818" y="1004.5573385947586">15</text><circle cx="608.7980422038078" cy="816.5009275923485" fill="#89CFF0" r="56.181275271844164" stroke="black" stroke-width="1" /><circle cx="608.7980422038078" cy="816.5009275923485" fill="black" r="2" stroke="black" stroke-width="1" /><text fill="black" font-size="15px" text-anchor="middle" x="614.4161697309922" y="816.5009275923485">17</text><circle cx="860.5620697529819" cy="618.4990197580374" fill="#89CFF0" r="56.181275271844164" stroke="black" stroke-width="1" /><circle cx="860.5620697529819" cy="618.4990197580374" fill="black" r="2" stroke="black" stroke-width="1" /><text fill="black" font-size="15px" text-anchor="middle" x="866.1801972801663" y="618.4990197580374">18</text><circle cx="1053.1264394885307" cy="1036.5136766802616" fill="#89CFF0" r="52.541795354237074" stroke="black" stroke-width="1" /><circle cx="1053.1264394885307" cy="1036.5136766802616" fill="black" r="2" stroke="black" stroke-width="1" /><text fill="black" font-size="15px" text-anchor="middle" x="1058.3806190239543" y="1036.5136766802616">19</text><circle cx="746.4334874592314" cy="1105.7177412170465" fill="#89CFF0" r="56.181275271844164" stroke="black" stroke-width="1" /><circle cx="746.4334874592314" cy="1105.7177412170465" fill="black" r="2" stroke="black" stroke-width="1" /><text fill="black" font-size="15px" text-anchor="middle" x="752.0516149864159" y="1105.7177412170465">20</text><circle cx="1190.2507972403869" cy="971.1542178316604" fill="#89CFF0" r="10.903330941482512" stroke="black" stroke-width="1" /><circle cx="1190.2507972403869" cy="971.1542178316604" fill="black" r="2" stroke="black" stroke-width="1" /><text fill="black" font-size="15px" text-anchor="middle" x="1191.3411303345351" y="971.1542178316604">21</text><circle cx="1243.1601147545168" cy="978.0738473231961" fill="#89CFF0" r="7.668460472893543" stroke="black" stroke-width="1" /><circle cx="1243.1601147545168" cy="978.0738473231961" fill="black" r="2" stroke="black" stroke-width="1" /><text fill="black" font-size="15px" text-anchor="middle" x="1243.9269608018062" y="978.0738473231961">22</text><circle cx="1269.3796168144652" cy="834.3777289232245" fill="#89CFF0" r="113.1682925847543" stroke="black" stroke-width="1" /><circle cx="1269.3796168144652" cy="834.3777289232245" fill="black" r="2" stroke="black" stroke-width="1" /><text fill="black" font-size="15px" text-anchor="middle" x="1280.6964460729407" y="834.3777289232245">26</text><circle cx="861.4430463549803" cy="506.1566613036142" fill="#89CFF0" r="56.164537389162646" stroke="black" stroke-width="1" /><circle cx="861.4430463549803" cy="506.1566613036142" fill="black" r="2" stroke="black" stroke-width="1" /><text fill="black" font-size="15px" text-anchor="middle" x="867.0595000938965" y="506.1566613036142">27</text><circle cx="1192.705374806192" cy="953.2783401278961" fill="#89CFF0" r="7.140281632081385" stroke="black" stroke-width="1" /><circle cx="1192.705374806192" cy="953.2783401278961" fill="black" r="2" stroke="black" stroke-width="1" /><text fill="black" font-size="15px" text-anchor="middle" x="1193.4194029694002" y="953.2783401278961">28</text><circle cx="858.5505836998376" cy="875.0042285325006" fill="#89CFF0" r="200.3318203050057" stroke="black" stroke-width="1" /><circle cx="858.5505836998376" cy="875.0042285325006" fill="black" r="2" stroke="black" stroke-width="1" /><text fill="black" font-size="15px" text-anchor="middle" x="878.5837657303382" y="875.0042285325006">29</text><circle cx="1310.2803892111049" cy="980.8197073148663" fill="#89CFF0" r="10.181774912825711" stroke="black" stroke-width="1" /><circle cx="1310.2803892111049" cy="980.8197073148663" fill="black" r="2" stroke="black" stroke-width="1" /><text fill="black" font-size="15px" text-anchor="middle" x="1311.2985667023875" y="980.8197073148663">30</text><circle cx="1246.222307995381" cy="965.8144177590717" fill="#89CFF0" r="4.967624391538109" stroke="black" stroke-width="1" /><circle cx="1246.222307995381" cy="965.8144177590717" fill="black" r="2" stroke="black" stroke-width="1" /><text fill="black" font-size="15px" text-anchor="middle" x="1246.7190704345348" y="965.8144177590717">31</text><circle cx="1208.5967105897614" cy="1093.8619813508853" fill="#89CFF0" r="113.1682925847543" stroke="black" stroke-width="1" /><circle cx="1208.5967105897614" cy="1093.8619813508853" fill="black" r="2" stroke="black" stroke-width="1" /><text fill="black" font-size="15px" text-anchor="middle" x="1219.913539848237" y="1093.8619813508853">32</text><circle cx="499.4131697651442" cy="790.8780607648105" fill="#89CFF0" r="56.164537389162646" stroke="black" stroke-width="1" /><circle cx="499.4131697651442" cy="790.8780607648105" fill="black" r="2" stroke="black" stroke-width="1" /><text fill="black" font-size="15px" text-anchor="middle" x="505.02962350406045" y="790.8780607648105">33</text><circle cx="697.329225308292" cy="1206.7640328932148" fill="#89CFF0" r="56.164537389162646" stroke="black" stroke-width="1" /><circle cx="697.329225308292" cy="1206.7640328932148" fill="black" r="2" stroke="black" stroke-width="1" /><text fill="black" font-size="15px" text-anchor="middle" x="702.9456790472083" y="1206.7640328932148">34</text><text fill="red" font-size="20px" text-anchor="middle" x="1110.9334873666999" y="564.2496046076888">-7</text><path d="M 1110.9334873666999,564.2496046076888 Q 860.5620697529819,618.4990197580374 561.0861013047445,559.9377609856097" fill="none" stroke="black" stroke-width="2" /><text fill="red" font-size="20px" text-anchor="middle" x="661.0583533160092" y="560.7217325532604">7</text><text fill="red" font-size="20px" text-anchor="middle" x="561.0861013047445" y="559.9377609856097">-8</text><path d="M 561.0861013047445,559.9377609856097 Q 250.0,732.4542559785489 485.66390811213364,1095.7020410009115" fill="none" stroke="black" stroke-width="2" /><text fill="red" font-size="20px" text-anchor="middle" x="508.46542069363244" y="998.3616238679159">8</text><text fill="red" font-size="20px" text-anchor="middle" x="485.66390811213364" y="1095.7020410009115">-9</text><path d="M 485.66390811213364,1095.7020410009115 Q 746.4334874592314,1105.7177412170465 991.6246871207206,1287.3672727763494" fill="none" stroke="black" stroke-width="2" /><text fill="red" font-size="20px" text-anchor="middle" x="901.7046829902047" y="1243.6699199869065">9</text><text fill="red" font-size="20px" text-anchor="middle" x="991.6246871207206" y="1287.3672727763494">-10</text><path d="M 991.6246871207206,1287.3672727763494 Q 1329.040967082443,1382.9425247332415 1571.7485007807645,1005.0799153491857" fill="none" stroke="black" stroke-width="2" /><text fill="red" font-size="20px" text-anchor="middle" x="1458.0968979216188" y="1052.4324028096298">10</text><text fill="red" font-size="20px" text-anchor="middle" x="1571.7485007807645" y="1005.0799153491857">-11</text><path d="M 1571.7485007807645,1005.0799153491857 Q 1312.4815466429704,955.4169251544898 1251.7920128528776,967.1190936483346" fill="none" stroke="black" stroke-width="2" /><text fill="red" font-size="20px" text-anchor="middle" x="1299.633955852571" y="978.3258328176206">11</text><text fill="red" font-size="20px" text-anchor="middle" x="1251.7920128528776" y="967.1190936483346">-12</text><path d="M 1251.7920128528776,967.1190936483346 Q 1243.1601147545168,978.0738473231961 1215.0023946738877,958.5013070511076" fill="none" stroke="black" stroke-width="2" /><text fill="red" font-size="20px" text-anchor="middle" x="1226.0406837064036" y="961.0869718114476">12</text><text fill="red" font-size="20px" text-anchor="middle" x="1215.0023946738877" y="958.5013070511076">-13</text><path d="M 1215.0023946738877,958.5013070511076 Q 1198.4452053012697,936.1720167183305 1109.593547143437,933.8098044470358" fill="none" stroke="black" stroke-width="2" /><text fill="red" font-size="20px" text-anchor="middle" x="1129.7622729701113" y="938.5342289896253">13</text><text fill="red" font-size="20px" text-anchor="middle" x="1109.593547143437" y="933.8098044470358">-14</text><path d="M 1109.593547143437,933.8098044470358 Q 1053.1264394885307,1036.5136766802616 929.3633625553316,1298.4532543479577" fill="none" stroke="black" stroke-width="2" /><text fill="red" font-size="20px" text-anchor="middle" x="963.9660075555937" y="1232.5839384152982">14</text><text fill="red" font-size="20px" text-anchor="middle" x="929.3633625553316" y="1298.4532543479577">-15</text><path d="M 929.3633625553316,1298.4532543479577 Q 585.3644773591451,1437.1640446873353 452.10466233762514,1025.1831560396924" fill="none" stroke="black" stroke-width="2" /><text fill="red" font-size="20px" text-anchor="middle" x="542.024666468141" y="1068.8805088291354">15</text><text fill="red" font-size="20px" text-anchor="middle" x="452.10466233762514" y="1025.1831560396924">-16</text><path d="M 452.10466233762514,1025.1831560396924 Q 608.7980422038078,816.5009275923485 622.4729836011262,511.6595382029371" fill="none" stroke="black" stroke-width="2" /><text fill="red" font-size="20px" text-anchor="middle" x="599.6714710196275" y="608.9999553359329">16</text><text fill="red" font-size="20px" text-anchor="middle" x="622.4729836011262" y="511.6595382029371">-1</text><path d="M 622.4729836011262,511.6595382029371 Q 863.4517991367397,250.0 1160.9196133723324,564.6415903915141" fill="none" stroke="black" stroke-width="2" /><text fill="red" font-size="20px" text-anchor="middle" x="1060.9473613610676" y="563.8576188238634">1</text><text fill="red" font-size="20px" text-anchor="middle" x="1160.9196133723324" y="564.6415903915141">-2</text><path d="M 1160.9196133723324,564.6415903915141 Q 1104.6138242331085,816.7123152411846 1120.5523523257816,973.3642579293947" fill="none" stroke="black" stroke-width="2" /><text fill="red" font-size="20px" text-anchor="middle" x="1118.8034677877667" y="898.9797755072664">2</text><text fill="red" font-size="20px" text-anchor="middle" x="1120.5523523257816" y="973.3642579293947">-3</text><path d="M 1120.5523523257816,973.3642579293947 Q 1190.2507972403869,971.1542178316604 1230.6059021034825,962.1563517025724" fill="none" stroke="black" stroke-width="2" /><text fill="red" font-size="20px" text-anchor="middle" x="1210.4371762768085" y="957.4319271599829">3</text><text fill="red" font-size="20px" text-anchor="middle" x="1230.6059021034825" y="962.1563517025724">-4</text><path d="M 1230.6059021034825,962.1563517025724 Q 1248.9233530429053,953.4703910119615 1281.232128868982,974.0152956131475" fill="none" stroke="black" stroke-width="2" /><text fill="red" font-size="20px" text-anchor="middle" x="1270.1938398364664" y="971.4296308528075">4</text><text fill="red" font-size="20px" text-anchor="middle" x="1281.232128868982" y="974.0152956131475">-5</text><path d="M 1281.232128868982,974.0152956131475 Q 1300.9706471766942,1004.5573385947586 1538.8436708510383,1034.3595286640507" fill="none" stroke="black" stroke-width="2" /><text fill="red" font-size="20px" text-anchor="middle" x="1491.0017278513449" y="1023.1527894947649">5</text><text fill="red" font-size="20px" text-anchor="middle" x="1538.8436708510383" y="1034.3595286640507">-6</text><path d="M 1538.8436708510383,1034.3595286640507 Q 1505.680388296366,628.8629487037024 1110.9334873666999,564.2496046076888" fill="none" stroke="black" stroke-width="2" /><text fill="red" font-size="20px" text-anchor="middle" x="1151.332408565149" y="610.7002600548606">6</text></svg>