<?xml version="1.0" encoding="utf-8" ?>
<svg baseProfile="full" height="17163.4691413821" version="1.1" viewBox="0,0,17163.469141382095,17163.4691413821" width="17163.469141382095" xmlns="http://www.w3.org/2000/svg" xmlns:ev="http://www.w3.org/2001/xml-events" xmlns:xlink="http://www.w3.org/1999/xlink"><defs /><rect fill="white" height="17163.4691413821" width="17163.469141382095" x="0" y="0" /><circle cx="8181.734569904544" cy="8812.67467782165" fill="none" r="399.99999999178976" stroke="black" stroke-width="1" /><circle cx="8181.734569904544" cy="8812.67467782165" fill="black" r="2" stroke="black" stroke-width="1" /><text fill="black" font-size="15px" text-anchor="middle" x="8221.734569903723" y="8812.67467782165">2</text><circle cx="8581.734569888895" cy="8119.85435479249" fill="none" r="399.9999999917091" stroke="black" stroke-width="1" /><circle cx="8581.734569888895" cy="8119.85435479249" fill="black" r="2" stroke="black" stroke-width="1" /><text fill="black" font-size="15px" text-anchor="middle" x="8621.734569888065" y="8119.85435479249">3</text><circle cx="4622.142776091392" cy="6295.663182199901" fill="none" r="3959.5917937056383" stroke="black" stroke-width="1" /><circle cx="4622.142776091392" cy="6295.663182199901" fill="black" r="2" stroke="black" stroke-width="1" /><text fill="black" font-size="15px" text-anchor="middle" x="5018.101955461956" y="6295.663182199901">1</text><circle cx="8581.734569929602" cy="13153.877346923618" fill="none" r="3959.59179445848" stroke="black" stroke-width="1" /><circle cx="8581.734569929602" cy="13153.877346923618" fill="black" r="2" stroke="black" stroke-width="1" /><text fill="black" font-size="15px" text-anchor="middle" x="8977.69374937545" y="13153.877346923618">4</text><circle cx="12541.326364185585" cy="6295.663181651364" fill="none" r="3959.5917943885474" stroke="black" stroke-width="1" /><circle cx="12541.326364185585" cy="6295.663181651364" fill="black" r="2" stroke="black" stroke-width="1" /><text fill="black" font-size="15px" text-anchor="middle" x="12937.285543624439" y="6295.663181651364">5</text><circle cx="8981.734569887629" cy="8812.674677815969" fill="none" r="399.99999999129676" stroke="black" stroke-width="1" /><circle cx="8981.734569887629" cy="8812.674677815969" fill="black" r="2" stroke="black" stroke-width="1" /><text fill="black" font-size="15px" text-anchor="middle" x="9021.73456988676" y="8812.674677815969">7</text><circle cx="8581.734570691046" cy="8581.734570691047" fill="none" r="8531.734570691047" stroke="black" stroke-width="1" /><circle cx="8581.734570691046" cy="8581.734570691047" fill="black" r="2" stroke="black" stroke-width="1" /><text fill="black" font-size="15px" text-anchor="middle" x="9434.90802776015" y="8581.734570691047">8</text><path d="M 8381.73456989674,8466.264516307036 A 364.8382345780613 364.8382345780613 0 0,0 8218.435253706146 7952.481696169542" fill="none" stroke="blue" stroke-width="2" /><path d="M 8218.435253706146,7952.481696169542 A 1258.5057479503905 1258.5057479503905 0 0,0 6601.938672822287 9724.770264235769" fill="none" stroke="blue" stroke-width="2" /><path d="M 6601.938672822287,9724.770264235769 A 2286.071388253297 2286.071388253297 0 0,0 10561.530467075077 9724.77026425721" fill="none" stroke="blue" stroke-width="2" /><path d="M 10561.530467075077,9724.77026425721 A 2286.0713882532946 2286.0713882532946 0 0,0 8581.734569797034 6295.663181925633" fill="none" stroke="blue" stroke-width="2" /><path d="M 8581.734569797034,6295.663181925633 A 1258.505747946081 1258.505747946081 0 0,0 7855.135937538447 8581.734570152956" fill="none" stroke="blue" stroke-width="2" /><path d="M 7855.135937538447,8581.734570152956 A 364.8382345780609 364.8382345780609 0 0,0 8381.73456989674 8466.264516307036" fill="none" stroke="blue" stroke-width="2" /><path d="M 10561.530467075076,9724.77026425721 A 2286.0713882532955 2286.0713882532955 0 0,1 6601.938672822287 9724.770264235769" fill="none" stroke="blue" stroke-width="2" /><path d="M 6601.938672822287,9724.770264235769 A 1258.5057479503905 1258.5057479503905 0 0,1 8218.435253706146 7952.481696169542" fill="none" stroke="blue" stroke-width="2" /><path d="M 8218.435253706146,7952.481696169542 A 364.8382345780613 364.8382345780613 0 0,1 8381.73456989674 8466.264516307036" fill="none" stroke="blue" stroke-width="2" /><path d="M 8381.73456989674,8466.264516307036 A 364.8382345780609 364.8382345780609 0 0,1 7855.135937538447 8581.734570152956" fill="none" stroke="blue" stroke-width="2" /><path d="M 7855.135937538447,8581.734570152956 A 1258.505747946081 1258.505747946081 0 0,1 8581.734569797034 6295.663181925633" fill="none" stroke="blue" stroke-width="2" /><path d="M 8581.734569797034,6295.663181925633 A 2286.071388253293 2286.071388253293 0 0,1 10561.530467075076 9724.77026425721" fill="none" stroke="blue" stroke-width="2" /></svg>