<?xml version="1.0" encoding="utf-8" ?>
<svg baseProfile="full" height="2890.918661203931" version="1.1" viewBox="0,0,3044.509187008992,2890.918661203931" width="3044.509187008992" xmlns="http://www.w3.org/2000/svg" xmlns:ev="http://www.w3.org/2001/xml-events" xmlns:xlink="http://www.w3.org/1999/xlink"><defs /><rect fill="white" height="2890.918661203931" width="3044.509187008992" x="0" y="0" /><circle cx="2494.509187008992" cy="877.4880507287563" fill="none" r="500" stroke="black" stroke-width="1" /><circle cx="2494.509187008992" cy="877.4880507287563" fill="black" r="1" stroke="black" stroke-width="30" /><text fill="black" font-size="45px" text-anchor="middle" x="2544.509187008992" y="877.4880507287563">16</text><circle cx="1549.6538662411876" cy="550.0000000000001" fill="none" r="500" stroke="black" stroke-width="1" /><circle cx="1549.6538662411876" cy="550.0000000000001" fill="black" r="1" stroke="black" stroke-width="30" /><text fill="black" font-size="45px" text-anchor="middle" x="1599.6538662411876" y="550.0000000000001">5</text><circle cx="1261.1566871987288" cy="2340.918661203931" fill="none" r="500" stroke="black" stroke-width="1" /><circle cx="1261.1566871987288" cy="2340.918661203931" fill="black" r="1" stroke="black" stroke-width="30" /><text fill="black" font-size="45px" text-anchor="middle" x="1311.1566871987288" y="2340.918661203931">22</text><circle cx="2099.8508837019544" cy="1796.316012678226" fill="none" r="500" stroke="black" stroke-width="1" /><circle cx="2099.8508837019544" cy="1796.316012678226" fill="black" r="1" stroke="black" stroke-width="30" /><text fill="black" font-size="45px" text-anchor="middle" x="2149.8508837019544" y="1796.316012678226">7</text><circle cx="550.0" cy="576.3087008126768" fill="none" r="500" stroke="black" stroke-width="1" /><circle cx="550.0" cy="576.3087008126768" fill="black" r="1" stroke="black" stroke-width="30" /><text fill="black" font-size="45px" text-anchor="middle" x="600.0" y="576.3087008126768">17</text><circle cx="619.5469846163651" cy="1573.8873778904178" fill="none" r="500" stroke="black" stroke-width="1" /><circle cx="619.5469846163651" cy="1573.8873778904178" fill="black" r="1" stroke="black" stroke-width="30" /><text fill="black" font-size="45px" text-anchor="middle" x="669.5469846163651" y="1573.8873778904178">2</text><circle cx="1268.2014225025678" cy="1095.8226273694952" fill="none" r="20.466060323727554" stroke="black" stroke-width="0.040932120647455106" /><circle cx="1268.2014225025678" cy="1095.8226273694952" fill="black" r="0.040932120647455106" stroke="black" stroke-width="1.2279636194236532" /><text fill="black" font-size="1.8419454291354798px" text-anchor="middle" x="1270.2480285349404" y="1095.8226273694952">1</text><circle cx="1405.7741513752385" cy="1324.5670764634044" fill="none" r="18.786878736037863" stroke="black" stroke-width="0.037573757472075725" /><circle cx="1405.7741513752385" cy="1324.5670764634044" fill="black" r="0.037573757472075725" stroke="black" stroke-width="1.1272127241622718" /><text fill="black" font-size="1.6908190862434076px" text-anchor="middle" x="1407.6528392488424" y="1324.5670764634044">3</text><circle cx="1613.595211887141" cy="1311.4453045372077" fill="none" r="118.0709396943225" stroke="black" stroke-width="0.236141879388645" /><circle cx="1613.595211887141" cy="1311.4453045372077" fill="black" r="0.236141879388645" stroke="black" stroke-width="7.08425638165935" /><text fill="black" font-size="10.626384572489025px" text-anchor="middle" x="1625.4023058565733" y="1311.4453045372077">4</text><circle cx="1171.0646752798737" cy="1420.114471565522" fill="none" r="13.559813703829834" stroke="black" stroke-width="0.027119627407659667" /><circle cx="1171.0646752798737" cy="1420.114471565522" fill="black" r="0.027119627407659667" stroke="black" stroke-width="0.81358882222979" /><text fill="black" font-size="1.220383233344685px" text-anchor="middle" x="1172.4206566502567" y="1420.114471565522">6</text><circle cx="1230.281298173425" cy="1276.0336744792698" fill="none" r="95.88560593771884" stroke="black" stroke-width="0.19177121187543766" /><circle cx="1230.281298173425" cy="1276.0336744792698" fill="black" r="0.19177121187543766" stroke="black" stroke-width="5.75313635626313" /><text fill="black" font-size="8.629704534394694px" text-anchor="middle" x="1239.869858767197" y="1276.0336744792698">8</text><circle cx="1291.6753551367212" cy="1116.7200940379278" fill="none" r="10.96210580878447" stroke="black" stroke-width="0.02192421161756894" /><circle cx="1291.6753551367212" cy="1116.7200940379278" fill="black" r="0.02192421161756894" stroke="black" stroke-width="0.6577263485270681" /><text fill="black" font-size="0.9865895227906023px" text-anchor="middle" x="1292.7715657175997" y="1116.7200940379278">9</text><circle cx="1300.320459031869" cy="1095.8226273694952" fill="none" r="11.652976205573761" stroke="black" stroke-width="0.023305952411147524" /><circle cx="1300.320459031869" cy="1095.8226273694952" fill="black" r="0.023305952411147524" stroke="black" stroke-width="0.6991785723344257" /><text fill="black" font-size="1.0487678585016385px" text-anchor="middle" x="1301.4857566524263" y="1095.8226273694952">10</text><circle cx="1418.750321535488" cy="1298.4864580642422" fill="none" r="10.343511775460533" stroke="black" stroke-width="0.020687023550921065" /><circle cx="1418.750321535488" cy="1298.4864580642422" fill="black" r="0.020687023550921065" stroke="black" stroke-width="0.620610706527632" /><text fill="black" font-size="0.9309160597914479px" text-anchor="middle" x="1419.784672713034" y="1298.4864580642422">11</text><circle cx="1398.270533070277" cy="1296.5385206404553" fill="none" r="10.228707258664588" stroke="black" stroke-width="0.020457414517329176" /><circle cx="1398.270533070277" cy="1296.5385206404553" fill="black" r="0.020457414517329176" stroke="black" stroke-width="0.6137224355198753" /><text fill="black" font-size="0.920583653279813px" text-anchor="middle" x="1399.2934037961434" y="1296.5385206404553">12</text><circle cx="1459.992665930334" cy="1318.9961609172244" fill="none" r="35.71708834340026" stroke="black" stroke-width="0.07143417668680052" /><circle cx="1459.992665930334" cy="1318.9961609172244" fill="black" r="0.07143417668680052" stroke="black" stroke-width="2.1430253006040156" /><text fill="black" font-size="3.2145379509060232px" text-anchor="middle" x="1463.5643747646739" y="1318.9961609172244">13</text><circle cx="1652.8149613957075" cy="1475.2643038697722" fill="none" r="50.377430089677446" stroke="black" stroke-width="0.1007548601793549" /><circle cx="1652.8149613957075" cy="1475.2643038697722" fill="black" r="0.1007548601793549" stroke="black" stroke-width="3.022645805380647" /><text fill="black" font-size="4.5339687080709705px" text-anchor="middle" x="1657.8527044046753" y="1475.2643038697722">14</text><circle cx="1615.3944215904262" cy="1119.801478084182" fill="none" r="73.5813323782529" stroke="black" stroke-width="0.1471626647565058" /><circle cx="1615.3944215904262" cy="1119.801478084182" fill="black" r="0.1471626647565058" stroke="black" stroke-width="4.414879942695174" /><text fill="black" font-size="6.622319914042761px" text-anchor="middle" x="1622.7525548282515" y="1119.801478084182">15</text><circle cx="1301.524652723694" cy="1037.3244510008317" fill="none" r="46.85759310379716" stroke="black" stroke-width="0.09371518620759431" /><circle cx="1301.524652723694" cy="1037.3244510008317" fill="black" r="0.09371518620759431" stroke="black" stroke-width="2.8114555862278294" /><text fill="black" font-size="4.217183379341744px" text-anchor="middle" x="1306.210412034074" y="1037.3244510008317">18</text><circle cx="1133.3914463509766" cy="1442.649662318877" fill="none" r="30.33901311849475" stroke="black" stroke-width="0.0606780262369895" /><circle cx="1133.3914463509766" cy="1442.649662318877" fill="black" r="0.0606780262369895" stroke="black" stroke-width="1.820340787109685" /><text fill="black" font-size="2.7305111806645277px" text-anchor="middle" x="1136.425347662826" y="1442.649662318877">19</text><circle cx="1162.6721284799216" cy="1401.8382623504253" fill="none" r="6.551244524012356" stroke="black" stroke-width="0.013102489048024711" /><circle cx="1162.6721284799216" cy="1401.8382623504253" fill="black" r="0.013102489048024711" stroke="black" stroke-width="0.3930746714407413" /><text fill="black" font-size="0.589612007161112px" text-anchor="middle" x="1163.3272529323228" y="1401.8382623504253">20</text><circle cx="1152.8284422876845" cy="1410.9388632119394" fill="none" r="6.85469049227332" stroke="black" stroke-width="0.013709380984546639" /><circle cx="1152.8284422876845" cy="1410.9388632119394" fill="black" r="0.013709380984546639" stroke="black" stroke-width="0.4112814295363992" /><text fill="black" font-size="0.6169221443045988px" text-anchor="middle" x="1153.5139113369119" y="1410.9388632119394">21</text><circle cx="1770.690535632625" cy="1360.1776279199894" fill="none" r="46.40939357945368" stroke="black" stroke-width="0.09281878715890736" /><circle cx="1770.690535632625" cy="1360.1776279199894" fill="black" r="0.09281878715890736" stroke="black" stroke-width="2.7845636147672206" /><text fill="black" font-size="4.176845422150831px" text-anchor="middle" x="1775.3314749905703" y="1360.1776279199894">23</text><circle cx="1355.864244768311" cy="1308.1763852104675" fill="none" r="33.74552588097048" stroke="black" stroke-width="0.06749105176194097" /><circle cx="1355.864244768311" cy="1308.1763852104675" fill="black" r="0.06749105176194097" stroke="black" stroke-width="2.024731552858229" /><text fill="black" font-size="3.0370973292873433px" text-anchor="middle" x="1359.238797356408" y="1308.1763852104675">24</text><circle cx="1261.262669002325" cy="1149.8707421250033" fill="none" r="34.02563637133644" stroke="black" stroke-width="0.06805127274267288" /><circle cx="1261.262669002325" cy="1149.8707421250033" fill="black" r="0.06805127274267288" stroke="black" stroke-width="2.041538182280186" /><text fill="black" font-size="3.0623072734202794px" text-anchor="middle" x="1264.6652326394587" y="1149.8707421250033">25</text><circle cx="1085.175998611245" cy="1282.3677473470052" fill="none" r="49.35787393750714" stroke="black" stroke-width="0.09871574787501428" /><circle cx="1085.175998611245" cy="1282.3677473470052" fill="black" r="0.09871574787501428" stroke="black" stroke-width="2.9614724362504283" /><text fill="black" font-size="4.4422086543756425px" text-anchor="middle" x="1090.1117860049956" y="1282.3677473470052">26</text><circle cx="1189.1407484026774" cy="1387.9406684351707" fill="none" r="23.34408882586101" stroke="black" stroke-width="0.04668817765172202" /><circle cx="1189.1407484026774" cy="1387.9406684351707" fill="black" r="0.04668817765172202" stroke="black" stroke-width="1.4006453295516605" /><text fill="black" font-size="2.100967994327491px" text-anchor="middle" x="1191.4751572852635" y="1387.9406684351707">27</text><circle cx="1289.2360001066477" cy="1103.916343313776" fill="none" r="2.071945194988983" stroke="black" stroke-width="0.0041438903899779665" /><circle cx="1289.2360001066477" cy="1103.916343313776" fill="black" r="0.0041438903899779665" stroke="black" stroke-width="0.124316711699339" /><text fill="black" font-size="0.1864750675490085px" text-anchor="middle" x="1289.4431946261466" y="1103.916343313776">28</text><circle cx="1420.6033096474669" cy="1162.3524335257828" fill="none" r="125.80312318404005" stroke="black" stroke-width="0.2516062463680801" /><circle cx="1420.6033096474669" cy="1162.3524335257828" fill="black" r="0.2516062463680801" stroke="black" stroke-width="7.548187391042403" /><text fill="black" font-size="11.322281086563605px" text-anchor="middle" x="1433.1836219658708" y="1162.3524335257828">29</text><circle cx="1407.8258462819224" cy="1303.992269303837" fill="none" r="1.889971683618948" stroke="black" stroke-width="0.003779943367237896" /><circle cx="1407.8258462819224" cy="1303.992269303837" fill="black" r="0.003779943367237896" stroke="black" stroke-width="0.11339830101713688" /><text fill="black" font-size="0.17009745152570532px" text-anchor="middle" x="1408.0148434502844" y="1303.992269303837">30</text><circle cx="1373.1857889821918" cy="1595.3441701348208" fill="none" r="253.94418981955025" stroke="black" stroke-width="0.5078883796391005" /><circle cx="1373.1857889821918" cy="1595.3441701348208" fill="black" r="0.5078883796391005" stroke="black" stroke-width="15.236651389173016" /><text fill="black" font-size="22.854977083759522px" text-anchor="middle" x="1398.5802079641467" y="1595.3441701348208">31</text><circle cx="1718.6191562644242" cy="1421.9010692444133" fill="none" r="34.34462649413115" stroke="black" stroke-width="0.0686892529882623" /><circle cx="1718.6191562644242" cy="1421.9010692444133" fill="black" r="0.0686892529882623" stroke="black" stroke-width="2.060677589647869" /><text fill="black" font-size="3.0910163844718035px" text-anchor="middle" x="1722.0536189138372" y="1421.9010692444133">32</text><circle cx="1869.730108221439" cy="1153.3021958500933" fill="none" r="182.95119878796748" stroke="black" stroke-width="0.36590239757593496" /><circle cx="1869.730108221439" cy="1153.3021958500933" fill="black" r="0.36590239757593496" stroke="black" stroke-width="10.977071927278049" /><text fill="black" font-size="16.465607890917074px" text-anchor="middle" x="1888.0252281002356" y="1153.3021958500933">33</text><circle cx="1062.423793041342" cy="1041.7982717438417" fill="none" r="192.28511778490784" stroke="black" stroke-width="0.3845702355698157" /><circle cx="1062.423793041342" cy="1041.7982717438417" fill="black" r="0.3845702355698157" stroke="black" stroke-width="11.537107067094471" /><text fill="black" font-size="17.305660600641705px" text-anchor="middle" x="1081.6523048198328" y="1041.7982717438417">35</text><circle cx="1123.968616633579" cy="1368.1321904189533" fill="none" r="44.77186051557436" stroke="black" stroke-width="0.08954372103114872" /><circle cx="1123.968616633579" cy="1368.1321904189533" fill="black" r="0.08954372103114872" stroke="black" stroke-width="2.6863116309344615" /><text fill="black" font-size="4.029467446401692px" text-anchor="middle" x="1128.4458026851364" y="1368.1321904189533">36</text><circle cx="1160.8010846458508" cy="1409.4229272075086" fill="none" r="1.2607939883437256" stroke="black" stroke-width="0.002521587976687451" /><circle cx="1160.8010846458508" cy="1409.4229272075086" fill="black" r="0.002521587976687451" stroke="black" stroke-width="0.07564763930062353" /><text fill="black" font-size="0.1134714589509353px" text-anchor="middle" x="1160.9271640446852" y="1409.4229272075086">37</text><path d="M 1295.8658570135826,1106.5905601008205 A 7.790026666794724 7.790026666794724 0 0,0 1288.6674828262953 1095.8226273694952" fill="none" stroke="blue" stroke-width="0.1" /><path d="M 1288.6674828262953,1095.8226273694952 A 23.2614829420368 23.2614829420368 0 0,0 1265.5953566921723 1116.1220866276647" fill="none" stroke="blue" stroke-width="0.1" /><path d="M 1265.5953566921723,1116.1220866276647 A 600.9491515040057 600.9491515040057 0 0,1 1253.1481991583537 1182.914641817806" fill="none" stroke="blue" stroke-width="0.1" /><path d="M 1253.1481991583537,1182.914641817806 A 1718.2369496007705 1718.2369496007705 0 0,1 1197.195693524339 1366.0302977651652" fill="none" stroke="blue" stroke-width="0.1" /><path d="M 1197.195693524339,1366.0302977651652 A 291.9442698119137 291.9442698119137 0 0,1 1177.7064710586487 1408.2926655589552" fill="none" stroke="blue" stroke-width="0.1" /><path d="M 1177.7064710586487,1408.2926655589552 A 14.194252429160908 14.194252429160908 0 0,1 1158.951722662542 1414.0198077569523" fill="none" stroke="blue" stroke-width="0.1" /><path d="M 1158.951722662542,1414.0198077569523 A 4.752000211954487 4.752000211954487 0 0,1 1157.861692267554 1406.2855658385288" fill="none" stroke="blue" stroke-width="0.1" /><path d="M 1157.861692267554,1406.2855658385288 A 4.752000196252197 4.752000196252197 0 0,1 1165.4060286875988 1407.7917986677905" fill="none" stroke="blue" stroke-width="0.1" /><path d="M 1165.4060286875988,1407.7917986677905 A 15.118481868350464 15.118481868350464 0 0,1 1159.427873049027 1427.0753179141623" fill="none" stroke="blue" stroke-width="0.1" /><path d="M 1159.427873049027,1427.0753179141623 A 208.48148185247678 208.48148185247678 0 0,1 1103.9960342092922 1450.157355842975" fill="none" stroke="blue" stroke-width="0.1" /><path d="M 1103.9960342092922,1450.157355842975 A 417.0332481105725 417.0332481105725 0 0,1 584.7734923081825 1075.0980393515474" fill="none" stroke="blue" stroke-width="0.1" /><path d="M 584.7734923081825,1075.0980393515474 A 478.8096535361282 478.8096535361282 0 0,1 1049.8269331205938 563.1543504063384" fill="none" stroke="blue" stroke-width="0.1" /><path d="M 1049.8269331205938,563.1543504063384 A 546.360461604841 546.360461604841 0 0,1 1606.9609573529722 1046.7050406971944" fill="none" stroke="blue" stroke-width="0.1" /><path d="M 1606.9609573529722,1046.7050406971944 A 1182.8393691219096 1182.8393691219096 0 0,1 1614.7036484221046 1193.379567923578" fill="none" stroke="blue" stroke-width="0.1" /><path d="M 1614.7036484221046,1193.379567923578 A 961.4991088280375 961.4991088280375 0 0,0 1641.0856095976699 1426.2713679522583" fill="none" stroke="blue" stroke-width="0.1" /><path d="M 1641.0856095976699,1426.2713679522583 A 135.27586269441974 135.27586269441974 0 0,0 1693.7332834277138 1504.6509740554193" fill="none" stroke="blue" stroke-width="0.1" /><path d="M 1693.7332834277138,1504.6509740554193 A 401.71988312608573 401.71988312608573 0 0,0 2297.180035355473 1336.902031703491" fill="none" stroke="blue" stroke-width="0.1" /><path d="M 2297.180035355473,1336.902031703491 A 465.2121452001986 465.2121452001986 0 0,0 2022.0815266250897 713.7440253643782" fill="none" stroke="blue" stroke-width="0.1" /><path d="M 2022.0815266250897,713.7440253643782 A 573.840566678314 573.840566678314 0 0,0 1322.7856498658898 995.5679660905196" fill="none" stroke="blue" stroke-width="0.1" /><path d="M 1322.7856498658898,995.5679660905196 A 2000.0760750719603 2000.0760750719603 0 0,1 1278.3315209919674 1078.0394687701485" fill="none" stroke="blue" stroke-width="0.1" /><path d="M 1278.3315209919674,1078.0394687701485 A 25.27753279560953 25.27753279560953 0 0,0 1283.4876762184253 1109.4310832891292" fill="none" stroke="blue" stroke-width="0.1" /><path d="M 1283.4876762184253,1109.4310832891292 A 7.7900266666486315 7.7900266666486315 0 0,0 1295.8658570135826 1106.5905601008205" fill="none" stroke="blue" stroke-width="0.1" /><path d="M 1265.5953566921723,1116.1220866276647 A 23.2614829420368 23.2614829420368 0 0,1 1288.6674828262953 1095.8226273694952" fill="none" stroke="blue" stroke-width="0.1" /><path d="M 1288.6674828262953,1095.8226273694952 A 7.790026666794724 7.790026666794724 0 0,1 1295.8658570135826 1106.5905601008205" fill="none" stroke="blue" stroke-width="0.1" /><path d="M 1295.8658570135826,1106.5905601008205 A 7.7900266666486315 7.7900266666486315 0 0,1 1283.4876762184253 1109.4310832891292" fill="none" stroke="blue" stroke-width="0.1" /><path d="M 1283.4876762184253,1109.4310832891292 A 25.27753279560953 25.27753279560953 0 0,1 1278.3315209919674 1078.0394687701485" fill="none" stroke="blue" stroke-width="0.1" /><path d="M 1278.3315209919674,1078.0394687701485 A 2000.0760750719603 2000.0760750719603 0 0,0 1322.7856498658898 995.5679660905196" fill="none" stroke="blue" stroke-width="0.1" /><path d="M 1322.7856498658898,995.5679660905196 A 573.840566678314 573.840566678314 0 0,1 2022.0815266250897 713.7440253643782" fill="none" stroke="blue" stroke-width="0.1" /><path d="M 2022.0815266250897,713.7440253643782 A 465.2121452001986 465.2121452001986 0 0,1 2297.180035355473 1336.902031703491" fill="none" stroke="blue" stroke-width="0.1" /><path d="M 2297.180035355473,1336.902031703491 A 401.71988312608573 401.71988312608573 0 0,1 1693.7332834277138 1504.6509740554193" fill="none" stroke="blue" stroke-width="0.1" /><path d="M 1693.7332834277138,1504.6509740554193 A 135.27586269441974 135.27586269441974 0 0,1 1641.0856095976699 1426.2713679522583" fill="none" stroke="blue" stroke-width="0.1" /><path d="M 1641.0856095976699,1426.2713679522583 A 961.4991088280375 961.4991088280375 0 0,1 1614.7036484221046 1193.379567923578" fill="none" stroke="blue" stroke-width="0.1" /><path d="M 1614.7036484221046,1193.379567923578 A 1182.8393691219096 1182.8393691219096 0 0,0 1606.9609573529722 1046.7050406971944" fill="none" stroke="blue" stroke-width="0.1" /><path d="M 1606.9609573529722,1046.7050406971944 A 546.360461604841 546.360461604841 0 0,0 1049.8269331205938 563.1543504063384" fill="none" stroke="blue" stroke-width="0.1" /><path d="M 1049.8269331205938,563.1543504063384 A 478.8096535361282 478.8096535361282 0 0,0 584.7734923081825 1075.0980393515474" fill="none" stroke="blue" stroke-width="0.1" /><path d="M 584.7734923081825,1075.0980393515474 A 417.0332481105725 417.0332481105725 0 0,0 1103.9960342092922 1450.157355842975" fill="none" stroke="blue" stroke-width="0.1" /><path d="M 1103.9960342092922,1450.157355842975 A 208.48148185247678 208.48148185247678 0 0,0 1159.427873049027 1427.0753179141623" fill="none" stroke="blue" stroke-width="0.1" /><path d="M 1159.427873049027,1427.0753179141623 A 15.118481868350464 15.118481868350464 0 0,0 1165.4060286875988 1407.7917986677905" fill="none" stroke="blue" stroke-width="0.1" /><path d="M 1165.4060286875988,1407.7917986677905 A 4.752000196252197 4.752000196252197 0 0,0 1157.861692267554 1406.2855658385288" fill="none" stroke="blue" stroke-width="0.1" /><path d="M 1157.861692267554,1406.2855658385288 A 4.752000211954487 4.752000211954487 0 0,0 1158.951722662542 1414.0198077569523" fill="none" stroke="blue" stroke-width="0.1" /><path d="M 1158.951722662542,1414.0198077569523 A 14.194252429160908 14.194252429160908 0 0,0 1177.7064710586487 1408.2926655589552" fill="none" stroke="blue" stroke-width="0.1" /><path d="M 1177.7064710586487,1408.2926655589552 A 291.9442698119137 291.9442698119137 0 0,0 1197.195693524339 1366.0302977651652" fill="none" stroke="blue" stroke-width="0.1" /><path d="M 1197.195693524339,1366.0302977651652 A 1718.2369496007705 1718.2369496007705 0 0,0 1253.1481991583537 1182.914641817806" fill="none" stroke="blue" stroke-width="0.1" /><path d="M 1253.1481991583537,1182.914641817806 A 600.9491515040057 600.9491515040057 0 0,0 1265.5953566921723 1116.1220866276647" fill="none" stroke="blue" stroke-width="0.1" /><path d="M 940.351835907547,1957.4030195471746 A 435.6999465214779 435.6999465214779 0 0,1 1043.3408684261092 1308.5597614370904" fill="none" stroke="blue" stroke-width="0.1" /><path d="M 1043.3408684261092,1308.5597614370904 A 187.14083691324595 187.14083691324595 0 0,1 1134.4869149402052 1280.2152488638703" fill="none" stroke="blue" stroke-width="0.1" /><path d="M 1134.4869149402052,1280.2152488638703 A 647.1472441881298 647.1472441881298 0 0,1 1323.1725408923191 1299.8090072384748" fill="none" stroke="blue" stroke-width="0.1" /><path d="M 1323.1725408923191,1299.8090072384748 A 1010.8768819608268 1010.8768819608268 0 0,1 1387.9251423685625 1318.7053625134388" fill="none" stroke="blue" stroke-width="0.1" /><path d="M 1387.9251423685625,1318.7053625134388 A 21.715625109863094 21.715625109863094 0 0,0 1414.142790826281 1307.7470679903793" fill="none" stroke="blue" stroke-width="0.1" /><path d="M 1414.142790826281,1307.7470679903793 A 7.106391504294111 7.106391504294111 0 0,0 1408.453282951684 1297.5070540608444" fill="none" stroke="blue" stroke-width="0.1" /><path d="M 1408.453282951684,1297.5070540608444 A 7.106391488394291 7.106391488394291 0 0,0 1400.9157429597558 1306.419275502633" fill="none" stroke="blue" stroke-width="0.1" /><path d="M 1400.9157429597558,1306.419275502633 A 22.04365123930486 22.04365123930486 0 0,0 1424.462637971271 1322.646847158586" fill="none" stroke="blue" stroke-width="0.1" /><path d="M 1424.462637971271,1322.646847158586 A 1340.6361207744167 1340.6361207744167 0 0,1 1495.6666762789466 1317.242483418172" fill="none" stroke="blue" stroke-width="0.1" /><path d="M 1495.6666762789466,1317.242483418172 A 667.9553803431929 667.9553803431929 0 0,1 1726.3648794031926 1346.427427328237" fill="none" stroke="blue" stroke-width="0.1" /><path d="M 1726.3648794031926,1346.427427328237 A 144.01600093851224 144.01600093851224 0 0,1 1798.6478371062099 1397.2211308157882" fill="none" stroke="blue" stroke-width="0.1" /><path d="M 1798.6478371062099,1397.2211308157882 A 465.8913824005694 465.8913824005694 0 0,1 1680.5037854503416 2068.6173369410785" fill="none" stroke="blue" stroke-width="0.1" /><path d="M 1680.5037854503416,2068.6173369410785 A 564.29765317955 564.29765317955 0 0,1 940.351835907547 1957.4030195471746" fill="none" stroke="blue" stroke-width="0.1" /><path d="M 1043.3408684261092,1308.5597614370904 A 435.6999465214779 435.6999465214779 0 0,0 940.351835907547 1957.4030195471746" fill="none" stroke="blue" stroke-width="0.1" /><path d="M 940.351835907547,1957.4030195471746 A 564.29765317955 564.29765317955 0 0,0 1680.5037854503416 2068.6173369410785" fill="none" stroke="blue" stroke-width="0.1" /><path d="M 1680.5037854503416,2068.6173369410785 A 465.8913824005694 465.8913824005694 0 0,0 1798.6478371062099 1397.2211308157882" fill="none" stroke="blue" stroke-width="0.1" /><path d="M 1798.6478371062099,1397.2211308157882 A 144.01600093851224 144.01600093851224 0 0,0 1726.3648794031926 1346.427427328237" fill="none" stroke="blue" stroke-width="0.1" /><path d="M 1726.3648794031926,1346.427427328237 A 667.9553803431929 667.9553803431929 0 0,0 1495.6666762789466 1317.242483418172" fill="none" stroke="blue" stroke-width="0.1" /><path d="M 1495.6666762789466,1317.242483418172 A 1340.6361207744167 1340.6361207744167 0 0,0 1424.462637971271 1322.646847158586" fill="none" stroke="blue" stroke-width="0.1" /><path d="M 1424.462637971271,1322.646847158586 A 22.04365123930486 22.04365123930486 0 0,1 1400.9157429597558 1306.419275502633" fill="none" stroke="blue" stroke-width="0.1" /><path d="M 1400.9157429597558,1306.419275502633 A 7.106391488394291 7.106391488394291 0 0,1 1408.453282951684 1297.5070540608444" fill="none" stroke="blue" stroke-width="0.1" /><path d="M 1408.453282951684,1297.5070540608444 A 7.106391504294111 7.106391504294111 0 0,1 1414.142790826281 1307.7470679903793" fill="none" stroke="blue" stroke-width="0.1" /><path d="M 1414.142790826281,1307.7470679903793 A 21.715625109863094 21.715625109863094 0 0,1 1387.9251423685625 1318.7053625134388" fill="none" stroke="blue" stroke-width="0.1" /><path d="M 1387.9251423685625,1318.7053625134388 A 1010.8768819608268 1010.8768819608268 0 0,0 1323.1725408923191 1299.8090072384748" fill="none" stroke="blue" stroke-width="0.1" /><path d="M 1323.1725408923191,1299.8090072384748 A 647.1472441881298 647.1472441881298 0 0,0 1134.4869149402052 1280.2152488638703" fill="none" stroke="blue" stroke-width="0.1" /><path d="M 1134.4869149402052,1280.2152488638703 A 187.14083691324595 187.14083691324595 0 0,0 1043.3408684261092 1308.5597614370904" fill="none" stroke="blue" stroke-width="0.1" /></svg>