<?xml version="1.0" encoding="utf-8" ?>
<svg baseProfile="full" height="1435.650133940993" version="1.1" viewBox="0,0,1465.7492932655027,1435.650133940993" width="1465.7492932655027" xmlns="http://www.w3.org/2000/svg" xmlns:ev="http://www.w3.org/2001/xml-events" xmlns:xlink="http://www.w3.org/1999/xlink"><defs /><rect fill="white" height="1435.650133940993" width="1465.7492932655027" x="0" y="0" /><circle cx="374.2645790305678" cy="962.8451344687129" fill="none" r="200" stroke="black" stroke-width="1" /><circle cx="374.2645790305678" cy="962.8451344687129" fill="black" r="2" stroke="black" stroke-width="1" /><text fill="black" font-size="15px" text-anchor="middle" x="394.2645790305678" y="962.8451344687129">6</text><circle cx="706.466222951064" cy="1185.650133940993" fill="none" r="200" stroke="black" stroke-width="1" /><circle cx="706.466222951064" cy="1185.650133940993" fill="black" r="2" stroke="black" stroke-width="1" /><text fill="black" font-size="15px" text-anchor="middle" x="726.466222951064" y="1185.650133940993">3</text><circle cx="601.4212041771693" cy="391.5789409740752" fill="none" r="200" stroke="black" stroke-width="1" /><circle cx="601.4212041771693" cy="391.5789409740752" fill="black" r="2" stroke="black" stroke-width="1" /><text fill="black" font-size="15px" text-anchor="middle" x="621.4212041771693" y="391.5789409740752">9</text><circle cx="250.0" cy="582.6368831138059" fill="none" r="200" stroke="black" stroke-width="1" /><circle cx="250.0" cy="582.6368831138059" fill="black" r="2" stroke="black" stroke-width="1" /><text fill="black" font-size="15px" text-anchor="middle" x="270.0" y="582.6368831138059">1</text><circle cx="975.5273434914818" cy="250.00000000000006" fill="none" r="200" stroke="black" stroke-width="1" /><circle cx="975.5273434914818" cy="250.00000000000006" fill="black" r="2" stroke="black" stroke-width="1" /><text fill="black" font-size="15px" text-anchor="middle" x="995.5273434914818" y="250.00000000000006">8</text><circle cx="1215.7492932655027" cy="569.8334173390389" fill="none" r="200" stroke="black" stroke-width="1" /><circle cx="1215.7492932655027" cy="569.8334173390389" fill="black" r="2" stroke="black" stroke-width="1" /><text fill="black" font-size="15px" text-anchor="middle" x="1235.7492932655027" y="569.8334173390389">7</text><circle cx="975.5273434947268" cy="889.666834707554" fill="none" r="200" stroke="black" stroke-width="1" /><circle cx="975.5273434947268" cy="889.666834707554" fill="black" r="2" stroke="black" stroke-width="1" /><text fill="black" font-size="15px" text-anchor="middle" x="995.5273434947268" y="889.666834707554">10</text><circle cx="882.723938691299" cy="569.8334173390389" fill="none" r="133.02535457420367" stroke="black" stroke-width="1" /><circle cx="882.723938691299" cy="569.8334173390389" fill="black" r="2" stroke="black" stroke-width="1" /><text fill="black" font-size="15px" text-anchor="middle" x="896.0264741487194" y="569.8334173390389">2</text><circle cx="493.2419718329936" cy="679.3589122540851" fill="none" r="16.61447094302248" stroke="black" stroke-width="1" /><circle cx="493.2419718329936" cy="679.3589122540851" fill="black" r="2" stroke="black" stroke-width="1" /><text fill="black" font-size="15px" text-anchor="middle" x="494.9034189272959" y="679.3589122540851">4</text><circle cx="450.76754570792536" cy="727.4304409953689" fill="none" r="47.53339535017345" stroke="black" stroke-width="1" /><circle cx="450.76754570792536" cy="727.4304409953689" fill="black" r="2" stroke="black" stroke-width="1" /><text fill="black" font-size="15px" text-anchor="middle" x="455.5208852429427" y="727.4304409953689">5</text><circle cx="727.9809691984121" cy="934.922412257589" fill="none" r="51.649110313080946" stroke="black" stroke-width="1" /><circle cx="727.9809691984121" cy="934.922412257589" fill="black" r="2" stroke="black" stroke-width="1" /><text fill="black" font-size="15px" text-anchor="middle" x="733.1458802297202" y="934.922412257589">11</text><circle cx="625.4394185090208" cy="947.4025071143144" fill="none" r="51.649110313071255" stroke="black" stroke-width="1" /><circle cx="625.4394185090208" cy="947.4025071143144" fill="black" r="2" stroke="black" stroke-width="1" /><text fill="black" font-size="15px" text-anchor="middle" x="630.604329540328" y="947.4025071143144">12</text><circle cx="495.37602008462807" cy="615.2465531676397" fill="none" r="47.53339535018618" stroke="black" stroke-width="1" /><circle cx="495.37602008462807" cy="615.2465531676397" fill="black" r="2" stroke="black" stroke-width="1" /><text fill="black" font-size="15px" text-anchor="middle" x="500.12935961964666" y="615.2465531676397">13</text><circle cx="475.05925733330423" cy="665.2241877215496" fill="none" r="6.415977255822074" stroke="black" stroke-width="1" /><circle cx="475.05925733330423" cy="665.2241877215496" fill="black" r="2" stroke="black" stroke-width="1" /><text fill="black" font-size="15px" text-anchor="middle" x="475.7008550588864" y="665.2241877215496">14</text><circle cx="470.3178878061329" cy="677.1480491588272" fill="none" r="6.415977255810656" stroke="black" stroke-width="1" /><circle cx="470.3178878061329" cy="677.1480491588272" fill="black" r="2" stroke="black" stroke-width="1" /><text fill="black" font-size="15px" text-anchor="middle" x="470.95948553171394" y="677.1480491588272">15</text><circle cx="451.70171151732677" cy="662.8409641470133" fill="none" r="17.06283662432883" stroke="black" stroke-width="1" /><circle cx="451.70171151732677" cy="662.8409641470133" fill="black" r="2" stroke="black" stroke-width="1" /><text fill="black" font-size="15px" text-anchor="middle" x="453.40799517975967" y="662.8409641470133">16</text><circle cx="652.5568094926567" cy="742.7084002282731" fill="none" r="154.83340779459644" stroke="black" stroke-width="1" /><circle cx="652.5568094926567" cy="742.7084002282731" fill="black" r="2" stroke="black" stroke-width="1" /><text fill="black" font-size="15px" text-anchor="middle" x="668.0401502721164" y="742.7084002282731">17</text><circle cx="1010.3913274330882" cy="473.94440955096115" fill="none" r="26.64199951776189" stroke="black" stroke-width="1" /><circle cx="1010.3913274330882" cy="473.94440955096115" fill="black" r="2" stroke="black" stroke-width="1" /><text fill="black" font-size="15px" text-anchor="middle" x="1013.0555273848644" y="473.94440955096115">19</text><circle cx="680.9812718109367" cy="976.255378600205" fill="none" r="10.939911574690171" stroke="black" stroke-width="1" /><circle cx="680.9812718109367" cy="976.255378600205" fill="black" r="2" stroke="black" stroke-width="1" /><text fill="black" font-size="15px" text-anchor="middle" x="682.0752629684057" y="976.255378600205">20</text><circle cx="476.62240289861063" cy="672.7503552738901" fill="none" r="1.2708050406236604" stroke="black" stroke-width="1" /><circle cx="476.62240289861063" cy="672.7503552738901" fill="black" r="2" stroke="black" stroke-width="1" /><text fill="black" font-size="15px" text-anchor="middle" x="476.749483402673" y="672.7503552738901">21</text><path d="M 412.21451285303084,699.6259929482432 A 125.77821032391779 125.77821032391779 0 0,1 425.71060208858466 487.10791204394053" fill="none" stroke="blue" stroke-width="0.1" /><path d="M 425.71060208858466,487.10791204394053 A 340.2580392968992 340.2580392968992 0 0,1 770.3589325815396 498.63053564492213" fill="none" stroke="blue" stroke-width="0.1" /><path d="M 770.3589325815396,498.63053564492213 A 458.45250869633537 458.45250869633537 0 0,0 1015.7492932655027 569.8334173390389" fill="none" stroke="blue" stroke-width="0.1" /><path d="M 1015.7492932655027,569.8334173390389 A 99.91329333582844 99.91329333582844 0 0,0 1095.6383183784924 409.9167086695195" fill="none" stroke="blue" stroke-width="0.1" /><path d="M 1095.6383183784924,409.9167086695195 A 99.91329333582834 99.91329333582834 0 0,0 919.7938063745627 442.07751779018054" fill="none" stroke="blue" stroke-width="0.1" /><path d="M 919.7938063745627,442.07751779018054 A 458.452508968383 458.452508968383 0 0,0 919.7938063758588 697.5893168996714" fill="none" stroke="blue" stroke-width="0.1" /><path d="M 919.7938063758588,697.5893168996714 A 357.47066543435534 357.47066543435534 0 0,1 840.9967832228954 1037.6584843242736" fill="none" stroke="blue" stroke-width="0.1" /><path d="M 840.9967832228954,1037.6584843242736 A 117.9384537187927 117.9384537187927 0 0,1 642.0695681476836 996.3010625055488" fill="none" stroke="blue" stroke-width="0.1" /><path d="M 642.0695681476836,996.3010625055488 A 41.941398890116915 41.941398890116915 0 0,1 676.7101938537116 941.1624596859523" fill="none" stroke="blue" stroke-width="0.1" /><path d="M 676.7101938537116,941.1624596859523 A 41.941398890116986 41.941398890116986 0 0,1 723.5652273708143 986.3824143997085" fill="none" stroke="blue" stroke-width="0.1" /><path d="M 723.5652273708143,986.3824143997085 A 117.93845371878585 117.93845371878585 0 0,1 540.3654009908159 1074.247634204853" fill="none" stroke="blue" stroke-width="0.1" /><path d="M 540.3654009908159,1074.247634204853 A 579.995924531637 579.995924531637 0 0,1 312.1322895152839 772.7410087912594" fill="none" stroke="blue" stroke-width="0.1" /><path d="M 312.1322895152839,772.7410087912594 A 125.77821032390781 125.77821032390781 0 0,1 448.2569016495685 608.9845765292345" fill="none" stroke="blue" stroke-width="0.1" /><path d="M 448.2569016495685,608.9845765292345 A 52.48055087305745 52.48055087305745 0 0,1 493.79469610453407 662.7536377736907" fill="none" stroke="blue" stroke-width="0.1" /><path d="M 493.79469610453407,662.7536377736907 A 15.601404193235238 15.601404193235238 0 0,1 476.7042334150769 677.7639662791725" fill="none" stroke="blue" stroke-width="0.1" /><path d="M 476.7042334150769,677.7639662791725 A 4.81936459316754 4.81936459316754 0 0,1 472.6885725697164 671.1861184401937" fill="none" stroke="blue" stroke-width="0.1" /><path d="M 472.6885725697164,671.1861184401937 A 4.819364592009391 4.819364592009391 0 0,1 480.124720309616 669.1619344095453" fill="none" stroke="blue" stroke-width="0.1" /><path d="M 480.124720309616,669.1619344095453 A 15.601404196393961 15.601404196393961 0 0,1 482.24098053811474 691.80956827136" fill="none" stroke="blue" stroke-width="0.1" /><path d="M 482.24098053811474,691.80956827136 A 52.48055087596797 52.48055087596797 0 0,1 412.21451285303084 699.6259929482432" fill="none" stroke="blue" stroke-width="0.1" /><path d="M 425.71060208858466,487.10791204394053 A 125.7782103239177 125.7782103239177 0 0,0 412.21451285303084 699.625992948243" fill="none" stroke="blue" stroke-width="0.1" /><path d="M 412.21451285303084,699.625992948243 A 52.48055087596795 52.48055087596795 0 0,0 482.24098053811474 691.80956827136" fill="none" stroke="blue" stroke-width="0.1" /><path d="M 482.24098053811474,691.80956827136 A 15.601404196393961 15.601404196393961 0 0,0 480.124720309616 669.1619344095453" fill="none" stroke="blue" stroke-width="0.1" /><path d="M 480.124720309616,669.1619344095453 A 4.819364592009391 4.819364592009391 0 0,0 472.6885725697164 671.1861184401937" fill="none" stroke="blue" stroke-width="0.1" /><path d="M 472.6885725697164,671.1861184401937 A 4.81936459316754 4.81936459316754 0 0,0 476.7042334150769 677.7639662791725" fill="none" stroke="blue" stroke-width="0.1" /><path d="M 476.7042334150769,677.7639662791725 A 15.601404193235238 15.601404193235238 0 0,0 493.79469610453407 662.7536377736907" fill="none" stroke="blue" stroke-width="0.1" /><path d="M 493.79469610453407,662.7536377736907 A 52.48055087305745 52.48055087305745 0 0,0 448.2569016495685 608.9845765292345" fill="none" stroke="blue" stroke-width="0.1" /><path d="M 448.2569016495685,608.9845765292345 A 125.77821032390781 125.77821032390781 0 0,0 312.1322895152839 772.7410087912594" fill="none" stroke="blue" stroke-width="0.1" /><path d="M 312.1322895152839,772.7410087912594 A 579.995924531637 579.995924531637 0 0,0 540.3654009908158 1074.247634204853" fill="none" stroke="blue" stroke-width="0.1" /><path d="M 540.3654009908158,1074.247634204853 A 117.93845371878602 117.93845371878602 0 0,0 723.5652273708145 986.3824143997084" fill="none" stroke="blue" stroke-width="0.1" /><path d="M 723.5652273708145,986.3824143997084 A 41.941398890117 41.941398890117 0 0,0 676.7101938537116 941.1624596859523" fill="none" stroke="blue" stroke-width="0.1" /><path d="M 676.7101938537116,941.1624596859523 A 41.941398890116915 41.941398890116915 0 0,0 642.0695681476836 996.3010625055488" fill="none" stroke="blue" stroke-width="0.1" /><path d="M 642.0695681476836,996.3010625055488 A 117.9384537187927 117.9384537187927 0 0,0 840.9967832228954 1037.6584843242736" fill="none" stroke="blue" stroke-width="0.1" /><path d="M 840.9967832228954,1037.6584843242736 A 357.47066543435534 357.47066543435534 0 0,0 919.7938063758588 697.5893168996714" fill="none" stroke="blue" stroke-width="0.1" /><path d="M 919.7938063758588,697.5893168996714 A 458.452508968383 458.452508968383 0 0,1 919.7938063745627 442.07751779018054" fill="none" stroke="blue" stroke-width="0.1" /><path d="M 919.7938063745627,442.07751779018054 A 99.91329333582834 99.91329333582834 0 0,1 1095.6383183784924 409.9167086695195" fill="none" stroke="blue" stroke-width="0.1" /><path d="M 1095.6383183784924,409.9167086695195 A 99.91329333582844 99.91329333582844 0 0,1 1015.7492932655027 569.8334173390389" fill="none" stroke="blue" stroke-width="0.1" /><path d="M 1015.7492932655027,569.8334173390389 A 458.45250869633537 458.45250869633537 0 0,1 770.3589325815396 498.63053564492213" fill="none" stroke="blue" stroke-width="0.1" /><path d="M 770.3589325815396,498.63053564492213 A 340.2580392968992 340.2580392968992 0 0,0 425.71060208858466 487.10791204394053" fill="none" stroke="blue" stroke-width="0.1" /></svg>