<?xml version="1.0" encoding="utf-8" ?>
<svg baseProfile="full" height="1280.8134611106022" version="1.1" viewBox="0,0,1230.3787531829744,1280.8134611106022" width="1230.3787531829744" xmlns="http://www.w3.org/2000/svg" xmlns:ev="http://www.w3.org/2001/xml-events" xmlns:xlink="http://www.w3.org/1999/xlink"><defs /><rect fill="white" height="1280.8134611106022" width="1230.3787531829744" x="0" y="0" /><circle cx="963.9108093466604" cy="631.152596319457" fill="#89CFF0" r="200" stroke="black" stroke-width="1" /><circle cx="963.9108093466604" cy="631.152596319457" fill="black" r="2" stroke="black" stroke-width="1" /><text fill="black" font-size="15px" text-anchor="middle" x="983.9108093466604" y="631.152596319457">1</text><circle cx="980.3787531829745" cy="1030.8134611106025" fill="#89CFF0" r="200" stroke="black" stroke-width="1" /><circle cx="980.3787531829745" cy="1030.8134611106025" fill="black" r="2" stroke="black" stroke-width="1" /><text fill="black" font-size="15px" text-anchor="middle" x="1000.3787531829745" y="1030.8134611106025">5</text><circle cx="594.4686717503363" cy="925.5831943207922" fill="#89CFF0" r="200" stroke="black" stroke-width="1" /><circle cx="594.4686717503363" cy="925.5831943207922" fill="black" r="2" stroke="black" stroke-width="1" /><text fill="black" font-size="15px" text-anchor="middle" x="614.4686717503363" y="925.5831943207922">2</text><circle cx="250.0" cy="722.2575093162677" fill="#89CFF0" r="200" stroke="black" stroke-width="1" /><circle cx="250.0" cy="722.2575093162677" fill="black" r="2" stroke="black" stroke-width="1" /><text fill="black" font-size="15px" text-anchor="middle" x="270.0" y="722.2575093162677">8</text><circle cx="466.33326546790687" cy="385.80555397644173" fill="#89CFF0" r="200" stroke="black" stroke-width="1" /><circle cx="466.33326546790687" cy="385.80555397644173" fill="black" r="2" stroke="black" stroke-width="1" /><text fill="black" font-size="15px" text-anchor="middle" x="486.33326546790687" y="385.80555397644173">4</text><circle cx="842.573682633782" cy="250.0" fill="#89CFF0" r="200" stroke="black" stroke-width="1" /><circle cx="842.573682633782" cy="250.0" fill="black" r="2" stroke="black" stroke-width="1" /><text fill="black" font-size="15px" text-anchor="middle" x="862.573682633782" y="250.0">12</text><circle cx="643.8572117688557" cy="608.5569481614488" fill="#89CFF0" r="55.74313081388871" stroke="black" stroke-width="1" /><circle cx="643.8572117688557" cy="608.5569481614488" fill="black" r="2" stroke="black" stroke-width="1" /><text fill="black" font-size="15px" text-anchor="middle" x="649.4315248502445" y="608.5569481614488">3</text><circle cx="773.4385743207637" cy="771.1515151086573" fill="#89CFF0" r="36.38817561449219" stroke="black" stroke-width="1" /><circle cx="773.4385743207637" cy="771.1515151086573" fill="black" r="2" stroke="black" stroke-width="1" /><text fill="black" font-size="15px" text-anchor="middle" x="777.0773918822129" y="771.1515151086573">6</text><circle cx="624.121509128791" cy="694.7751667982842" fill="#89CFF0" r="32.70504148690866" stroke="black" stroke-width="1" /><circle cx="624.121509128791" cy="694.7751667982842" fill="black" r="2" stroke="black" stroke-width="1" /><text fill="black" font-size="15px" text-anchor="middle" x="627.3920132774819" y="694.7751667982842">7</text><circle cx="732.3053840696531" cy="608.5569481614488" fill="#89CFF0" r="32.70504148690866" stroke="black" stroke-width="1" /><circle cx="732.3053840696531" cy="608.5569481614488" fill="black" r="2" stroke="black" stroke-width="1" /><text fill="black" font-size="15px" text-anchor="middle" x="735.575888218344" y="608.5569481614488">9</text><circle cx="628.764057472359" cy="534.2722581361011" fill="#89CFF0" r="20.059365706677898" stroke="black" stroke-width="1" /><circle cx="628.764057472359" cy="534.2722581361011" fill="black" r="2" stroke="black" stroke-width="1" /><text fill="black" font-size="15px" text-anchor="middle" x="630.7699940430268" y="534.2722581361011">10</text><circle cx="574.8131661759829" cy="577.2689592986897" fill="#89CFF0" r="20.059365706677898" stroke="black" stroke-width="1" /><circle cx="574.8131661759829" cy="577.2689592986897" fill="black" r="2" stroke="black" stroke-width="1" /><text fill="black" font-size="15px" text-anchor="middle" x="576.8191027466507" y="577.2689592986897">11</text><circle cx="825.9235912253436" cy="837.0080428275213" fill="#89CFF0" r="47.824408021562654" stroke="black" stroke-width="1" /><circle cx="825.9235912253436" cy="837.0080428275213" fill="black" r="2" stroke="black" stroke-width="1" /><text fill="black" font-size="15px" text-anchor="middle" x="830.7060320274999" y="837.0080428275213">13</text><circle cx="714.679326275468" cy="697.4222819705994" fill="#89CFF0" r="57.89145659721435" stroke="black" stroke-width="1" /><circle cx="714.679326275468" cy="697.4222819705994" fill="black" r="2" stroke="black" stroke-width="1" /><text fill="black" font-size="15px" text-anchor="middle" x="720.4684719351894" y="697.4222819705994">15</text><circle cx="520.0858688223788" cy="658.1430296749461" fill="#89CFF0" r="77.59150389955491" stroke="black" stroke-width="1" /><circle cx="520.0858688223788" cy="658.1430296749461" fill="black" r="2" stroke="black" stroke-width="1" /><text fill="black" font-size="15px" text-anchor="middle" x="527.8450192123343" y="658.1430296749461">16</text><circle cx="719.8105962415027" cy="498.97041522369346" fill="#89CFF0" r="77.59150389955491" stroke="black" stroke-width="1" /><circle cx="719.8105962415027" cy="498.97041522369346" fill="black" r="2" stroke="black" stroke-width="1" /><text fill="black" font-size="15px" text-anchor="middle" x="727.5697466314582" y="498.97041522369346">17</text><circle cx="600.048877915511" cy="553.5876460143777" fill="#89CFF0" r="14.54765303042643" stroke="black" stroke-width="1" /><circle cx="600.048877915511" cy="553.5876460143777" fill="black" r="2" stroke="black" stroke-width="1" /><text fill="black" font-size="15px" text-anchor="middle" x="601.5036432185536" y="553.5876460143777">18</text><path d="M 972.1447812648174,830.9830287150297 A 229.79700786438298 229.79700786438298 0 0,0 764.8558823050073 611.7326060918027" fill="none" stroke="blue" stroke-width="2" /><path d="M 764.8558823050073,611.7326060918027 A 672.0450315095363 672.0450315095363 0 0,0 699.6003425827444 608.5569481614488" fill="none" stroke="blue" stroke-width="2" /><path d="M 699.6003425827444,608.5569481614488 A 258.0606820615593 258.0606820615593 0 0,1 593.0840652095023 585.5485970366666" fill="none" stroke="blue" stroke-width="2" /><path d="M 593.0840652095023,585.5485970366666 A 61.57777060830335 61.57777060830335 0 0,1 564.9247526874705 559.8162394179819" fill="none" stroke="blue" stroke-width="2" /><path d="M 564.9247526874705,559.8162394179819 A 168.75032722515868 168.75032722515868 0 0,1 654.4534740508445 317.90277698822086" fill="none" stroke="blue" stroke-width="2" /><path d="M 654.4534740508445,317.90277698822086 A 192.50205982590563 192.50205982590563 0 0,1 903.2422459902211 440.5762981597285" fill="none" stroke="blue" stroke-width="2" /><path d="M 903.2422459902211,440.5762981597285 A 278.6256635094223 278.6256635094223 0 0,1 802.7587258883714 749.6009226160431" fill="none" stroke="blue" stroke-width="2" /><path d="M 802.7587258883714,749.6009226160431 A 931.4452174991645 931.4452174991645 0 0,0 745.8890227092573 794.9238000336719" fill="none" stroke="blue" stroke-width="2" /><path d="M 745.8890227092573,794.9238000336719 A 278.6256634809403 278.6256634809403 0 0,1 422.23433587516814 823.92035181853" fill="none" stroke="blue" stroke-width="2" /><path d="M 422.23433587516814,823.92035181853 A 192.50205982590595 192.50205982590595 0 0,1 358.1666327339534 554.0315316463547" fill="none" stroke="blue" stroke-width="2" /><path d="M 358.1666327339534,554.0315316463547 A 168.75032722515868 168.75032722515868 0 0,1 613.9577862265096 520.7388740674884" fill="none" stroke="blue" stroke-width="2" /><path d="M 613.9577862265096,520.7388740674884 A 61.57777060701775 61.57777060701775 0 0,1 632.7581093255008 553.9299716946692" fill="none" stroke="blue" stroke-width="2" /><path d="M 632.7581093255008,553.9299716946692 A 258.0606820550624 258.0606820550624 0 0,1 631.4190818974121 662.8946842049809" fill="none" stroke="blue" stroke-width="2" /><path d="M 631.4190818974121,662.8946842049809 A 672.0450337343407 672.0450337343407 0 0,0 619.9540133561587 727.2135964403848" fill="none" stroke="blue" stroke-width="2" /><path d="M 619.9540133561587,727.2135964403848 A 229.7970078675077 229.7970078675077 0 0,0 787.4237124666554 978.1983277156974" fill="none" stroke="blue" stroke-width="2" /><path d="M 787.4237124666554,978.1983277156974 A 146.34526713755676 146.34526713755676 0 0,0 972.1447812648174 830.9830287150297" fill="none" stroke="blue" stroke-width="2" /></svg>