<?xml version="1.0" encoding="utf-8" ?>
<svg baseProfile="full" height="1988.9108277305281" version="1.1" viewBox="0,0,2098.8594971066823,1988.9108277305281" width="2098.8594971066823" xmlns="http://www.w3.org/2000/svg" xmlns:ev="http://www.w3.org/2001/xml-events" xmlns:xlink="http://www.w3.org/1999/xlink"><defs /><rect fill="white" height="1988.9108277305281" width="2098.8594971066823" x="0" y="0" /><circle cx="1548.859497106682" cy="1438.9108277305281" fill="none" r="500" stroke="black" stroke-width="1" /><circle cx="1548.859497106682" cy="1438.9108277305281" fill="black" r="1" stroke="black" stroke-width="30" /><text fill="black" font-size="55px" text-anchor="middle" x="1598.859497106682" y="1438.9108277305281">8</text><circle cx="550.0" cy="1391.16457091613" fill="none" r="500" stroke="black" stroke-width="1" /><circle cx="550.0" cy="1391.16457091613" fill="black" r="1" stroke="black" stroke-width="30" /><text fill="black" font-size="55px" text-anchor="middle" x="600.0" y="1391.16457091613">7</text><circle cx="1090.7792198628592" cy="549.9999999999999" fill="none" r="500" stroke="black" stroke-width="1" /><circle cx="1090.7792198628592" cy="549.9999999999999" fill="black" r="1" stroke="black" stroke-width="30" /><text fill="black" font-size="55px" text-anchor="middle" x="1140.7792198628592" y="549.9999999999999">2</text><circle cx="1064.6903064409616" cy="1095.784333831111" fill="none" r="11.753163496909892" stroke="black" stroke-width="0.023506326993819784" /><circle cx="1064.6903064409616" cy="1095.784333831111" fill="black" r="0.023506326993819784" stroke="black" stroke-width="0.7051898098145936" /><text fill="black" font-size="11.05778471472189px" text-anchor="middle" x="1065.8656227906527" y="1095.784333831111">1</text><circle cx="1055.9428593645068" cy="1113.3804619213065" fill="none" r="7.897321337179664" stroke="black" stroke-width="0.015794642674359326" /><circle cx="1055.9428593645068" cy="1113.3804619213065" fill="black" r="0.015794642674359326" stroke="black" stroke-width="0.4738392802307798" /><text fill="black" font-size="10.71075892034617px" text-anchor="middle" x="1056.7325914982248" y="1113.3804619213065">3</text><circle cx="1071.7194882012536" cy="1114.134596987321" fill="none" r="7.897321337164974" stroke="black" stroke-width="0.015794642674329947" /><circle cx="1071.7194882012536" cy="1114.134596987321" fill="black" r="0.015794642674329947" stroke="black" stroke-width="0.4738392802298984" /><text fill="black" font-size="10.710758920344848px" text-anchor="middle" x="1072.5092203349702" y="1114.134596987321">4</text><circle cx="1006.4580824962903" cy="1090.204493660569" fill="none" r="46.74578112488769" stroke="black" stroke-width="0.09349156224977538" /><circle cx="1006.4580824962903" cy="1090.204493660569" fill="black" r="0.09349156224977538" stroke="black" stroke-width="2.8047468674932614" /><text fill="black" font-size="14.207120301239893px" text-anchor="middle" x="1011.1326606087791" y="1090.204493660569">5</text><circle cx="1123.1892510627445" cy="1095.784333831111" fill="none" r="46.74578112487278" stroke="black" stroke-width="0.09349156224974556" /><circle cx="1123.1892510627445" cy="1095.784333831111" fill="black" r="0.09349156224974556" stroke="black" stroke-width="2.8047468674923666" /><text fill="black" font-size="14.20712030123855px" text-anchor="middle" x="1127.8638291752318" y="1095.784333831111">6</text><circle cx="1064.0633754128735" cy="1108.899833404031" fill="none" r="1.3773114222500527" stroke="black" stroke-width="0.0027546228445001052" /><circle cx="1064.0633754128735" cy="1108.899833404031" fill="black" r="0.0027546228445001052" stroke="black" stroke-width="0.08263868533500315" /><text fill="black" font-size="10.123958028002505px" text-anchor="middle" x="1064.2011065550985" y="1108.899833404031">9</text><circle cx="1060.875906466781" cy="1175.5822047980537" fill="none" r="54.49972803358852" stroke="black" stroke-width="0.10899945606717704" /><circle cx="1060.875906466781" cy="1175.5822047980537" fill="black" r="0.10899945606717704" stroke="black" stroke-width="3.269983682015311" /><text fill="black" font-size="14.904975523022966px" text-anchor="middle" x="1066.32587927014" y="1175.5822047980537">10</text><circle cx="1066.078783742003" cy="1066.7371617028477" fill="none" r="17.327174841294873" stroke="black" stroke-width="0.03465434968258975" /><circle cx="1066.078783742003" cy="1066.7371617028477" fill="black" r="0.03465434968258975" stroke="black" stroke-width="1.0396304904776925" /><text fill="black" font-size="11.559445735716539px" text-anchor="middle" x="1067.8115012261326" y="1066.7371617028477">11</text><path d="M 1076.4434699378717,1095.784333831111 A 18.9681238342792 18.9681238342792 0 0,0 1059.458365522548 1106.308764760055" fill="none" stroke="blue" stroke-width="0.1" /><path d="M 1059.458365522548,1106.308764760055 A 5.158384240729059 5.158384240729059 0 0,0 1063.8311737828876 1113.7575294543142" fill="none" stroke="blue" stroke-width="0.1" /><path d="M 1063.8311737828876,1113.7575294543142 A 5.158384240728992 5.158384240728992 0 0,0 1068.8945346407133 1106.7598209454172" fill="none" stroke="blue" stroke-width="0.1" /><path d="M 1068.8945346407133,1106.7598209454172 A 18.968123830288853 18.968123830288853 0 0,0 1052.9907304360406 1094.6632747379088" fill="none" stroke="blue" stroke-width="0.1" /><path d="M 1052.9907304360406,1094.6632747379088 A 44.05224719798223 44.05224719798223 0 0,1 1013.667388114396 1044.0179808513012" fill="none" stroke="blue" stroke-width="0.1" /><path d="M 1013.667388114396,1044.0179808513012 A 163.1116940002553 163.1116940002553 0 0,1 1319.8193584847706 994.4554138652641" fill="none" stroke="blue" stroke-width="0.1" /><path d="M 1319.8193584847706,994.4554138652641 A 288.67513459481273 288.67513459481273 0 0,1 1049.4297485533411 1415.037699323329" fill="none" stroke="blue" stroke-width="0.1" /><path d="M 1049.4297485533411,1415.037699323329 A 288.67513460565755 288.67513460565755 0 0,1 820.3896099314296 970.5822854580649" fill="none" stroke="blue" stroke-width="0.1" /><path d="M 820.3896099314296,970.5822854580649 A 163.1116940122411 163.1116940122411 0 0,1 1120.4182516750525 1049.1207547209751" fill="none" stroke="blue" stroke-width="0.1" /><path d="M 1120.4182516750525,1049.1207547209751 A 44.052247197939224 44.052247197939224 0 0,1 1076.4434699378717 1095.784333831111" fill="none" stroke="blue" stroke-width="0.1" /><path d="M 1063.8311737828876,1113.7575294543142 A 5.158384240729059 5.158384240729059 0 0,1 1059.458365522548 1106.308764760055" fill="none" stroke="blue" stroke-width="0.1" /><path d="M 1059.458365522548,1106.308764760055 A 18.9681238342792 18.9681238342792 0 0,1 1076.4434699378717 1095.784333831111" fill="none" stroke="blue" stroke-width="0.1" /><path d="M 1076.4434699378717,1095.784333831111 A 44.052247197939224 44.052247197939224 0 0,0 1120.4182516750525 1049.1207547209751" fill="none" stroke="blue" stroke-width="0.1" /><path d="M 1120.4182516750525,1049.1207547209751 A 163.1116940122411 163.1116940122411 0 0,0 820.3896099314296 970.5822854580649" fill="none" stroke="blue" stroke-width="0.1" /><path d="M 820.3896099314296,970.5822854580649 A 288.67513460565755 288.67513460565755 0 0,0 1049.4297485533411 1415.037699323329" fill="none" stroke="blue" stroke-width="0.1" /><path d="M 1049.4297485533411,1415.037699323329 A 288.67513459481273 288.67513459481273 0 0,0 1319.8193584847706 994.4554138652641" fill="none" stroke="blue" stroke-width="0.1" /><path d="M 1319.8193584847706,994.4554138652641 A 163.1116940002553 163.1116940002553 0 0,0 1013.667388114396 1044.0179808513012" fill="none" stroke="blue" stroke-width="0.1" /><path d="M 1013.667388114396,1044.0179808513012 A 44.05224719798223 44.05224719798223 0 0,0 1052.9907304360406 1094.6632747379088" fill="none" stroke="blue" stroke-width="0.1" /><path d="M 1052.9907304360406,1094.6632747379088 A 18.968123830288853 18.968123830288853 0 0,1 1068.8945346407133 1106.7598209454172" fill="none" stroke="blue" stroke-width="0.1" /><path d="M 1068.8945346407133,1106.7598209454172 A 5.158384240728992 5.158384240728992 0 0,1 1063.8311737828876 1113.7575294543142" fill="none" stroke="blue" stroke-width="0.1" /></svg>