<?xml version="1.0" encoding="utf-8" ?>
<svg baseProfile="full" height="2092.608602529822" version="1.1" viewBox="0,0,2020.3040858584272,2092.608602529822" width="2020.3040858584272" xmlns="http://www.w3.org/2000/svg" xmlns:ev="http://www.w3.org/2001/xml-events" xmlns:xlink="http://www.w3.org/1999/xlink"><defs /><rect fill="white" height="2092.608602529822" width="2020.3040858584272" x="0" y="0" /><circle cx="1470.3040858584272" cy="1151.404832627902" fill="none" r="500" stroke="black" stroke-width="1" /><circle cx="1470.3040858584272" cy="1151.404832627902" fill="black" r="1" stroke="black" stroke-width="30" /><text fill="black" font-size="45px" text-anchor="middle" x="1520.3040858584272" y="1151.404832627902">15</text><circle cx="550.0" cy="1542.6086025298218" fill="none" r="500" stroke="black" stroke-width="1" /><circle cx="550.0" cy="1542.6086025298218" fill="black" r="1" stroke="black" stroke-width="30" /><text fill="black" font-size="45px" text-anchor="middle" x="600.0" y="1542.6086025298218">14</text><circle cx="671.3596399837437" cy="550.0" fill="none" r="500" stroke="black" stroke-width="1" /><circle cx="671.3596399837437" cy="550.0" fill="black" r="1" stroke="black" stroke-width="30" /><text fill="black" font-size="45px" text-anchor="middle" x="721.3596399837437" y="550.0">3</text><circle cx="883.6889931385562" cy="1043.2321891326837" fill="none" r="0.8315329291671498" stroke="black" stroke-width="0.0016630658583342997" /><circle cx="883.6889931385562" cy="1043.2321891326837" fill="black" r="0.0016630658583342997" stroke="black" stroke-width="0.04989197575002899" /><text fill="black" font-size="0.07483796362504348px" text-anchor="middle" x="883.7721464314728" y="1043.2321891326837">1</text><circle cx="879.1828717570418" cy="1045.2019528215474" fill="none" r="0.8019913270396059" stroke="black" stroke-width="0.0016039826540792117" /><circle cx="879.1828717570418" cy="1045.2019528215474" fill="black" r="0.0016039826540792117" stroke="black" stroke-width="0.04811947962237635" /><text fill="black" font-size="0.07217921943356452px" text-anchor="middle" x="879.2630708897457" y="1045.2019528215474">2</text><circle cx="889.1184625633433" cy="1062.276080719986" fill="none" r="14.086118647702952" stroke="black" stroke-width="0.028172237295405904" /><circle cx="889.1184625633433" cy="1062.276080719986" fill="black" r="0.028172237295405904" stroke="black" stroke-width="0.8451671188621771" /><text fill="black" font-size="1.2677506782932657px" text-anchor="middle" x="890.5270744281136" y="1062.276080719986">4</text><circle cx="883.1214625190802" cy="1042.0012119060125" fill="none" r="0.1324282179436617" stroke="black" stroke-width="0.00026485643588732336" /><circle cx="883.1214625190802" cy="1042.0012119060125" fill="black" r="0.00026485643588732336" stroke="black" stroke-width="0.0079456930766197" /><text fill="black" font-size="0.01191853961492955px" text-anchor="middle" x="883.1347053408746" y="1042.0012119060125">5</text><circle cx="878.5066959315258" cy="1043.989094194349" fill="none" r="0.1842042147097842" stroke="black" stroke-width="0.0003684084294195684" /><circle cx="878.5066959315258" cy="1043.989094194349" fill="black" r="0.0003684084294195684" stroke="black" stroke-width="0.011052252882587052" /><text fill="black" font-size="0.01657837932388058px" text-anchor="middle" x="878.5251163529967" y="1043.989094194349">6</text><circle cx="881.2161845440764" cy="1043.7408239566983" fill="none" r="0.38982961026470825" stroke="black" stroke-width="0.0007796592205294165" /><circle cx="881.2161845440764" cy="1043.7408239566983" fill="black" r="0.0007796592205294165" stroke="black" stroke-width="0.023389776615882495" /><text fill="black" font-size="0.03508466492382374px" text-anchor="middle" x="881.2551675051029" y="1043.7408239566983">7</text><circle cx="883.3945562276949" cy="1041.8549615216577" fill="none" r="0.14902066844353692" stroke="black" stroke-width="0.0002980413368870739" /><circle cx="883.3945562276949" cy="1041.8549615216577" fill="black" r="0.0002980413368870739" stroke="black" stroke-width="0.008941240106612217" /><text fill="black" font-size="0.013411860159918325px" text-anchor="middle" x="883.4094582945393" y="1041.8549615216577">8</text><circle cx="884.113449363782" cy="1041.8954157630224" fill="none" r="0.5710098077822424" stroke="black" stroke-width="0.0011420196155644848" /><circle cx="884.113449363782" cy="1041.8954157630224" fill="black" r="0.0011420196155644848" stroke="black" stroke-width="0.03426058846693454" /><text fill="black" font-size="0.05139088270040181px" text-anchor="middle" x="884.1705503445603" y="1041.8954157630224">9</text><circle cx="882.8579993562876" cy="1042.3993414200957" fill="none" r="0.34498140498993174" stroke="black" stroke-width="0.0006899628099798635" /><circle cx="882.8579993562876" cy="1042.3993414200957" fill="black" r="0.0006899628099798635" stroke="black" stroke-width="0.020698884299395905" /><text fill="black" font-size="0.031048326449093857px" text-anchor="middle" x="882.8924974967865" y="1042.3993414200957">10</text><circle cx="875.1537521406876" cy="1049.3227545947793" fill="none" r="4.961237986775114" stroke="black" stroke-width="0.009922475973550227" /><circle cx="875.1537521406876" cy="1049.3227545947793" fill="black" r="0.009922475973550227" stroke="black" stroke-width="0.2976742792065068" /><text fill="black" font-size="0.4465114188097602px" text-anchor="middle" x="875.6498759393652" y="1049.3227545947793">11</text><circle cx="880.1522198012981" cy="1044.035960783478" fill="none" r="0.7143111053998928" stroke="black" stroke-width="0.0014286222107997857" /><circle cx="880.1522198012981" cy="1044.035960783478" fill="black" r="0.0014286222107997857" stroke="black" stroke-width="0.04285866632399357" /><text fill="black" font-size="0.06428799948599036px" text-anchor="middle" x="880.223650911838" y="1044.035960783478">12</text><circle cx="877.9623879773037" cy="1044.5368050986128" fill="none" r="0.5879734744649988" stroke="black" stroke-width="0.0011759469489299977" /><circle cx="877.9623879773037" cy="1044.5368050986128" fill="black" r="0.0011759469489299977" stroke="black" stroke-width="0.03527840846789993" /><text fill="black" font-size="0.0529176127018499px" text-anchor="middle" x="878.0211853247501" y="1044.5368050986128">13</text><circle cx="829.54252425893" cy="1073.063185812177" fill="none" r="46.458526532151474" stroke="black" stroke-width="0.09291705306430295" /><circle cx="829.54252425893" cy="1073.063185812177" fill="black" r="0.09291705306430295" stroke="black" stroke-width="2.7875115919290887" /><text fill="black" font-size="4.181267387893633px" text-anchor="middle" x="834.1883769121451" y="1073.063185812177">16</text><circle cx="938.2266370519353" cy="1026.8636357555072" fill="none" r="46.458526532232305" stroke="black" stroke-width="0.09291705306446461" /><circle cx="938.2266370519353" cy="1026.8636357555072" fill="black" r="0.09291705306446461" stroke="black" stroke-width="2.7875115919339386" /><text fill="black" font-size="4.181267387900908px" text-anchor="middle" x="942.8724897051585" y="1026.8636357555072">17</text><circle cx="889.4817640545361" cy="1043.2321891326837" fill="none" r="4.961237986812819" stroke="black" stroke-width="0.009922475973625637" /><circle cx="889.4817640545361" cy="1043.2321891326837" fill="black" r="0.009922475973625637" stroke="black" stroke-width="0.2976742792087691" /><text fill="black" font-size="0.44651141881315365px" text-anchor="middle" x="889.9778878532175" y="1043.2321891326837">18</text><circle cx="883.2849836239653" cy="1041.9979525650137" fill="none" r="0.031125366677920995" stroke="black" stroke-width="6.225073335584199e-05" /><circle cx="883.2849836239653" cy="1041.9979525650137" fill="black" r="6.225073335584199e-05" stroke="black" stroke-width="0.0018675220006752597" /><text fill="black" font-size="0.0028012830010128898px" text-anchor="middle" x="883.2880961606331" y="1041.9979525650137">19</text><circle cx="883.2488287418978" cy="1041.9285225840522" fill="none" r="0.014220656039235797" stroke="black" stroke-width="2.8441312078471593e-05" /><circle cx="883.2488287418978" cy="1041.9285225840522" fill="black" r="2.8441312078471593e-05" stroke="black" stroke-width="0.0008532393623541478" /><text fill="black" font-size="0.0012798590435312218px" text-anchor="middle" x="883.2502508075017" y="1041.9285225840522">20</text><circle cx="878.6555782416682" cy="1044.1842968579112" fill="none" r="0.06129532089333671" stroke="black" stroke-width="0.00012259064178667342" /><circle cx="878.6555782416682" cy="1044.1842968579112" fill="black" r="0.00012259064178667342" stroke="black" stroke-width="0.0036777192536002028" /><text fill="black" font-size="0.005516578880400304px" text-anchor="middle" x="878.6617077737575" y="1044.1842968579112">21</text><circle cx="878.5407791661072" cy="1044.2352558840507" fill="none" r="0.0643058337769722" stroke="black" stroke-width="0.0001286116675539444" /><circle cx="878.5407791661072" cy="1044.2352558840507" fill="black" r="0.0001286116675539444" stroke="black" stroke-width="0.003858350026618332" /><text fill="black" font-size="0.005787525039927498px" text-anchor="middle" x="878.5472097494849" y="1044.2352558840507">22</text><circle cx="879.0635947977765" cy="1044.031702171281" fill="none" r="0.37432222774333623" stroke="black" stroke-width="0.0007486444554866725" /><circle cx="879.0635947977765" cy="1044.031702171281" fill="black" r="0.0007486444554866725" stroke="black" stroke-width="0.022459333664600175" /><text fill="black" font-size="0.03368900049690026px" text-anchor="middle" x="879.1010270205509" y="1044.031702171281">23</text><circle cx="882.1541471730674" cy="1043.1775157200796" fill="none" r="0.7042865002349304" stroke="black" stroke-width="0.001408573000469861" /><circle cx="882.1541471730674" cy="1043.1775157200796" fill="black" r="0.001408573000469861" stroke="black" stroke-width="0.04225719001409583" /><text fill="black" font-size="0.06338578502114374px" text-anchor="middle" x="882.2245758230908" y="1043.1775157200796">24</text><circle cx="881.2099685845199" cy="1043.10862272747" fill="none" r="0.24240217693005317" stroke="black" stroke-width="0.00048480435386010634" /><circle cx="881.2099685845199" cy="1043.10862272747" fill="black" r="0.00048480435386010634" stroke="black" stroke-width="0.01454413061580319" /><text fill="black" font-size="0.021816195923704786px" text-anchor="middle" x="881.2342088022128" y="1043.10862272747">25</text><circle cx="880.7631587070235" cy="1043.2987239249965" fill="none" r="0.24316710949718082" stroke="black" stroke-width="0.00048633421899436165" /><circle cx="880.7631587070235" cy="1043.2987239249965" fill="black" r="0.00048633421899436165" stroke="black" stroke-width="0.01459002656983085" /><text fill="black" font-size="0.021885039854746276px" text-anchor="middle" x="880.7874754179733" y="1043.2987239249965">26</text><circle cx="883.20340026345" cy="1041.8468802257362" fill="none" r="0.042306041689472614" stroke="black" stroke-width="8.461208337894522e-05" /><circle cx="883.20340026345" cy="1041.8468802257362" fill="black" r="8.461208337894522e-05" stroke="black" stroke-width="0.0025383625013683567" /><text fill="black" font-size="0.003807543752052535px" text-anchor="middle" x="883.207630867619" y="1041.8468802257362">27</text><circle cx="883.3942793723484" cy="1042.2234034090807" fill="none" r="0.21942132297421998" stroke="black" stroke-width="0.00043884264594843997" /><circle cx="883.3942793723484" cy="1042.2234034090807" fill="black" r="0.00043884264594843997" stroke="black" stroke-width="0.0131652793784532" /><text fill="black" font-size="0.0197479190676798px" text-anchor="middle" x="883.4162215046458" y="1042.2234034090807">28</text><circle cx="873.9372865609586" cy="1026.562472201404" fill="none" r="17.83152935542391" stroke="black" stroke-width="0.03566305871084782" /><circle cx="873.9372865609586" cy="1026.562472201404" fill="black" r="0.03566305871084782" stroke="black" stroke-width="1.0698917613254346" /><text fill="black" font-size="1.604837641988152px" text-anchor="middle" x="875.720439496501" y="1026.562472201404">29</text><circle cx="882.498153681179" cy="1046.7018511885303" fill="none" r="2.836798216529762" stroke="black" stroke-width="0.005673596433059524" /><circle cx="882.498153681179" cy="1046.7018511885303" fill="black" r="0.005673596433059524" stroke="black" stroke-width="0.17020789299178574" /><text fill="black" font-size="0.2553118394876786px" text-anchor="middle" x="882.781833502832" y="1046.7018511885303">30</text><circle cx="878.6847214367067" cy="1044.3922435516652" fill="none" r="0.14868361451366738" stroke="black" stroke-width="0.00029736722902733474" /><circle cx="878.6847214367067" cy="1044.3922435516652" fill="black" r="0.00029736722902733474" stroke="black" stroke-width="0.008921016870820041" /><text fill="black" font-size="0.013381525306230064px" text-anchor="middle" x="878.6995897981581" y="1044.3922435516652">31</text><circle cx="916.0762942233974" cy="1125.6941879581489" fill="none" r="54.82382993141117" stroke="black" stroke-width="0.10964765986282234" /><circle cx="916.0762942233974" cy="1125.6941879581489" fill="black" r="0.10964765986282234" stroke="black" stroke-width="3.28942979588467" /><text fill="black" font-size="4.9341446938270055px" text-anchor="middle" x="921.5586772165385" y="1125.6941879581489">32</text><circle cx="883.2632103270088" cy="1041.955632267338" fill="none" r="0.01646753253890505" stroke="black" stroke-width="3.29350650778101e-05" /><circle cx="883.2632103270088" cy="1041.955632267338" fill="black" r="3.29350650778101e-05" stroke="black" stroke-width="0.000988051952334303" /><text fill="black" font-size="0.0014820779285014546px" text-anchor="middle" x="883.2648570802627" y="1041.955632267338">34</text><circle cx="883.2332042355946" cy="1041.899827057488" fill="none" r="0.01845285681257801" stroke="black" stroke-width="3.690571362515602e-05" /><circle cx="883.2332042355946" cy="1041.899827057488" fill="black" r="3.690571362515602e-05" stroke="black" stroke-width="0.0011071714087546806" /><text fill="black" font-size="0.0016607571131320208px" text-anchor="middle" x="883.2350495212759" y="1041.899827057488">35</text><circle cx="878.5828186954463" cy="1044.1707121416212" fill="none" r="0.012721542517053213" stroke="black" stroke-width="2.5443085034106428e-05" /><circle cx="878.5828186954463" cy="1044.1707121416212" fill="black" r="2.5443085034106428e-05" stroke="black" stroke-width="0.0007632925510231928" /><text fill="black" font-size="0.0011449388265347893px" text-anchor="middle" x="878.5840908496981" y="1044.1707121416212">36</text><circle cx="881.0461499397161" cy="1043.3425729498954" fill="none" r="0.043201140679129356" stroke="black" stroke-width="8.640228135825872e-05" /><circle cx="881.0461499397161" cy="1043.3425729498954" fill="black" r="8.640228135825872e-05" stroke="black" stroke-width="0.0025920684407477615" /><text fill="black" font-size="0.0038881026611216423px" text-anchor="middle" x="881.050470053784" y="1043.3425729498954">37</text><path d="M 884.5205260677233,1043.2321891326837 A 2.004338943698957 2.004338943698957 0 0,1 883.1016660879388 1042.6435517672965" fill="none" stroke="blue" stroke-width="0.1" /><path d="M 883.1016660879388,1042.6435517672965 A 0.42275654828109943 0.42275654828109943 0 0,1 883.0483807137156 1042.1116486871917" fill="none" stroke="blue" stroke-width="0.1" /><line stroke="blue" stroke-width="0.1" x1="883.0483807137156" x2="883.2364779396277" y1="1042.1116486871917" y2="1041.9355713244704" /><line stroke="blue" stroke-width="0.1" x1="883.2364779396277" x2="883.26152369189" y1="1041.9355713244704" y2="1041.9221143625464" /><line stroke="blue" stroke-width="0.1" x1="883.26152369189" x2="883.5433415072303" y1="1041.9221143625464" y2="1041.863334109053" /><path d="M 883.5433415072303,1041.863334109053 A 0.4429602612742344 0.4429602612742344 0 0,1 883.9406427453503 1042.4396492360922" fill="none" stroke="blue" stroke-width="0.1" /><path d="M 883.9406427453503,1042.4396492360922 A 1.0950227693289387 1.0950227693289387 0 0,1 882.8579872682891 1043.2025875128188" fill="none" stroke="blue" stroke-width="0.1" /><path d="M 882.8579872682891,1043.2025875128188 A 2.375524028891307 2.375524028891307 0 0,0 881.5503772340419 1043.540119270758" fill="none" stroke="blue" stroke-width="0.1" /><path d="M 881.5503772340419,1043.540119270758 A 0.5053982114080592 0.5053982114080592 0 0,1 880.9371895983134 1043.4685576436577" fill="none" stroke="blue" stroke-width="0.1" /><path d="M 880.9371895983134,1043.4685576436577 A 0.16201494892615972 0.16201494892615972 0 0,1 880.9869155825974 1043.2035235900357" fill="none" stroke="blue" stroke-width="0.1" /><path d="M 880.9869155825974,1043.2035235900357 A 0.16201494899751231 0.16201494899751231 0 0,1 881.2123518277524 1043.3510131882576" fill="none" stroke="blue" stroke-width="0.1" /><path d="M 881.2123518277524,1043.3510131882576 A 0.5074885190838431 0.5074885190838431 0 0,1 880.840539524263 1043.8450254162822" fill="none" stroke="blue" stroke-width="0.1" /><path d="M 880.840539524263,1043.8450254162822 A 2.2823091735802614 2.2823091735802614 0 0,0 879.6955720652023 1044.5852450448378" fill="none" stroke="blue" stroke-width="0.1" /><path d="M 879.6955720652023,1044.5852450448378 A 0.9754686875864604 0.9754686875864604 0 0,1 878.4786687404741 1044.8181713729696" fill="none" stroke="blue" stroke-width="0.1" /><path d="M 878.4786687404741,1044.8181713729696 A 0.4412090932261412 0.4412090932261412 0 0,1 878.3768504041642 1044.1197515008503" fill="none" stroke="blue" stroke-width="0.1" /><path d="M 878.3768504041642,1044.1197515008503 A 0.16056268438240845 0.16056268438240845 0 0,1 878.6184059148322 1044.1355594545068" fill="none" stroke="blue" stroke-width="0.1" /><path d="M 878.6184059148322,1044.1355594545068 A 0.048411011894058 0.048411011894058 0 0,1 878.5995545037238 1044.2091656568314" fill="none" stroke="blue" stroke-width="0.1" /><path d="M 878.5995545037238,1044.2091656568314 A 0.048411011890781994 0.048411011890781994 0 0,1 878.531959599933 1044.1715577245734" fill="none" stroke="blue" stroke-width="0.1" /><path d="M 878.531959599933,1044.1715577245734 A 0.14847986785579936 0.14847986785579936 0 0,1 878.6903633652106 1044.0031464725128" fill="none" stroke="blue" stroke-width="0.1" /><path d="M 878.6903633652106,1044.0031464725128 A 0.4476436665751829 0.4476436665751829 0 0,1 879.1015506786122 1044.4040950835658" fill="none" stroke="blue" stroke-width="0.1" /><path d="M 879.1015506786122,1044.4040950835658 A 1.7130325752298468 1.7130325752298468 0 0,1 878.6221932186786 1045.77538953604" fill="none" stroke="blue" stroke-width="0.1" /><path d="M 878.6221932186786,1045.77538953604 A 4.832414199118823 4.832414199118823 0 0,0 878.7911204723009 1052.6966890918704" fill="none" stroke="blue" stroke-width="0.1" /><path d="M 878.7911204723009,1052.6966890918704 A 17.196385532378503 17.196385532378503 0 0,0 900.5438094352687 1054.037137376732" fill="none" stroke="blue" stroke-width="0.1" /><path d="M 900.5438094352687,1054.037137376732 A 52.110132415018455 52.110132415018455 0 0,0 915.5382776213529 986.3218914174815" fill="none" stroke="blue" stroke-width="0.1" /><path d="M 915.5382776213529,986.3218914174815 A 163.440861959017 163.440861959017 0 0,0 610.6798199918719 1046.304301264911" fill="none" stroke="blue" stroke-width="0.1" /><path d="M 610.6798199918719,1046.304301264911 A 288.67513465297117 288.67513465297117 0 0,0 1010.1520429292136 1347.0067175788618" fill="none" stroke="blue" stroke-width="0.1" /><path d="M 1010.1520429292136,1347.0067175788618 A 288.67513460120017 288.67513460120017 0 0,0 1070.8318629210855 850.702416313951" fill="none" stroke="blue" stroke-width="0.1" /><path d="M 1070.8318629210855,850.702416313951 A 163.44086189776013 163.44086189776013 0 0,0 816.0942141508094 1028.5936721781593" fill="none" stroke="blue" stroke-width="0.1" /><path d="M 816.0942141508094,1028.5936721781593 A 52.11013242281794 52.11013242281794 0 0,0 875.2577200813074 1064.7857732244588" fill="none" stroke="blue" stroke-width="0.1" /><path d="M 875.2577200813074,1064.7857732244588 A 17.196385524779938 17.196385524779938 0 0,0 889.3871354300315 1048.1925245835598" fill="none" stroke="blue" stroke-width="0.1" /><path d="M 889.3871354300315,1048.1925245835598 A 4.867494844728201 4.867494844728201 0 0,0 884.5205260677233 1043.2321891326837" fill="none" stroke="blue" stroke-width="0.1" /><path d="M 883.1016660879388,1042.6435517672965 A 2.004338943698957 2.004338943698957 0 0,0 884.5205260677233 1043.2321891326837" fill="none" stroke="blue" stroke-width="0.1" /><path d="M 884.5205260677233,1043.2321891326837 A 4.867494844728201 4.867494844728201 0 0,1 889.3871354300315 1048.1925245835598" fill="none" stroke="blue" stroke-width="0.1" /><path d="M 889.3871354300315,1048.1925245835598 A 17.196385524779938 17.196385524779938 0 0,1 875.2577200813074 1064.7857732244588" fill="none" stroke="blue" stroke-width="0.1" /><path d="M 875.2577200813074,1064.7857732244588 A 52.11013242281777 52.11013242281777 0 0,1 816.0942141508095 1028.5936721781593" fill="none" stroke="blue" stroke-width="0.1" /><path d="M 816.0942141508095,1028.5936721781593 A 163.4408618977601 163.4408618977601 0 0,1 1070.8318629210855 850.702416313951" fill="none" stroke="blue" stroke-width="0.1" /><path d="M 1070.8318629210855,850.702416313951 A 288.67513460120017 288.67513460120017 0 0,1 1010.1520429292136 1347.0067175788618" fill="none" stroke="blue" stroke-width="0.1" /><path d="M 1010.1520429292136,1347.0067175788618 A 288.67513465297117 288.67513465297117 0 0,1 610.6798199918719 1046.304301264911" fill="none" stroke="blue" stroke-width="0.1" /><path d="M 610.6798199918719,1046.304301264911 A 163.440861959017 163.440861959017 0 0,1 915.5382776213529 986.3218914174814" fill="none" stroke="blue" stroke-width="0.1" /><path d="M 915.5382776213529,986.3218914174814 A 52.110132415018654 52.110132415018654 0 0,1 900.5438094352687 1054.037137376732" fill="none" stroke="blue" stroke-width="0.1" /><path d="M 900.5438094352687,1054.037137376732 A 17.196385532378503 17.196385532378503 0 0,1 878.7911204723009 1052.6966890918704" fill="none" stroke="blue" stroke-width="0.1" /><path d="M 878.7911204723009,1052.6966890918704 A 4.832414199118823 4.832414199118823 0 0,1 878.6221932186786 1045.77538953604" fill="none" stroke="blue" stroke-width="0.1" /><path d="M 878.6221932186786,1045.77538953604 A 1.7130325752298468 1.7130325752298468 0 0,0 879.1015506786122 1044.4040950835658" fill="none" stroke="blue" stroke-width="0.1" /><path d="M 879.1015506786122,1044.4040950835658 A 0.4476436665751829 0.4476436665751829 0 0,0 878.6903633652106 1044.0031464725128" fill="none" stroke="blue" stroke-width="0.1" /><path d="M 878.6903633652106,1044.0031464725128 A 0.14847986785579936 0.14847986785579936 0 0,0 878.531959599933 1044.1715577245734" fill="none" stroke="blue" stroke-width="0.1" /><path d="M 878.531959599933,1044.1715577245734 A 0.048411011890781994 0.048411011890781994 0 0,0 878.5995545037238 1044.2091656568314" fill="none" stroke="blue" stroke-width="0.1" /><path d="M 878.5995545037238,1044.2091656568314 A 0.048411011894058 0.048411011894058 0 0,0 878.6184059148322 1044.1355594545068" fill="none" stroke="blue" stroke-width="0.1" /><path d="M 878.6184059148322,1044.1355594545068 A 0.16056268438240845 0.16056268438240845 0 0,0 878.3768504041642 1044.1197515008503" fill="none" stroke="blue" stroke-width="0.1" /><path d="M 878.3768504041642,1044.1197515008503 A 0.4412090932261412 0.4412090932261412 0 0,0 878.4786687404741 1044.8181713729696" fill="none" stroke="blue" stroke-width="0.1" /><path d="M 878.4786687404741,1044.8181713729696 A 0.9754686875864604 0.9754686875864604 0 0,0 879.6955720652023 1044.5852450448378" fill="none" stroke="blue" stroke-width="0.1" /><path d="M 879.6955720652023,1044.5852450448378 A 2.2823091735802614 2.2823091735802614 0 0,1 880.840539524263 1043.8450254162822" fill="none" stroke="blue" stroke-width="0.1" /><path d="M 880.840539524263,1043.8450254162822 A 0.5074885190838431 0.5074885190838431 0 0,0 881.2123518277524 1043.3510131882576" fill="none" stroke="blue" stroke-width="0.1" /><path d="M 881.2123518277524,1043.3510131882576 A 0.16201494899751231 0.16201494899751231 0 0,0 880.9869155825974 1043.2035235900357" fill="none" stroke="blue" stroke-width="0.1" /><path d="M 880.9869155825974,1043.2035235900357 A 0.16201494892615972 0.16201494892615972 0 0,0 880.9371895983134 1043.4685576436577" fill="none" stroke="blue" stroke-width="0.1" /><path d="M 880.9371895983134,1043.4685576436577 A 0.5053982114080592 0.5053982114080592 0 0,0 881.5503772340419 1043.540119270758" fill="none" stroke="blue" stroke-width="0.1" /><path d="M 881.5503772340419,1043.540119270758 A 2.375524028891307 2.375524028891307 0 0,1 882.8579872682891 1043.2025875128188" fill="none" stroke="blue" stroke-width="0.1" /><path d="M 882.8579872682891,1043.2025875128188 A 1.0950227693289387 1.0950227693289387 0 0,0 883.9406427453503 1042.4396492360922" fill="none" stroke="blue" stroke-width="0.1" /><path d="M 883.9406427453503,1042.4396492360922 A 0.4429602612742344 0.4429602612742344 0 0,0 883.5433415072303 1041.863334109053" fill="none" stroke="blue" stroke-width="0.1" /><line stroke="blue" stroke-width="0.1" x1="883.5433415072303" x2="883.26152369189" y1="1041.863334109053" y2="1041.9221143625464" /><line stroke="blue" stroke-width="0.1" x1="883.26152369189" x2="883.2364779396277" y1="1041.9221143625464" y2="1041.9355713244704" /><line stroke="blue" stroke-width="0.1" x1="883.2364779396277" x2="883.0483807137156" y1="1041.9355713244704" y2="1042.1116486871917" /><path d="M 883.0483807137156,1042.1116486871917 A 0.42275654828109943 0.42275654828109943 0 0,0 883.1016660879388 1042.6435517672965" fill="none" stroke="blue" stroke-width="0.1" /><path d="M 883.2538644384035,1041.998572839916 A 0.07784033664457618 0.07784033664457618 0 0,1 883.1835617862303 1041.8842464669845" fill="none" stroke="blue" stroke-width="0.1" /><line stroke="blue" stroke-width="0.1" x1="883.1835617862303" x2="883.2456685499162" y1="1041.8842464669845" y2="1041.8486671568025" /><path d="M 883.2456685499162,1041.8486671568025 A 0.07750618438163387 0.07750618438163387 0 0,1 883.3039154170888 1041.9732467831013" fill="none" stroke="blue" stroke-width="0.1" /><line stroke="blue" stroke-width="0.1" x1="883.3039154170888" x2="883.2538644384035" y1="1041.9732467831013" y2="1041.998572839916" /><path d="M 883.1835617862303,1041.8842464669845 A 0.07784033664457618 0.07784033664457618 0 0,0 883.2538644384035 1041.998572839916" fill="none" stroke="blue" stroke-width="0.1" /><line stroke="blue" stroke-width="0.1" x1="883.2538644384035" x2="883.3039154170888" y1="1041.998572839916" y2="1041.9732467831013" /><path d="M 883.3039154170888,1041.9732467831013 A 0.07750618438163387 0.07750618438163387 0 0,0 883.2456685499162 1041.8486671568025" fill="none" stroke="blue" stroke-width="0.1" /><line stroke="blue" stroke-width="0.1" x1="883.2456685499162" x2="883.1835617862303" y1="1041.8486671568025" y2="1041.8842464669845" /></svg>