<?xml version="1.0" encoding="utf-8" ?>
<svg baseProfile="full" height="1145.6554165788261" version="1.1" viewBox="0,0,1407.7054752018933,1145.6554165788261" width="1407.7054752018933" xmlns="http://www.w3.org/2000/svg" xmlns:ev="http://www.w3.org/2001/xml-events" xmlns:xlink="http://www.w3.org/1999/xlink"><defs /><rect fill="white" height="1145.6554165788261" width="1407.7054752018933" x="0" y="0" /><circle cx="250.00000000000006" cy="342.3184323627614" fill="none" r="200" stroke="black" stroke-width="1" /><circle cx="250.00000000000006" cy="342.3184323627614" fill="black" r="1" stroke="black" stroke-width="30" /><circle cx="455.5288104016231" cy="685.4771538059374" fill="none" r="200" stroke="black" stroke-width="1" /><circle cx="455.5288104016231" cy="685.4771538059374" fill="black" r="1" stroke="black" stroke-width="30" /><circle cx="1027.2530950474527" cy="347.03329607539484" fill="none" r="200" stroke="black" stroke-width="1" /><circle cx="1027.2530950474527" cy="347.03329607539484" fill="black" r="1" stroke="black" stroke-width="30" /><circle cx="639.2008569539689" cy="250.0" fill="none" r="200" stroke="black" stroke-width="1" /><circle cx="639.2008569539689" cy="250.0" fill="black" r="1" stroke="black" stroke-width="30" /><circle cx="795.8596757158555" cy="895.6554165788261" fill="none" r="200" stroke="black" stroke-width="1" /><circle cx="795.8596757158555" cy="895.6554165788261" fill="black" r="1" stroke="black" stroke-width="30" /><circle cx="1157.7054752018933" cy="725.163136923489" fill="none" r="200" stroke="black" stroke-width="1" /><circle cx="1157.7054752018933" cy="725.163136923489" fill="black" r="1" stroke="black" stroke-width="30" /><circle cx="622.6563647864282" cy="499.4944324816757" fill="none" r="9.966153078288848" stroke="black" stroke-width="0.04983076539144424" /><circle cx="622.6563647864282" cy="499.4944324816757" fill="black" r="0.04983076539144424" stroke="black" stroke-width="1.494922961743327" /><circle cx="529.1470210550078" cy="460.0548146213659" fill="none" r="7.193136592007023" stroke="black" stroke-width="0.03596568296003511" /><circle cx="529.1470210550078" cy="460.0548146213659" fill="black" r="0.03596568296003511" stroke="black" stroke-width="1.0789704888010534" /><circle cx="638.9574400417289" cy="499.4944324816757" fill="none" r="6.334922177011759" stroke="black" stroke-width="0.031674610885058796" /><circle cx="638.9574400417289" cy="499.4944324816757" fill="black" r="0.031674610885058796" stroke="black" stroke-width="0.9502383265517639" /><circle cx="634.0336864416241" cy="511.16840380425145" fill="none" r="6.334922176999336" stroke="black" stroke-width="0.03167461088499668" /><circle cx="634.0336864416241" cy="511.16840380425145" fill="black" r="0.03167461088499668" stroke="black" stroke-width="0.9502383265499004" /><circle cx="612.9924482592862" cy="529.5491328354017" fill="none" r="21.604027408485933" stroke="black" stroke-width="0.10802013704242967" /><circle cx="612.9924482592862" cy="529.5491328354017" fill="black" r="0.10802013704242967" stroke="black" stroke-width="3.2406041112728903" /><circle cx="524.2477433783653" cy="481.7273265222947" fill="none" r="15.02623994613718" stroke="black" stroke-width="0.0751311997306859" /><circle cx="524.2477433783653" cy="481.7273265222947" fill="black" r="0.0751311997306859" stroke="black" stroke-width="2.253935991920577" /><circle cx="951.669105126301" cy="584.6768293102256" fill="none" r="49.373993050486206" stroke="black" stroke-width="0.24686996525243102" /><circle cx="951.669105126301" cy="584.6768293102256" fill="black" r="0.24686996525243102" stroke="black" stroke-width="7.40609895757293" /><circle cx="913.2936729888811" cy="675.6630423809693" fill="none" r="49.373993050478354" stroke="black" stroke-width="0.24686996525239177" /><circle cx="913.2936729888811" cy="675.6630423809693" fill="black" r="0.24686996525239177" stroke="black" stroke-width="7.4060989575717535" /><circle cx="537.2259557219413" cy="467.808420253186" fill="none" r="4.004523236685709" stroke="black" stroke-width="0.020022616183428547" /><circle cx="537.2259557219413" cy="467.808420253186" fill="black" r="0.020022616183428547" stroke="black" stroke-width="0.6006784855028564" /><circle cx="540.3384305330062" cy="460.42889953903625" fill="none" r="4.004523236681365" stroke="black" stroke-width="0.020022616183406824" /><circle cx="540.3384305330062" cy="460.42889953903625" fill="black" r="0.020022616183406824" stroke="black" stroke-width="0.6006784855022047" /><circle cx="541.2482856238291" cy="441.41989874977196" fill="none" r="15.0262399460973" stroke="black" stroke-width="0.0751311997304865" /><circle cx="541.2482856238291" cy="441.41989874977196" fill="black" r="0.0751311997304865" stroke="black" stroke-width="2.253935991914595" /><circle cx="637.4350354863544" cy="471.59699194833325" fill="none" r="21.604027408497007" stroke="black" stroke-width="0.10802013704248503" /><circle cx="637.4350354863544" cy="471.59699194833325" fill="black" r="0.10802013704248503" stroke="black" stroke-width="3.2406041112745507" /><circle cx="767.6774074915843" cy="560.6602398479245" fill="none" r="136.1785368753068" stroke="black" stroke-width="0.680892684376534" /><circle cx="767.6774074915843" cy="560.6602398479245" fill="black" r="0.680892684376534" stroke="black" stroke-width="20.42678053129602" /><circle cx="632.8722909750709" cy="503.8032235488698" fill="none" r="1.1212644907280056" stroke="black" stroke-width="0.005606322453640028" /><circle cx="632.8722909750709" cy="503.8032235488698" fill="black" r="0.005606322453640028" stroke="black" stroke-width="0.16818967360920084" /><circle cx="577.8859145738668" cy="480.6115125806015" fill="none" r="38.62353591185389" stroke="black" stroke-width="0.19311767955926945" /><circle cx="577.8859145738668" cy="480.6115125806015" fill="black" r="0.19311767955926945" stroke="black" stroke-width="5.793530386778084" /><circle cx="478.39945547686347" cy="438.6509151399669" fill="none" r="47.883558343875016" stroke="black" stroke-width="0.23941779171937508" /><circle cx="478.39945547686347" cy="438.6509151399669" fill="black" r="0.23941779171937508" stroke="black" stroke-width="7.182533751581253" /><circle cx="963.7283899447873" cy="643.3490442135062" fill="none" r="10.52471437603128" stroke="black" stroke-width="0.0526235718801564" /><circle cx="963.7283899447873" cy="643.3490442135062" fill="black" r="0.0526235718801564" stroke="black" stroke-width="1.578707156404692" /><circle cx="536.4500195774007" cy="463.13501451965726" fill="none" r="0.7328598013729388" stroke="black" stroke-width="0.0036642990068646943" /><circle cx="536.4500195774007" cy="463.13501451965726" fill="black" r="0.0036642990068646943" stroke="black" stroke-width="0.10992897020594083" /><path d="M 636.4955632416741,505.3314181429693 A 4.203443776426861 4.203443776426861 0 0,0 632.6225178647171 499.4944324816757" fill="none" stroke="blue" stroke-width="1" /><path d="M 632.6225178647171,499.4944324816757 A 13.673246382828673 13.673246382828673 0 0,0 619.6056355869024 508.98217502317976" fill="none" stroke="blue" stroke-width="1" /><path d="M 619.6056355869024,508.98217502317976 A 88.4359405712758 88.4359405712758 0 0,1 597.6414242372987 544.7504506011159" fill="none" stroke="blue" stroke-width="1" /><path d="M 597.6414242372987,544.7504506011159 A 156.8186131104517 156.8186131104517 0 0,1 352.76440520081155 513.8977930843494" fill="none" stroke="blue" stroke-width="1" /><path d="M 352.76440520081155,513.8977930843494 A 146.44541132719246 146.44541132719246 0 0,1 444.60042847698446 296.1592161813807" fill="none" stroke="blue" stroke-width="1" /><path d="M 444.60042847698446,296.1592161813807 A 156.81861310476097 156.81861310476097 0 0,1 637.6071842321646 449.9936504221101" fill="none" stroke="blue" stroke-width="1" /><path d="M 637.6071842321646,449.9936504221101 A 88.43594053720692 88.43594053720692 0 0,1 627.3217323015343 490.68769908450287" fill="none" stroke="blue" stroke-width="1" /><path d="M 627.3217323015343,490.68769908450287 A 13.673246382840277 13.673246382840277 0 0,0 629.6122328786162 506.63166627823773" fill="none" stroke="blue" stroke-width="1" /><path d="M 629.6122328786162,506.63166627823773 A 4.2034437763162895 4.2034437763162895 0 0,0 636.4955632416741 505.3314181429693" fill="none" stroke="blue" stroke-width="1" /><path d="M 619.6056355869024,508.98217502317976 A 13.673246382828673 13.673246382828673 0 0,1 632.6225178647171 499.4944324816757" fill="none" stroke="blue" stroke-width="1" /><path d="M 632.6225178647171,499.4944324816757 A 4.203443776426861 4.203443776426861 0 0,1 636.4955632416741 505.3314181429693" fill="none" stroke="blue" stroke-width="1" /><path d="M 636.4955632416741,505.3314181429693 A 4.2034437763162895 4.2034437763162895 0 0,1 629.6122328786162 506.63166627823773" fill="none" stroke="blue" stroke-width="1" /><path d="M 629.6122328786162,506.63166627823773 A 13.673246382840277 13.673246382840277 0 0,1 627.3217323015343 490.68769908450287" fill="none" stroke="blue" stroke-width="1" /><path d="M 627.3217323015343,490.68769908450287 A 88.43594053720692 88.43594053720692 0 0,0 637.6071842321646 449.9936504221101" fill="none" stroke="blue" stroke-width="1" /><path d="M 637.6071842321646,449.9936504221101 A 156.8186131047609 156.8186131047609 0 0,0 444.6004284769845 296.1592161813807" fill="none" stroke="blue" stroke-width="1" /><path d="M 444.6004284769845,296.1592161813807 A 146.4454113271925 146.4454113271925 0 0,0 352.76440520081155 513.8977930843494" fill="none" stroke="blue" stroke-width="1" /><path d="M 352.76440520081155,513.8977930843494 A 156.8186131104517 156.8186131104517 0 0,0 597.6414242372987 544.7504506011159" fill="none" stroke="blue" stroke-width="1" /><path d="M 597.6414242372987,544.7504506011159 A 88.4359405712758 88.4359405712758 0 0,0 619.6056355869024 508.98217502317976" fill="none" stroke="blue" stroke-width="1" /><path d="M 625.6942430587393,790.5662851923818 A 251.7070493164043 251.7070493164043 0 0,1 519.4455984121988 495.9655599328539" fill="none" stroke="blue" stroke-width="1" /><path d="M 519.4455984121988,495.9655599328539 A 291.60530470778804 291.60530470778804 0 0,0 527.5609651425135 467.0709133011671" fill="none" stroke="blue" stroke-width="1" /><path d="M 527.5609651425135,467.0709133011671 A 8.698669494274611 8.698669494274611 0 0,1 536.3361425557414 460.2951187519592" fill="none" stroke="blue" stroke-width="1" /><path d="M 536.3361425557414,460.2951187519592 A 2.7545901660889363 2.7545901660889363 0 0,1 538.7821931274746 464.11865989610914" fill="none" stroke="blue" stroke-width="1" /><path d="M 538.7821931274746,464.11865989610914 A 2.754590165717488 2.754590165717488 0 0,1 534.3367554697153 465.03556463909064" fill="none" stroke="blue" stroke-width="1" /><path d="M 534.3367554697153,465.03556463909064 A 8.698669494164891 8.698669494164891 0 0,1 533.0645949270861 454.0220848093902" fill="none" stroke="blue" stroke-width="1" /><path d="M 533.0645949270861,454.0220848093902 A 291.6052967814345 291.6052967814345 0 0,0 548.0933052852102 428.0432925746709" fill="none" stroke="blue" stroke-width="1" /><path d="M 548.0933052852102,428.0432925746709 A 251.70704934304987 251.70704934304987 0 0,1 833.2269760007108 298.51664803769745" fill="none" stroke="blue" stroke-width="1" /><path d="M 833.2269760007108,298.51664803769745 A 368.91568260373924 368.91568260373924 0 0,1 1092.479285124673 536.098216499442" fill="none" stroke="blue" stroke-width="1" /><path d="M 1092.479285124673,536.098216499442 A 114.34828957061433 114.34828957061433 0 0,1 961.6851931963529 685.4636526773512" fill="none" stroke="blue" stroke-width="1" /><path d="M 961.6851931963529,685.4636526773512 A 40.39808292334414 40.39808292334414 0 0,1 932.4813890575896 630.169935845601" fill="none" stroke="blue" stroke-width="1" /><path d="M 932.4813890575896,630.169935845601 A 40.398082923344035 40.398082923344035 0 0,1 992.4626064045204 612.4919590714973" fill="none" stroke="blue" stroke-width="1" /><path d="M 992.4626064045204,612.4919590714973 A 114.34828957060866 114.34828957060866 0 0,1 976.7825754588744 810.4092767511576" fill="none" stroke="blue" stroke-width="1" /><path d="M 976.7825754588744,810.4092767511576 A 368.9156826212099 368.9156826212099 0 0,1 625.6942430587393 790.5662851923818" fill="none" stroke="blue" stroke-width="1" /><path d="M 519.4455984121988,495.9655599328539 A 251.7070493164043 251.7070493164043 0 0,0 625.6942430587393 790.5662851923818" fill="none" stroke="blue" stroke-width="1" /><path d="M 625.6942430587393,790.5662851923818 A 368.9156826212099 368.9156826212099 0 0,0 976.7825754588744 810.4092767511576" fill="none" stroke="blue" stroke-width="1" /><path d="M 976.7825754588744,810.4092767511576 A 114.34828957060866 114.34828957060866 0 0,0 992.4626064045204 612.4919590714973" fill="none" stroke="blue" stroke-width="1" /><path d="M 992.4626064045204,612.4919590714973 A 40.398082923344035 40.398082923344035 0 0,0 932.4813890575896 630.169935845601" fill="none" stroke="blue" stroke-width="1" /><path d="M 932.4813890575896,630.169935845601 A 40.39808292334414 40.39808292334414 0 0,0 961.6851931963529 685.4636526773512" fill="none" stroke="blue" stroke-width="1" /><path d="M 961.6851931963529,685.4636526773512 A 114.34828957061433 114.34828957061433 0 0,0 1092.479285124673 536.098216499442" fill="none" stroke="blue" stroke-width="1" /><path d="M 1092.479285124673,536.098216499442 A 368.91568260373924 368.91568260373924 0 0,0 833.2269760007108 298.51664803769745" fill="none" stroke="blue" stroke-width="1" /><path d="M 833.2269760007108,298.51664803769745 A 251.70704934304987 251.70704934304987 0 0,0 548.0933052852102 428.0432925746709" fill="none" stroke="blue" stroke-width="1" /><path d="M 548.0933052852102,428.0432925746709 A 291.6052967814345 291.6052967814345 0 0,1 533.0645949270861 454.0220848093902" fill="none" stroke="blue" stroke-width="1" /><path d="M 533.0645949270861,454.0220848093902 A 8.698669494164891 8.698669494164891 0 0,0 534.3367554697153 465.03556463909064" fill="none" stroke="blue" stroke-width="1" /><path d="M 534.3367554697153,465.03556463909064 A 2.754590165717488 2.754590165717488 0 0,0 538.7821931274746 464.11865989610914" fill="none" stroke="blue" stroke-width="1" /><path d="M 538.7821931274746,464.11865989610914 A 2.7545901660889363 2.7545901660889363 0 0,0 536.3361425557414 460.2951187519592" fill="none" stroke="blue" stroke-width="1" /><path d="M 536.3361425557414,460.2951187519592 A 8.698669494274611 8.698669494274611 0 0,0 527.5609651425135 467.0709133011671" fill="none" stroke="blue" stroke-width="1" /><path d="M 527.5609651425135,467.0709133011671 A 291.60530470778804 291.60530470778804 0 0,1 519.4455984121988 495.9655599328539" fill="none" stroke="blue" stroke-width="1" /></svg>