<?xml version="1.0" encoding="utf-8" ?>
<svg baseProfile="full" height="878.8107600583322" version="1.1" viewBox="0,0,892.2905908687691,878.8107600583322" width="892.2905908687691" xmlns="http://www.w3.org/2000/svg" xmlns:ev="http://www.w3.org/2001/xml-events" xmlns:xlink="http://www.w3.org/1999/xlink"><defs /><rect fill="white" height="878.8107600583322" width="892.2905908687691" x="0" y="0" /><circle cx="513.8288920169881" cy="250.0" fill="none" r="200" stroke="black" stroke-width="1" /><circle cx="513.8288920169881" cy="250.0" fill="black" r="1" stroke="black" stroke-width="30" /><text fill="black" font-size="55px" text-anchor="middle" x="533.8288920169881" y="250.0">8</text><circle cx="642.2905908687691" cy="628.8107600583322" fill="none" r="200" stroke="black" stroke-width="1" /><circle cx="642.2905908687691" cy="628.8107600583322" fill="black" r="1" stroke="black" stroke-width="30" /><text fill="black" font-size="55px" text-anchor="middle" x="662.2905908687691" y="628.8107600583322">9</text><circle cx="250.0" cy="550.6564746755773" fill="none" r="200" stroke="black" stroke-width="1" /><circle cx="250.0" cy="550.6564746755773" fill="black" r="1" stroke="black" stroke-width="30" /><text fill="black" font-size="55px" text-anchor="middle" x="270.0" y="550.6564746755773">2</text><circle cx="456.62603762187723" cy="480.5857833746134" fill="none" r="0.28597783209641764" stroke="black" stroke-width="0.0014298891604820883" /><circle cx="456.62603762187723" cy="480.5857833746134" fill="black" r="0.0014298891604820883" stroke="black" stroke-width="0.042896674814462646" /><text fill="black" font-size="10.064345012221693px" text-anchor="middle" x="456.6546354050869" y="480.5857833746134">1</text><circle cx="457.93513102705913" cy="475.3726888222789" fill="none" r="4.0123097198804745" stroke="black" stroke-width="0.020061548599402373" /><circle cx="457.93513102705913" cy="475.3726888222789" fill="black" r="0.020061548599402373" stroke="black" stroke-width="0.6018464579820713" /><text fill="black" font-size="10.902769686973107px" text-anchor="middle" x="458.3363619990472" y="475.3726888222789">3</text><circle cx="460.8361301026588" cy="483.9272204395188" fill="none" r="4.0123097198807445" stroke="black" stroke-width="0.020061548599403723" /><circle cx="460.8361301026588" cy="483.9272204395188" fill="black" r="0.020061548599403723" stroke="black" stroke-width="0.6018464579821117" /><text fill="black" font-size="10.902769686973167px" text-anchor="middle" x="461.23736107464686" y="483.9272204395188">4</text><circle cx="457.04730833162637" cy="480.5857833746134" fill="none" r="0.13529287765277892" stroke="black" stroke-width="0.0006764643882638946" /><circle cx="457.04730833162637" cy="480.5857833746134" fill="black" r="0.0006764643882638946" stroke="black" stroke-width="0.020293931647916836" /><text fill="black" font-size="10.030440897471875px" text-anchor="middle" x="457.06083761939163" y="480.5857833746134">5</text><circle cx="456.96040856708083" cy="480.3295313855556" fill="none" r="0.13529287765251694" stroke="black" stroke-width="0.0006764643882625847" /><circle cx="456.96040856708083" cy="480.3295313855556" fill="black" r="0.0006764643882625847" stroke="black" stroke-width="0.02029393164787754" /><text fill="black" font-size="10.030440897471816px" text-anchor="middle" x="456.9739378548461" y="480.3295313855556">6</text><circle cx="457.11187825286356" cy="481.2768236072924" fill="none" r="0.5587574648366025" stroke="black" stroke-width="0.0027937873241830123" /><circle cx="457.11187825286356" cy="481.2768236072924" fill="black" r="0.0027937873241830123" stroke="black" stroke-width="0.08381361972549037" /><text fill="black" font-size="10.125720429588236px" text-anchor="middle" x="457.1677539993472" y="481.2768236072924">7</text><circle cx="462.926654404916" cy="505.5006262534142" fill="none" r="17.662148295171843" stroke="black" stroke-width="0.08831074147585921" /><circle cx="462.926654404916" cy="505.5006262534142" fill="black" r="0.08831074147585921" stroke="black" stroke-width="2.6493222442757762" /><text fill="black" font-size="13.973983366413664px" text-anchor="middle" x="464.6928692344332" y="505.5006262534142">10</text><circle cx="446.47167664858375" cy="456.9778160591375" fill="none" r="17.662148295171573" stroke="black" stroke-width="0.08831074147585787" /><circle cx="446.47167664858375" cy="456.9778160591375" fill="black" r="0.08831074147585787" stroke="black" stroke-width="2.649322244275736" /><text fill="black" font-size="13.973983366413604px" text-anchor="middle" x="448.2378914781009" y="456.9778160591375">11</text><circle cx="456.59131068068166" cy="479.7417621891843" fill="none" r="0.5587574648363531" stroke="black" stroke-width="0.002793787324181766" /><circle cx="456.59131068068166" cy="479.7417621891843" fill="black" r="0.002793787324181766" stroke="black" stroke-width="0.08381361972545298" /><text fill="black" font-size="10.12572042958818px" text-anchor="middle" x="456.6471864271653" y="479.7417621891843">12</text><circle cx="461.7418905145862" cy="478.8509035268941" fill="none" r="1.1441808816813872" stroke="black" stroke-width="0.0057209044084069365" /><circle cx="461.7418905145862" cy="478.8509035268941" fill="black" r="0.0057209044084069365" stroke="black" stroke-width="0.1716271322522081" /><text fill="black" font-size="10.257440698378312px" text-anchor="middle" x="461.8563086027543" y="478.8509035268941">13</text><circle cx="459.0910262577149" cy="479.74986037219855" fill="none" r="0.5149106812224227" stroke="black" stroke-width="0.0025745534061121134" /><circle cx="459.0910262577149" cy="479.74986037219855" fill="black" r="0.0025745534061121134" stroke="black" stroke-width="0.0772366021833634" /><text fill="black" font-size="10.115854903275045px" text-anchor="middle" x="459.1425173258371" y="479.74986037219855">14</text><circle cx="456.9212100755438" cy="480.48568496437963" fill="none" r="0.02570545127769115" stroke="black" stroke-width="0.00012852725638845574" /><circle cx="456.9212100755438" cy="480.48568496437963" fill="black" r="0.00012852725638845574" stroke="black" stroke-width="0.003855817691653672" /><text fill="black" font-size="10.00578372653748px" text-anchor="middle" x="456.92378062067155" y="480.48568496437963">15</text><circle cx="457.86293720330394" cy="480.16632796750446" fill="none" r="0.7818730260238339" stroke="black" stroke-width="0.0039093651301191695" /><circle cx="457.86293720330394" cy="480.16632796750446" fill="black" r="0.0039093651301191695" stroke="black" stroke-width="0.11728095390357508" /><text fill="black" font-size="10.175921430855363px" text-anchor="middle" x="457.9411245059063" y="480.16632796750446">16</text><circle cx="447.88029447211807" cy="483.5516257993458" fill="none" r="8.948969083195218" stroke="black" stroke-width="0.044744845415976085" /><circle cx="447.88029447211807" cy="483.5516257993458" fill="black" r="0.044744845415976085" stroke="black" stroke-width="1.3423453624792825" /><text fill="black" font-size="12.013518043718925px" text-anchor="middle" x="448.7751913804376" y="483.5516257993458">17</text><circle cx="484.6199627319847" cy="471.09252828146896" fill="none" r="23.013604090481817" stroke="black" stroke-width="0.11506802045240909" /><circle cx="484.6199627319847" cy="471.09252828146896" fill="black" r="0.11506802045240909" stroke="black" stroke-width="3.4520406135722728" /><text fill="black" font-size="15.178060920358408px" text-anchor="middle" x="486.9213231410329" y="471.09252828146896">19</text><circle cx="460.1184904822896" cy="479.4014283483962" fill="none" r="0.5700260030288956" stroke="black" stroke-width="0.002850130015144478" /><circle cx="460.1184904822896" cy="479.4014283483962" fill="black" r="0.002850130015144478" stroke="black" stroke-width="0.08550390045433434" /><text fill="black" font-size="10.128255850681501px" text-anchor="middle" x="460.1754930825925" y="479.4014283483962">20</text><path d="M 457.0038584493536,480.45765738008436 A 0.09698034487761953 0.09698034487761953 0 0,1 456.9120154539736 480.5857833746134" fill="none" stroke="blue" stroke-width="1" /><text fill="red" font-size="10px" text-anchor="middle" x="456.9120154539736" y="480.5857833746134">6</text><path d="M 456.9120154539736,480.5857833746134 A 0.2979862456267569 0.2979862456267569 0 0,1 456.61428111614754 480.3000472987931" fill="none" stroke="blue" stroke-width="1" /><path d="M 456.61428111614754,480.3000472987931 A 3.2598374332942313 3.2598374332942313 0 0,1 456.7555764023599 479.2076960161168" fill="none" stroke="blue" stroke-width="1" /><text fill="red" font-size="10px" text-anchor="middle" x="456.7555764023599" y="479.2076960161168">2</text><path d="M 456.7555764023599,479.2076960161168 A 2.540342835374776 2.540342835374776 0 0,1 460.8972033497403 478.0791176215347" fill="none" stroke="blue" stroke-width="1" /><path d="M 460.8972033497403,478.0791176215347 A 2.0770058774632694 2.0770058774632694 0 0,1 461.54091007521583 479.97729455706906" fill="none" stroke="blue" stroke-width="1" /><text fill="red" font-size="10px" text-anchor="middle" x="461.54091007521583" y="479.97729455706906">-5</text><path d="M 461.54091007521583,479.97729455706906 A 2.540342835328415 2.540342835328415 0 0,1 457.56712282440736 481.60080244088664" fill="none" stroke="blue" stroke-width="1" /><path d="M 457.56712282440736,481.60080244088664 A 3.259837434000264 3.259837434000264 0 0,1 456.79051476743786 480.8197290713902" fill="none" stroke="blue" stroke-width="1" /><text fill="red" font-size="10px" text-anchor="middle" x="456.79051476743786" y="480.8197290713902">4</text><path d="M 456.79051476743786,480.8197290713902 A 0.2979862456074653 0.2979862456074653 0 0,1 456.85302391789185 480.4118278001923" fill="none" stroke="blue" stroke-width="1" /><path d="M 456.85302391789185,480.4118278001923 A 0.09698034487751434 0.09698034487751434 0 0,1 457.0038584493536 480.45765738008436" fill="none" stroke="blue" stroke-width="1" /><text fill="red" font-size="10px" text-anchor="middle" x="456.61428111614754" y="480.3000472987931">-2</text><path d="M 456.61428111614754,480.3000472987931 A 0.2979862456267569 0.2979862456267569 0 0,0 456.9120154539736 480.5857833746134" fill="none" stroke="blue" stroke-width="1" /><path d="M 456.9120154539736,480.5857833746134 A 0.09698034487761953 0.09698034487761953 0 0,0 457.0038584493536 480.45765738008436" fill="none" stroke="blue" stroke-width="1" /><path d="M 457.0038584493536,480.45765738008436 A 0.09698034487751434 0.09698034487751434 0 0,0 456.85302391789185 480.4118278001923" fill="none" stroke="blue" stroke-width="1" /><text fill="red" font-size="10px" text-anchor="middle" x="456.85302391789185" y="480.4118278001923">-6</text><path d="M 456.85302391789185,480.4118278001923 A 0.2979862456074653 0.2979862456074653 0 0,0 456.79051476743786 480.8197290713902" fill="none" stroke="blue" stroke-width="1" /><path d="M 456.79051476743786,480.8197290713902 A 3.259837434000264 3.259837434000264 0 0,0 457.56712282440736 481.60080244088664" fill="none" stroke="blue" stroke-width="1" /><text fill="red" font-size="10px" text-anchor="middle" x="457.56712282440736" y="481.60080244088664">-4</text><path d="M 457.56712282440736,481.60080244088664 A 2.540342835328415 2.540342835328415 0 0,0 461.54091007521583 479.97729455706906" fill="none" stroke="blue" stroke-width="1" /><path d="M 461.54091007521583,479.97729455706906 A 2.0770058774632694 2.0770058774632694 0 0,0 460.8972033497403 478.0791176215347" fill="none" stroke="blue" stroke-width="1" /><text fill="red" font-size="10px" text-anchor="middle" x="460.8972033497403" y="478.0791176215347">5</text><path d="M 460.8972033497403,478.0791176215347 A 2.540342835374776 2.540342835374776 0 0,0 456.7555764023599 479.2076960161168" fill="none" stroke="blue" stroke-width="1" /><path d="M 456.7555764023599,479.2076960161168 A 3.2598374332942313 3.2598374332942313 0 0,0 456.61428111614754 480.3000472987931" fill="none" stroke="blue" stroke-width="1" /><text fill="red" font-size="10px" text-anchor="middle" x="430.5290246259525" y="464.57935070140593">-8</text><path d="M 430.5290246259525,464.57935070140593 A 66.45224269605191 66.45224269605191 0 0,0 446.14529543438454 589.7336173669548" fill="none" stroke="blue" stroke-width="1" /><path d="M 446.14529543438454,589.7336173669548 A 115.47005385103954 115.47005385103954 0 0,0 578.0597414428786 439.4053800291661" fill="none" stroke="blue" stroke-width="1" /><path d="M 578.0597414428786,439.4053800291661 A 115.47005384170538 115.47005384170538 0 0,0 381.91444600849405 400.32823733778866" fill="none" stroke="blue" stroke-width="1" /><text fill="red" font-size="10px" text-anchor="middle" x="381.91444600849405" y="400.32823733778866">1</text><path d="M 381.91444600849405,400.32823733778866 A 66.45224268441012 66.45224268441012 0 0,0 445.6487667448416 509.1647878794632" fill="none" stroke="blue" stroke-width="1" /><path d="M 445.6487667448416,509.1647878794632 A 19.767437676018844 19.767437676018844 0 0,0 461.22312160075154 487.92082368338816" fill="none" stroke="blue" stroke-width="1" /><text fill="red" font-size="10px" text-anchor="middle" x="461.22312160075154" y="487.92082368338816">-3</text><path d="M 461.22312160075154,487.92082368338816 A 26.627551653744753 26.627551653744753 0 0,0 459.2895084454575 480.2249791266226" fill="none" stroke="blue" stroke-width="1" /><path d="M 459.2895084454575,480.2249791266226 A 7.475823724012167 7.475823724012167 0 0,1 458.9595586577514 479.2520157379838" fill="none" stroke="blue" stroke-width="1" /><text fill="red" font-size="10px" text-anchor="middle" x="458.9595586577514" y="479.2520157379838">-7</text><path d="M 458.9595586577514,479.2520157379838 A 26.627551667012597 26.627551667012597 0 0,0 455.8130512318356 471.9674859455905" fill="none" stroke="blue" stroke-width="1" /><path d="M 455.8130512318356,471.9674859455905 A 19.767437671252495 19.767437671252495 0 0,0 430.5290246259525 464.57935070140593" fill="none" stroke="blue" stroke-width="1" /><path d="M 578.0597414428786,439.4053800291661 A 115.47005385103954 115.47005385103954 0 0,1 446.14529543438454 589.7336173669548" fill="none" stroke="blue" stroke-width="1" /><text fill="red" font-size="10px" text-anchor="middle" x="446.14529543438454" y="589.7336173669548">-1</text><path d="M 446.14529543438454,589.7336173669548 A 66.45224269605191 66.45224269605191 0 0,1 430.5290246259525 464.57935070140593" fill="none" stroke="blue" stroke-width="1" /><path d="M 430.5290246259525,464.57935070140593 A 19.767437671252495 19.767437671252495 0 0,1 455.8130512318356 471.9674859455905" fill="none" stroke="blue" stroke-width="1" /><text fill="red" font-size="10px" text-anchor="middle" x="455.8130512318356" y="471.9674859455905">8</text><path d="M 455.8130512318356,471.9674859455905 A 26.627551667012597 26.627551667012597 0 0,1 458.9595586577514 479.2520157379838" fill="none" stroke="blue" stroke-width="1" /><path d="M 458.9595586577514,479.2520157379838 A 7.475823724012167 7.475823724012167 0 0,0 459.2895084454575 480.2249791266226" fill="none" stroke="blue" stroke-width="1" /><text fill="red" font-size="10px" text-anchor="middle" x="459.2895084454575" y="480.2249791266226">7</text><path d="M 459.2895084454575,480.2249791266226 A 26.627551653744753 26.627551653744753 0 0,1 461.22312160075154 487.92082368338816" fill="none" stroke="blue" stroke-width="1" /><path d="M 461.22312160075154,487.92082368338816 A 19.767437676018844 19.767437676018844 0 0,1 445.6487667448416 509.1647878794632" fill="none" stroke="blue" stroke-width="1" /><text fill="red" font-size="10px" text-anchor="middle" x="445.6487667448416" y="509.1647878794632">3</text><path d="M 445.6487667448416,509.1647878794632 A 66.45224268441012 66.45224268441012 0 0,1 381.91444600849405 400.32823733778866" fill="none" stroke="blue" stroke-width="1" /><path d="M 381.91444600849405,400.32823733778866 A 115.47005384170538 115.47005384170538 0 0,1 578.0597414428786 439.4053800291661" fill="none" stroke="blue" stroke-width="1" /></svg>