<?xml version="1.0" encoding="utf-8" ?>
<svg baseProfile="full" height="1494.8400004406476" version="1.1" viewBox="0,0,1348.63041979861,1494.8400004406476" width="1348.63041979861" xmlns="http://www.w3.org/2000/svg" xmlns:ev="http://www.w3.org/2001/xml-events" xmlns:xlink="http://www.w3.org/1999/xlink"><defs /><rect fill="white" height="1494.8400004406476" width="1348.63041979861" x="0" y="0" /><circle cx="491.73364075206365" cy="526.8734978277633" fill="none" r="200" stroke="black" stroke-width="1" /><circle cx="491.73364075206365" cy="526.8734978277633" fill="black" r="1" stroke="black" stroke-width="30" /><text fill="black" font-size="55px" text-anchor="middle" x="511.73364075206365" y="526.8734978277633">5</text><circle cx="780.4221687552035" cy="250.0" fill="none" r="200" stroke="black" stroke-width="1" /><circle cx="780.4221687552035" cy="250.0" fill="black" r="1" stroke="black" stroke-width="30" /><text fill="black" font-size="55px" text-anchor="middle" x="800.4221687552035" y="250.0">9</text><circle cx="1098.63041979861" cy="492.3706025241021" fill="none" r="200" stroke="black" stroke-width="1" /><circle cx="1098.63041979861" cy="492.3706025241021" fill="black" r="1" stroke="black" stroke-width="30" /><text fill="black" font-size="55px" text-anchor="middle" x="1118.63041979861" y="492.3706025241021">10</text><circle cx="908.4157114047865" cy="844.2489404630162" fill="none" r="200" stroke="black" stroke-width="1" /><circle cx="908.4157114047865" cy="844.2489404630162" fill="black" r="1" stroke="black" stroke-width="30" /><text fill="black" font-size="55px" text-anchor="middle" x="928.4157114047865" y="844.2489404630162">8</text><circle cx="665.409116766297" cy="1161.9717677531767" fill="none" r="200" stroke="black" stroke-width="1" /><circle cx="665.409116766297" cy="1161.9717677531767" fill="black" r="1" stroke="black" stroke-width="30" /><text fill="black" font-size="55px" text-anchor="middle" x="685.409116766297" y="1161.9717677531767">7</text><circle cx="250.0" cy="845.5658995709173" fill="none" r="200" stroke="black" stroke-width="1" /><circle cx="250.0" cy="845.5658995709173" fill="black" r="1" stroke="black" stroke-width="30" /><text fill="black" font-size="55px" text-anchor="middle" x="270.0" y="845.5658995709173">6</text><circle cx="274.087182789523" cy="1244.8400004406476" fill="none" r="200" stroke="black" stroke-width="1" /><circle cx="274.087182789523" cy="1244.8400004406476" fill="black" r="1" stroke="black" stroke-width="30" /><text fill="black" font-size="55px" text-anchor="middle" x="294.087182789523" y="1244.8400004406476">2</text><circle cx="579.2065386156227" cy="844.2489404630162" fill="none" r="129.20917278916392" stroke="black" stroke-width="0.6460458639458196" /><circle cx="579.2065386156227" cy="844.2489404630162" fill="black" r="0.6460458639458196" stroke="black" stroke-width="19.38137591837459" /><text fill="black" font-size="39.07206387756189px" text-anchor="middle" x="592.127455894539" y="844.2489404630162">1</text><circle cx="797.8839165322486" cy="557.1475129592193" fill="none" r="107.643474418787" stroke="black" stroke-width="0.5382173720939349" /><circle cx="797.8839165322486" cy="557.1475129592193" fill="black" r="0.5382173720939349" stroke="black" stroke-width="16.146521162818047" /><text fill="black" font-size="34.21978174422708px" text-anchor="middle" x="808.6482639741273" y="557.1475129592193">3</text><circle cx="420.3526742579014" cy="1052.8081049064322" fill="none" r="10.38745078503869" stroke="black" stroke-width="0.051937253925193445" /><circle cx="420.3526742579014" cy="1052.8081049064322" fill="black" r="0.051937253925193445" stroke="black" stroke-width="1.5581176177558034" /><text fill="black" font-size="12.337176426633706px" text-anchor="middle" x="421.3914193364053" y="1052.8081049064322">4</text><circle cx="415.24834982050186" cy="1066.5324306326634" fill="none" r="4.255337359781863" stroke="black" stroke-width="0.021276686798909313" /><circle cx="415.24834982050186" cy="1066.5324306326634" fill="black" r="0.021276686798909313" stroke="black" stroke-width="0.6383006039672794" /><text fill="black" font-size="10.95745090595092px" text-anchor="middle" x="415.67388355648006" y="1066.5324306326634">11</text><circle cx="408.4779325260948" cy="1061.3755872342456" fill="none" r="4.25533735977478" stroke="black" stroke-width="0.021276686798873897" /><circle cx="408.4779325260948" cy="1061.3755872342456" fill="black" r="0.021276686798873897" stroke="black" stroke-width="0.6383006039662169" /><text fill="black" font-size="10.957450905949326px" text-anchor="middle" x="408.90346626207224" y="1061.3755872342456">12</text><circle cx="445.2282165884454" cy="1087.6173923491776" fill="none" r="32.3966478777719" stroke="black" stroke-width="0.16198323938885947" /><circle cx="445.2282165884454" cy="1087.6173923491776" fill="black" r="0.16198323938885947" stroke="black" stroke-width="4.859497181665784" /><text fill="black" font-size="17.289245772498674px" text-anchor="middle" x="448.4678813762226" y="1087.6173923491776">13</text><circle cx="380.18505477712733" cy="1038.0757784278762" fill="none" r="32.39664787776499" stroke="black" stroke-width="0.16198323938882497" /><circle cx="380.18505477712733" cy="1038.0757784278762" fill="black" r="0.16198323938882497" stroke="black" stroke-width="4.859497181664749" /><text fill="black" font-size="17.289245772497125px" text-anchor="middle" x="383.42471956490385" y="1038.0757784278762">14</text><circle cx="695.0788417087861" cy="692.1202477599078" fill="none" r="62.02244009863958" stroke="black" stroke-width="0.3101122004931979" /><circle cx="695.0788417087861" cy="692.1202477599078" fill="black" r="0.3101122004931979" stroke="black" stroke-width="9.303366014795936" /><text fill="black" font-size="23.955049022193904px" text-anchor="middle" x="701.28108571865" y="692.1202477599078">16</text><circle cx="463.78099099409314" cy="995.7910881152909" fill="none" r="61.28513042953735" stroke="black" stroke-width="0.30642565214768674" /><circle cx="463.78099099409314" cy="995.7910881152909" fill="black" r="0.30642565214768674" stroke="black" stroke-width="9.192769564430602" /><text fill="black" font-size="23.7891543466459px" text-anchor="middle" x="469.9095040370469" y="995.7910881152909">17</text><circle cx="877.8844071210535" cy="452.1149061671199" fill="none" r="24.386548621403545" stroke="black" stroke-width="0.12193274310701772" /><circle cx="877.8844071210535" cy="452.1149061671199" fill="black" r="0.12193274310701772" stroke="black" stroke-width="3.657982293210532" /><text fill="black" font-size="15.486973439815799px" text-anchor="middle" x="880.3230619831938" y="452.1149061671199">18</text><circle cx="402.4520127725902" cy="1076.309875024613" fill="none" r="11.848844106610974" stroke="black" stroke-width="0.05924422053305487" /><circle cx="402.4520127725902" cy="1076.309875024613" fill="black" r="0.05924422053305487" stroke="black" stroke-width="1.777326615991646" /><text fill="black" font-size="12.66598992398747px" text-anchor="middle" x="403.6368971832513" y="1076.309875024613">19</text><circle cx="413.5537929161563" cy="1061.7343530492753" fill="none" r="0.8331861593320555" stroke="black" stroke-width="0.004165930796660278" /><circle cx="413.5537929161563" cy="1061.7343530492753" fill="black" r="0.004165930796660278" stroke="black" stroke-width="0.12497792389980833" /><text fill="black" font-size="10.187466885849712px" text-anchor="middle" x="413.6371115320895" y="1061.7343530492753">20</text><path d="M 411.8631411732955,1063.9540089334523 A 3.1548529512802386 3.1548529512802386 0 0,0 416.73171639386834 1062.5440074291696" fill="none" stroke="blue" stroke-width="1" /><path d="M 416.73171639386834,1062.5440074291696 A 3.1548529511648287 3.1548529511648287 0 0,0 411.92884854217687 1058.8857931275359" fill="none" stroke="blue" stroke-width="1" /><path d="M 411.92884854217687,1058.8857931275359 A 3.1548529506371907 3.1548529506371907 0 0,0 411.8631411732955 1063.9540089334523" fill="none" stroke="blue" stroke-width="1" /><path d="M 939.5262942769068,371.18530126205104 A 92.09677982002488 92.09677982002488 0 0,0 791.7741064551885 449.6775738796315" fill="none" stroke="blue" stroke-width="1" /><path d="M 791.7741064551885,449.6775738796315 A 92.09677982002482 92.09677982002482 0 0,0 903.1141626541707 534.4822777725346" fill="none" stroke="blue" stroke-width="1" /><path d="M 903.1141626541707,534.4822777725346 A 92.0967798200249 92.0967798200249 0 0,0 939.5262942769068 371.18530126205104" fill="none" stroke="blue" stroke-width="1" /><path d="M 939.5262942769068,371.18530126205104 A 92.0967798200249 92.0967798200249 0 0,1 903.1141626541707 534.4822777725346" fill="none" stroke="blue" stroke-width="1" /><path d="M 903.1141626541707,534.4822777725346 A 92.09677982002482 92.09677982002482 0 0,1 791.7741064551885 449.6775738796315" fill="none" stroke="blue" stroke-width="1" /><path d="M 791.7741064551885,449.6775738796315 A 92.09677982002488 92.09677982002488 0 0,1 939.5262942769068 371.18530126205104" fill="none" stroke="blue" stroke-width="1" /><path d="M 411.8631411732955,1063.9540089334523 A 3.1548529506371907 3.1548529506371907 0 0,1 411.92884854217687 1058.8857931275359" fill="none" stroke="blue" stroke-width="1" /><path d="M 411.92884854217687,1058.8857931275359 A 3.1548529511648287 3.1548529511648287 0 0,1 416.73171639386834 1062.5440074291696" fill="none" stroke="blue" stroke-width="1" /><path d="M 416.73171639386834,1062.5440074291696 A 3.1548529512802386 3.1548529512802386 0 0,1 411.8631411732955 1063.9540089334523" fill="none" stroke="blue" stroke-width="1" /></svg>