<?xml version="1.0" encoding="utf-8" ?>
<svg baseProfile="full" height="1742.0477798712739" version="1.1" viewBox="0,0,1673.6946002530574,1742.0477798712739" width="1673.6946002530574" xmlns="http://www.w3.org/2000/svg" xmlns:ev="http://www.w3.org/2001/xml-events" xmlns:xlink="http://www.w3.org/1999/xlink"><defs /><rect fill="white" height="1742.0477798712739" width="1673.6946002530574" x="0" y="0" /><circle cx="252.98430463617257" cy="250.0" fill="none" r="200" stroke="black" stroke-width="1" /><circle cx="252.98430463617257" cy="250.0" fill="black" r="1" stroke="black" stroke-width="30" /><text fill="black" font-size="55px" text-anchor="middle" x="272.98430463617257" y="250.0">25</text><circle cx="288.1768907713299" cy="648.4488447481301" fill="none" r="200" stroke="black" stroke-width="1" /><circle cx="288.1768907713299" cy="648.4488447481301" fill="black" r="1" stroke="black" stroke-width="30" /><text fill="black" font-size="55px" text-anchor="middle" x="308.1768907713299" y="648.4488447481301">1</text><circle cx="1045.3123672410811" cy="332.6624795247952" fill="none" r="200" stroke="black" stroke-width="1" /><circle cx="1045.3123672410811" cy="332.6624795247952" fill="black" r="1" stroke="black" stroke-width="30" /><text fill="black" font-size="55px" text-anchor="middle" x="1065.3123672410811" y="332.6624795247952">28</text><circle cx="645.341702089819" cy="327.81820264823205" fill="none" r="200" stroke="black" stroke-width="1" /><circle cx="645.341702089819" cy="327.81820264823205" fill="black" r="1" stroke="black" stroke-width="30" /><text fill="black" font-size="55px" text-anchor="middle" x="665.341702089819" y="327.81820264823205">8</text><circle cx="1423.6946002530574" cy="976.7653292949976" fill="none" r="200" stroke="black" stroke-width="1" /><circle cx="1423.6946002530574" cy="976.7653292949976" fill="black" r="1" stroke="black" stroke-width="30" /><text fill="black" font-size="55px" text-anchor="middle" x="1443.6946002530574" y="976.7653292949976">27</text><circle cx="1111.0825898174314" cy="727.2182776348436" fill="none" r="200" stroke="black" stroke-width="1" /><circle cx="1111.0825898174314" cy="727.2182776348436" fill="black" r="1" stroke="black" stroke-width="30" /><text fill="black" font-size="55px" text-anchor="middle" x="1131.0825898174314" y="727.2182776348436">9</text><circle cx="849.6984342272309" cy="1492.0477798712743" fill="none" r="200" stroke="black" stroke-width="1" /><circle cx="849.6984342272309" cy="1492.0477798712743" fill="black" r="1" stroke="black" stroke-width="30" /><text fill="black" font-size="55px" text-anchor="middle" x="869.6984342272309" y="1492.0477798712743">18</text><circle cx="1207.5608121630673" cy="1313.3454618725086" fill="none" r="200" stroke="black" stroke-width="1" /><circle cx="1207.5608121630673" cy="1313.3454618725086" fill="black" r="1" stroke="black" stroke-width="30" /><text fill="black" font-size="55px" text-anchor="middle" x="1227.5608121630673" y="1313.3454618725086">4</text><circle cx="250.0" cy="1046.6228331138414" fill="none" r="200" stroke="black" stroke-width="1" /><circle cx="250.0" cy="1046.6228331138414" fill="black" r="1" stroke="black" stroke-width="30" /><text fill="black" font-size="55px" text-anchor="middle" x="270.0" y="1046.6228331138414">11</text><circle cx="635.2000972223564" cy="1154.4230422968974" fill="none" r="200" stroke="black" stroke-width="1" /><circle cx="635.2000972223564" cy="1154.4230422968974" fill="black" r="1" stroke="black" stroke-width="30" /><text fill="black" font-size="55px" text-anchor="middle" x="655.2000972223564" y="1154.4230422968974">3</text><circle cx="687.9899903012857" cy="734.5722873692368" fill="none" r="114.58866552418534" stroke="black" stroke-width="0.5729433276209267" /><circle cx="687.9899903012857" cy="734.5722873692368" fill="black" r="0.5729433276209267" stroke="black" stroke-width="17.1882998286278" /><text fill="black" font-size="35.7824497429417px" text-anchor="middle" x="699.4488568537042" y="734.5722873692368">2</text><circle cx="1051.6858527109623" cy="1116.6508398855885" fill="none" r="21.169429163973287" stroke="black" stroke-width="0.10584714581986644" /><circle cx="1051.6858527109623" cy="1116.6508398855885" fill="black" r="0.10584714581986644" stroke="black" stroke-width="3.1754143745959933" /><text fill="black" font-size="14.763121561893989px" text-anchor="middle" x="1053.8027956273597" y="1116.6508398855885">5</text><circle cx="1012.2980834568377" cy="1131.7387111269807" fill="none" r="11.47856432540577" stroke="black" stroke-width="0.057392821627028856" /><circle cx="1012.2980834568377" cy="1131.7387111269807" fill="black" r="0.057392821627028856" stroke="black" stroke-width="1.7217846488108657" /><text fill="black" font-size="12.582676973216298px" text-anchor="middle" x="1013.4459398893783" y="1131.7387111269807">6</text><circle cx="1029.1903158208547" cy="1154.5788425265434" fill="none" r="12.764720808906937" stroke="black" stroke-width="0.06382360404453469" /><circle cx="1029.1903158208547" cy="1154.5788425265434" fill="black" r="0.06382360404453469" stroke="black" stroke-width="1.9147081213360406" /><text fill="black" font-size="12.872062182004061px" text-anchor="middle" x="1030.4667879017454" y="1154.5788425265434">7</text><circle cx="969.6581822467269" cy="1048.335083038032" fill="none" r="62.492327743960296" stroke="black" stroke-width="0.3124616387198015" /><circle cx="969.6581822467269" cy="1048.335083038032" fill="black" r="0.3124616387198015" stroke="black" stroke-width="9.373849161594045" /><text fill="black" font-size="24.060773742391067px" text-anchor="middle" x="975.9074150211229" y="1048.335083038032">10</text><circle cx="527.3456399441708" cy="712.4189968888342" fill="none" r="47.57599024500962" stroke="black" stroke-width="0.2378799512250481" /><circle cx="527.3456399441708" cy="712.4189968888342" fill="black" r="0.2378799512250481" stroke="black" stroke-width="7.136398536751443" /><text fill="black" font-size="20.704597805127165px" text-anchor="middle" x="532.1032389686718" y="712.4189968888342">12</text><circle cx="856.8837998526977" cy="734.5722873692368" fill="none" r="54.305144027226525" stroke="black" stroke-width="0.27152572013613263" /><circle cx="856.8837998526977" cy="734.5722873692368" fill="black" r="0.27152572013613263" stroke="black" stroke-width="8.14577160408398" /><text fill="black" font-size="22.21865740612597px" text-anchor="middle" x="862.3143142554204" y="734.5722873692368">13</text><circle cx="683.2328169020341" cy="572.4774235332922" fill="none" r="47.57599024500962" stroke="black" stroke-width="0.2378799512250481" /><circle cx="683.2328169020341" cy="572.4774235332922" fill="black" r="0.2378799512250481" stroke="black" stroke-width="7.136398536751443" /><text fill="black" font-size="20.704597805127165px" text-anchor="middle" x="687.990415926535" y="572.4774235332922">14</text><circle cx="866.5823711127828" cy="1076.137206599504" fill="none" r="44.26712578964624" stroke="black" stroke-width="0.22133562894823117" /><circle cx="866.5823711127828" cy="1076.137206599504" fill="black" r="0.22133562894823117" stroke="black" stroke-width="6.640068868446935" /><text fill="black" font-size="19.960103302670404px" text-anchor="middle" x="871.0090836917474" y="1076.137206599504">15</text><circle cx="669.8354876339531" cy="902.4875425955767" fill="none" r="54.305144027226525" stroke="black" stroke-width="0.27152572013613263" /><circle cx="669.8354876339531" cy="902.4875425955767" fill="black" r="0.27152572013613263" stroke="black" stroke-width="8.14577160408398" /><text fill="black" font-size="22.21865740612597px" text-anchor="middle" x="675.2660020366758" y="902.4875425955767">16</text><circle cx="1039.8940962275835" cy="1179.6170231509416" fill="none" r="14.465435339803436" stroke="black" stroke-width="0.07232717669901718" /><circle cx="1039.8940962275835" cy="1179.6170231509416" fill="black" r="0.07232717669901718" stroke="black" stroke-width="2.1698153009705154" /><text fill="black" font-size="13.254722951455774px" text-anchor="middle" x="1041.3406397615638" y="1179.6170231509416">17</text><circle cx="1041.066886538168" cy="1140.9285285530411" fill="none" r="5.329035108560639" stroke="black" stroke-width="0.026645175542803195" /><circle cx="1041.066886538168" cy="1140.9285285530411" fill="black" r="0.026645175542803195" stroke="black" stroke-width="0.7993552662840958" /><text fill="black" font-size="11.199032899426143px" text-anchor="middle" x="1041.5997900490243" y="1140.9285285530411">19</text><circle cx="1086.46533228447" cy="1132.9747105631375" fill="none" r="17.250369792384618" stroke="black" stroke-width="0.08625184896192309" /><circle cx="1086.46533228447" cy="1132.9747105631375" fill="black" r="0.08625184896192309" stroke="black" stroke-width="2.5875554688576927" /><text fill="black" font-size="13.88133320328654px" text-anchor="middle" x="1088.1903692637084" y="1132.9747105631375">20</text><circle cx="1026.6077728140344" cy="1123.7709805331642" fill="none" r="4.89983424362036" stroke="black" stroke-width="0.024499171218101797" /><circle cx="1026.6077728140344" cy="1123.7709805331642" fill="black" r="0.024499171218101797" stroke="black" stroke-width="0.7349751365430539" /><text fill="black" font-size="11.102462704814581px" text-anchor="middle" x="1027.0977562383964" y="1123.7709805331642">21</text><circle cx="995.5166411498886" cy="1116.9850153633536" fill="none" r="10.866196688006188" stroke="black" stroke-width="0.054330983440030935" /><circle cx="995.5166411498886" cy="1116.9850153633536" fill="black" r="0.054330983440030935" stroke="black" stroke-width="1.629929503200928" /><text fill="black" font-size="12.444894254801392px" text-anchor="middle" x="996.6032608186893" y="1116.9850153633536">22</text><circle cx="1022.9923102896425" cy="1140.6751127677915" fill="none" r="2.457925956647955" stroke="black" stroke-width="0.012289629783239775" /><circle cx="1022.9923102896425" cy="1140.6751127677915" fill="black" r="0.012289629783239775" stroke="black" stroke-width="0.36868889349719325" /><text fill="black" font-size="10.55303334024579px" text-anchor="middle" x="1023.2381028853074" y="1140.6751127677915">23</text><circle cx="1014.4270721755672" cy="1146.9307770365706" fill="none" r="3.8619526033326594" stroke="black" stroke-width="0.019309763016663296" /><circle cx="1014.4270721755672" cy="1146.9307770365706" fill="black" r="0.019309763016663296" stroke="black" stroke-width="0.5792928904998988" /><text fill="black" font-size="10.868939335749848px" text-anchor="middle" x="1014.8132674359005" y="1146.9307770365706">24</text><circle cx="480.69449025849667" cy="503.6565593058807" fill="none" r="40.889667764914265" stroke="black" stroke-width="0.2044483388245713" /><circle cx="480.69449025849667" cy="503.6565593058807" fill="black" r="0.2044483388245713" stroke="black" stroke-width="6.133450164737139" /><text fill="black" font-size="19.200175247105708px" text-anchor="middle" x="484.7834570349881" y="503.6565593058807">26</text><circle cx="1035.2811191591381" cy="1086.307129127727" fill="none" r="13.32486116965241" stroke="black" stroke-width="0.06662430584826205" /><circle cx="1035.2811191591381" cy="1086.307129127727" fill="black" r="0.06662430584826205" stroke="black" stroke-width="1.9987291754478616" /><text fill="black" font-size="12.998093763171791px" text-anchor="middle" x="1036.6136052761033" y="1086.307129127727">29</text><circle cx="1008.378907334604" cy="948.8449510203941" fill="none" r="44.267125789572695" stroke="black" stroke-width="0.2213356289478635" /><circle cx="1008.378907334604" cy="948.8449510203941" fill="black" r="0.2213356289478635" stroke="black" stroke-width="6.640068868435905" /><text fill="black" font-size="19.960103302653856px" text-anchor="middle" x="1012.8056199135613" y="948.8449510203941">30</text><circle cx="507.01560009811874" cy="870.3482758615665" fill="none" r="111.65644262274965" stroke="black" stroke-width="0.5582822131137483" /><circle cx="507.01560009811874" cy="870.3482758615665" fill="black" r="0.5582822131137483" stroke="black" stroke-width="16.748466393412446" /><text fill="black" font-size="35.12269959011867px" text-anchor="middle" x="518.1812443603937" y="870.3482758615665">31</text><circle cx="559.7259287455153" cy="591.6932130410671" fill="none" r="77.41680150121051" stroke="black" stroke-width="0.3870840075060526" /><circle cx="559.7259287455153" cy="591.6932130410671" fill="black" r="0.3870840075060526" stroke="black" stroke-width="11.612520225181578" /><text fill="black" font-size="27.41878033777237px" text-anchor="middle" x="567.4676088956363" y="591.6932130410671">33</text><circle cx="842.4323578468795" cy="569.2410922869716" fill="none" r="111.65644262274965" stroke="black" stroke-width="0.5582822131137483" /><circle cx="842.4323578468795" cy="569.2410922869716" fill="black" r="0.5582822131137483" stroke="black" stroke-width="16.748466393412446" /><text fill="black" font-size="35.12269959011867px" text-anchor="middle" x="853.5980021091545" y="569.2410922869716">34</text><circle cx="846.224861317654" cy="910.8371866961032" fill="none" r="122.28174026809478" stroke="black" stroke-width="0.6114087013404739" /><circle cx="846.224861317654" cy="910.8371866961032" fill="black" r="0.6114087013404739" stroke="black" stroke-width="18.342261040214215" /><text fill="black" font-size="37.513391560321324px" text-anchor="middle" x="858.4530353444635" y="910.8371866961032">35</text><circle cx="929.5817567437208" cy="1204.3471791034626" fill="none" r="98.58496428725287" stroke="black" stroke-width="0.49292482143626437" /><circle cx="929.5817567437208" cy="1204.3471791034626" fill="black" r="0.49292482143626437" stroke="black" stroke-width="14.787744643087931" /><text fill="black" font-size="32.1816169646319px" text-anchor="middle" x="939.4402531724461" y="1204.3471791034626">36</text><circle cx="1059.304150203252" cy="1154.408972620412" fill="none" r="17.349592664080905" stroke="black" stroke-width="0.08674796332040452" /><circle cx="1059.304150203252" cy="1154.408972620412" fill="black" r="0.08674796332040452" stroke="black" stroke-width="2.6024388996121357" /><text fill="black" font-size="13.903658349418203px" text-anchor="middle" x="1061.0391094696602" y="1154.408972620412">37</text><circle cx="1030.3967386296829" cy="1134.9486226032361" fill="none" r="6.902536021375306" stroke="black" stroke-width="0.03451268010687653" /><circle cx="1030.3967386296829" cy="1134.9486226032361" fill="black" r="0.03451268010687653" stroke="black" stroke-width="1.0353804032062959" /><text fill="black" font-size="11.553070604809443px" text-anchor="middle" x="1031.0869922318204" y="1134.9486226032361">38</text><circle cx="1129.074199824019" cy="1025.2606955594788" fill="none" r="98.58496428668346" stroke="black" stroke-width="0.49292482143341726" /><circle cx="1129.074199824019" cy="1025.2606955594788" fill="black" r="0.49292482143341726" stroke="black" stroke-width="14.787744643002517" /><text fill="black" font-size="32.181616964503775px" text-anchor="middle" x="1138.9326962526873" y="1025.2606955594788">39</text><circle cx="1018.0866569826833" cy="1107.2000172675337" fill="none" r="13.733636655483588" stroke="black" stroke-width="0.06866818327741794" /><circle cx="1018.0866569826833" cy="1107.2000172675337" fill="black" r="0.06866818327741794" stroke="black" stroke-width="2.0600454983225385" /><text fill="black" font-size="13.090068247483806px" text-anchor="middle" x="1019.4600206482316" y="1107.2000172675337">40</text><circle cx="1019.3012822779208" cy="1143.42265246829" fill="none" r="2.143450157023408" stroke="black" stroke-width="0.01071725078511704" /><circle cx="1019.3012822779208" cy="1143.42265246829" fill="black" r="0.01071725078511704" stroke="black" stroke-width="0.3215175235535112" /><text fill="black" font-size="10.482276285330267px" text-anchor="middle" x="1019.5156272936231" y="1143.42265246829">41</text><circle cx="419.98407547165573" cy="436.0285132139752" fill="none" r="49.991062215644156" stroke="black" stroke-width="0.24995531107822078" /><circle cx="419.98407547165573" cy="436.0285132139752" fill="black" r="0.24995531107822078" stroke="black" stroke-width="7.498659332346623" /><text fill="black" font-size="21.247988998519936px" text-anchor="middle" x="424.98318169322016" y="436.0285132139752">42</text><path d="M 675.951386635333,525.461940752995 A 285.745301557256 285.745301557256 0 0,0 449.1630033629958 288.909101324116" fill="none" stroke="blue" stroke-width="1" /><path d="M 449.1630033629958,288.909101324116 A 149.98510321930672 149.98510321930672 0 0,0 270.5805977037512 449.22442237406506" fill="none" stroke="blue" stroke-width="1" /><path d="M 270.5805977037512,449.22442237406506 A 285.74530155727496 285.74530155727496 0 0,0 481.3852458595203 700.1260304698934" fill="none" stroke="blue" stroke-width="1" /><path d="M 481.3852458595203,700.1260304698934 A 764.4388175815905 764.4388175815905 0 0,0 574.4756018292306 718.918346126134" fill="none" stroke="blue" stroke-width="1" /><path d="M 574.4756018292306,718.918346126134 A 96.9502443387583 96.9502443387583 0 0,0 684.6284800578745 620.032938167758" fill="none" stroke="blue" stroke-width="1" /><path d="M 684.6284800578745,620.032938167758 A 764.4388175314431 764.4388175314431 0 0,0 675.951386635333 525.461940752995" fill="none" stroke="blue" stroke-width="1" /><path d="M 1315.6277062080624,1145.0553955837531 A 180.49548163298513 180.49548163298513 0 0,1 1051.203014301767 1188.6368452978284" fill="none" stroke="blue" stroke-width="1" /><path d="M 1051.203014301767,1188.6368452978284 A 57.42376909684012 57.42376909684012 0 0,1 1034.207942886435 1166.3160277078543" fill="none" stroke="blue" stroke-width="1" /><path d="M 1034.207942886435,1166.3160277078543 A 1662.6414454742865 1662.6414454742865 0 0,0 1023.9930717806787 1142.9200796775922" fill="none" stroke="blue" stroke-width="1" /><path d="M 1023.9930717806787,1142.9200796775922 A 10.608197798011501 10.608197798011501 0 0,0 1021.1062100458473 1139.0990334890462" fill="none" stroke="blue" stroke-width="1" /><path d="M 1021.1062100458473,1139.0990334890462 A 914.7979533753206 914.7979533753206 0 0,1 1003.6774110371247 1124.1596976052604" fill="none" stroke="blue" stroke-width="1" /><path d="M 1003.6774110371247,1124.1596976052604 A 43.51855762892441 43.51855762892441 0 0,1 991.6863691717348 1106.8162766510984" fill="none" stroke="blue" stroke-width="1" /><path d="M 991.6863691717348,1106.8162766510984 A 163.20013107805457 163.20013107805457 0 0,1 992.3236058938737 990.0978990552268" fill="none" stroke="blue" stroke-width="1" /><path d="M 992.3236058938737,990.0978990552268 A 1409.4504618695096 1409.4504618695096 0 0,1 1026.991304794245 908.6808241557159" fill="none" stroke="blue" stroke-width="1" /><path d="M 1026.991304794245,908.6808241557159 A 157.00128887003643 157.00128887003643 0 0,1 1267.3885950352444 851.9918034649206" fill="none" stroke="blue" stroke-width="1" /><path d="M 1267.3885950352444,851.9918034649206 A 221.70471557970416 221.70471557970416 0 0,1 1315.6277062080624 1145.0553955837531" fill="none" stroke="blue" stroke-width="1" /><path d="M 1037.5689581583138,1144.9488658859575 A 16.232390589124513 16.232390589124513 0 0,1 1017.8561975222876 1148.7072277851441" fill="none" stroke="blue" stroke-width="1" /><path d="M 1017.8561975222876,1148.7072277851441 A 7.476582526149704 7.476582526149704 0 0,1 1013.8911023928697 1143.106196759251" fill="none" stroke="blue" stroke-width="1" /><path d="M 1013.8911023928697,1143.106196759251 A 16.742691311170397 16.742691311170397 0 0,1 1022.326822778995 1126.154642100746" fill="none" stroke="blue" stroke-width="1" /><path d="M 1022.326822778995,1126.154642100746 A 42.15756823140857 42.15756823140857 0 0,1 1031.3213096992931 1122.4327183652265" fill="none" stroke="blue" stroke-width="1" /><path d="M 1031.3213096992931,1122.4327183652265 A 9.989881665048399 9.989881665048399 0 0,1 1043.2024383561688 1136.0461076726108" fill="none" stroke="blue" stroke-width="1" /><path d="M 1043.2024383561688,1136.0461076726108 A 34.823787788337775 34.823787788337775 0 0,1 1037.5689581583138 1144.9488658859575" fill="none" stroke="blue" stroke-width="1" /><path d="M 1026.991304794245,908.6808241557159 A 647.5502027900388 647.5502027900388 0 0,0 1078.1974785292564 529.9403785798194" fill="none" stroke="blue" stroke-width="1" /><path d="M 1078.1974785292564,529.9403785798194 A 239.01828011318972 239.01828011318972 0 0,0 845.3270346654501 330.2403410865136" fill="none" stroke="blue" stroke-width="1" /><path d="M 845.3270346654501,330.2403410865136 A 453.7133301156897 453.7133301156897 0 0,0 508.64242946513957 473.80898613775094" fill="none" stroke="blue" stroke-width="1" /><path d="M 508.64242946513957,473.80898613775094 A 470.4089728715408 470.4089728715408 0 0,1 448.01570932542904 528.2342363046056" fill="none" stroke="blue" stroke-width="1" /><path d="M 448.01570932542904,528.2342363046056 A 453.71333011576843 453.71333011576843 0 0,0 269.08844538566495 847.5358389309857" fill="none" stroke="blue" stroke-width="1" /><path d="M 269.08844538566495,847.5358389309857 A 239.0182801132321 239.0182801132321 0 0,0 442.6000486111782 1100.5229377053693" fill="none" stroke="blue" stroke-width="1" /><path d="M 442.6000486111782,1100.5229377053693 A 647.5502024125466 647.5502024125466 0 0,0 824.6502928984493 1090.324498176957" fill="none" stroke="blue" stroke-width="1" /><path d="M 824.6502928984493,1090.324498176957 A 1409.4502433134319 1409.4502433134319 0 0,1 909.3220981000494 1064.6092335706091" fill="none" stroke="blue" stroke-width="1" /><path d="M 909.3220981000494,1064.6092335706091 A 123.60778051460167 123.60778051460167 0 0,0 992.3236058938737 990.0978990552268" fill="none" stroke="blue" stroke-width="1" /><path d="M 992.3236058938737,990.0978990552268 A 1409.4504618695096 1409.4504618695096 0 0,1 1026.991304794245 908.6808241557159" fill="none" stroke="blue" stroke-width="1" /></svg>