<?xml version="1.0" encoding="utf-8" ?>
<svg baseProfile="full" height="860.5362638938064" version="1.1" viewBox="0,0,898.8557350837419,860.5362638938064" width="898.8557350837419" xmlns="http://www.w3.org/2000/svg" xmlns:ev="http://www.w3.org/2001/xml-events" xmlns:xlink="http://www.w3.org/1999/xlink"><defs /><rect fill="white" height="860.5362638938064" width="898.8557350837419" x="0" y="0" /><circle cx="475.61139189633855" cy="610.5362638938064" fill="none" r="200" stroke="black" stroke-width="1" /><circle cx="475.61139189633855" cy="610.5362638938064" fill="black" r="1" stroke="black" stroke-width="30" /><text fill="black" font-size="55px" text-anchor="middle" x="495.61139189633855" y="610.5362638938064">13</text><circle cx="250.0" cy="280.23412969553016" fill="none" r="200" stroke="black" stroke-width="1" /><circle cx="250.0" cy="280.23412969553016" fill="black" r="1" stroke="black" stroke-width="30" /><text fill="black" font-size="55px" text-anchor="middle" x="270.0" y="280.23412969553016">12</text><circle cx="648.8557350837419" cy="250.0" fill="none" r="200" stroke="black" stroke-width="1" /><circle cx="648.8557350837419" cy="250.0" fill="black" r="1" stroke="black" stroke-width="30" /><text fill="black" font-size="55px" text-anchor="middle" x="668.8557350837419" y="250.0">4</text><circle cx="461.8353834934254" cy="370.26767177700435" fill="none" r="2.9473493106636295" stroke="black" stroke-width="0.014736746553318147" /><circle cx="461.8353834934254" cy="370.26767177700435" fill="black" r="0.014736746553318147" stroke="black" stroke-width="0.4421023965995444" /><text fill="black" font-size="10.663153594899317px" text-anchor="middle" x="462.1301184244918" y="370.26767177700435">1</text><circle cx="466.5491936406866" cy="381.11509808767426" fill="none" r="0.6125818786639665" stroke="black" stroke-width="0.0030629093933198324" /><circle cx="466.5491936406866" cy="381.11509808767426" fill="black" r="0.0030629093933198324" stroke="black" stroke-width="0.09188728179959497" /><text fill="black" font-size="10.137830922699392px" text-anchor="middle" x="466.610451828553" y="381.11509808767426">2</text><circle cx="470.65175646919755" cy="378.5214392991909" fill="none" r="2.8622855900578767" stroke="black" stroke-width="0.014311427950289383" /><circle cx="470.65175646919755" cy="378.5214392991909" fill="black" r="0.014311427950289383" stroke="black" stroke-width="0.4293428385086815" /><text fill="black" font-size="10.644014257763022px" text-anchor="middle" x="470.93798502820334" y="378.5214392991909">3</text><circle cx="466.07790939127113" cy="370.26767177700435" fill="none" r="1.2951765871820813" stroke="black" stroke-width="0.006475882935910407" /><circle cx="466.07790939127113" cy="370.26767177700435" fill="black" r="0.006475882935910407" stroke="black" stroke-width="0.1942764880773122" /><text fill="black" font-size="10.291414732115967px" text-anchor="middle" x="466.20742704998935" y="370.26767177700435">5</text><circle cx="465.438572459774" cy="367.35780739376673" fill="none" r="1.6840955455394573" stroke="black" stroke-width="0.008420477727697287" /><circle cx="465.438572459774" cy="367.35780739376673" fill="black" r="0.008420477727697287" stroke="black" stroke-width="0.25261433183091864" /><text fill="black" font-size="10.378921497746378px" text-anchor="middle" x="465.6069820143279" y="367.35780739376673">6</text><circle cx="467.1591685662763" cy="380.56502537549915" fill="none" r="0.20878856103253807" stroke="black" stroke-width="0.0010439428051626904" /><circle cx="467.1591685662763" cy="380.56502537549915" fill="black" r="0.0010439428051626904" stroke="black" stroke-width="0.031318284154880714" /><text fill="black" font-size="10.04697742623232px" text-anchor="middle" x="467.1800474223796" y="380.56502537549915">7</text><circle cx="467.35985832974916" cy="380.94024083386023" fill="none" r="0.2167264463857938" stroke="black" stroke-width="0.001083632231928969" /><circle cx="467.35985832974916" cy="380.94024083386023" fill="black" r="0.001083632231928969" stroke="black" stroke-width="0.03250896695786907" /><text fill="black" font-size="10.048763450436804px" text-anchor="middle" x="467.3815309743877" y="380.94024083386023">8</text><circle cx="466.00798612322956" cy="374.7085603274303" fill="none" r="3.146262411691822" stroke="black" stroke-width="0.01573131205845911" /><circle cx="466.00798612322956" cy="374.7085603274303" fill="black" r="0.01573131205845911" stroke="black" stroke-width="0.47193936175377327" /><text fill="black" font-size="10.70790904263066px" text-anchor="middle" x="466.32261236439876" y="374.7085603274303">9</text><circle cx="466.5013702114112" cy="379.1653493748161" fill="none" r="1.337753252521145" stroke="black" stroke-width="0.006688766262605726" /><circle cx="466.5013702114112" cy="379.1653493748161" fill="black" r="0.006688766262605726" stroke="black" stroke-width="0.20066298787817177" /><text fill="black" font-size="10.300994481817257px" text-anchor="middle" x="466.6351455366633" y="379.1653493748161">10</text><circle cx="468.4594914826595" cy="382.75434133571775" fill="none" r="1.904630125067051" stroke="black" stroke-width="0.009523150625335255" /><circle cx="468.4594914826595" cy="382.75434133571775" fill="black" r="0.009523150625335255" stroke="black" stroke-width="0.28569451876005764" /><text fill="black" font-size="10.428541778140087px" text-anchor="middle" x="468.6499544951662" y="382.75434133571775">11</text><circle cx="455.907395271666" cy="350.596515445113" fill="none" r="17.59761201280406" stroke="black" stroke-width="0.0879880600640203" /><circle cx="455.907395271666" cy="350.596515445113" fill="black" r="0.0879880600640203" stroke="black" stroke-width="2.6396418019206087" /><text fill="black" font-size="13.959462702880913px" text-anchor="middle" x="457.66715647294643" y="350.596515445113">14</text><circle cx="484.96642392785424" cy="393.13984227607693" fill="none" r="17.597612012955015" stroke="black" stroke-width="0.08798806006477508" /><circle cx="484.96642392785424" cy="393.13984227607693" fill="black" r="0.08798806006477508" stroke="black" stroke-width="2.6396418019432524" /><text fill="black" font-size="13.959462702914879px" text-anchor="middle" x="486.7261851291497" y="393.13984227607693">15</text><circle cx="464.89014799621293" cy="369.2394348762728" fill="none" r="0.27582572205127165" stroke="black" stroke-width="0.0013791286102563581" /><circle cx="464.89014799621293" cy="369.2394348762728" fill="black" r="0.0013791286102563581" stroke="black" stroke-width="0.04137385830769074" /><text fill="black" font-size="10.062060787461537px" text-anchor="middle" x="464.91773056841805" y="369.2394348762728">16</text><circle cx="476.1979851916334" cy="367.93310200424884" fill="none" r="9.090686411574518" stroke="black" stroke-width="0.04545343205787259" /><circle cx="476.1979851916334" cy="367.93310200424884" fill="black" r="0.04545343205787259" stroke="black" stroke-width="1.3636029617361778" /><text fill="black" font-size="12.045404442604266px" text-anchor="middle" x="477.1070538327908" y="367.93310200424884">17</text><circle cx="467.8618233502804" cy="380.41519518412747" fill="none" r="0.5096631293479736" stroke="black" stroke-width="0.0025483156467398685" /><circle cx="467.8618233502804" cy="380.41519518412747" fill="black" r="0.0025483156467398685" stroke="black" stroke-width="0.07644946940219606" /><text fill="black" font-size="10.114674204103293px" text-anchor="middle" x="467.9127896632152" y="380.41519518412747">18</text><circle cx="467.13218389989606" cy="380.815327351357" fill="none" r="0.042963800231111245" stroke="black" stroke-width="0.00021481900115555622" /><circle cx="467.13218389989606" cy="380.815327351357" fill="black" r="0.00021481900115555622" stroke="black" stroke-width="0.006444570034666686" /><text fill="black" font-size="10.009666855052px" text-anchor="middle" x="467.13648027991917" y="380.815327351357">19</text><circle cx="444.4274825646933" cy="389.6338013871965" fill="none" r="23.09265819336895" stroke="black" stroke-width="0.11546329096684475" /><circle cx="444.4274825646933" cy="389.6338013871965" fill="black" r="0.11546329096684475" stroke="black" stroke-width="3.4638987290053427" /><text fill="black" font-size="15.195848093508014px" text-anchor="middle" x="446.7367483840302" y="389.6338013871965">20</text><path d="M 465.799970959296,369.002668765144 A 1.041501901465607 1.041501901465607 0 0,1 464.78273280408905 370.26767177700435" fill="none" stroke="blue" stroke-width="1" /><text fill="red" font-size="10px" text-anchor="middle" x="464.78273280408905" y="370.26767177700435">1</text><path d="M 464.78273280408905,370.26767177700435 A 3.96646888869081 3.96646888869081 0 0,1 460.9849632018541 367.4456772187313" fill="none" stroke="blue" stroke-width="1" /><path d="M 460.9849632018541,367.4456772187313 A 21.258843727887246 21.258843727887246 0 0,1 471.51156478032675 342.4610472647959" fill="none" stroke="blue" stroke-width="1" /><text fill="red" font-size="10px" text-anchor="middle" x="471.51156478032675" y="342.4610472647959">4</text><path d="M 471.51156478032675,342.4610472647959 A 66.52900066465514 66.52900066465514 0 0,1 562.2335634900403 430.2681319469032" fill="none" stroke="blue" stroke-width="1" /><path d="M 562.2335634900403,430.2681319469032 A 115.47005384160016 115.47005384160016 0 0,1 362.8056959481693 445.3851967946683" fill="none" stroke="blue" stroke-width="1" /><path d="M 362.8056959481693,445.3851967946683 A 115.47005385184855 115.47005385184855 0 0,1 449.427867541871 265.1170648477651" fill="none" stroke="blue" stroke-width="1" /><text fill="red" font-size="10px" text-anchor="middle" x="449.427867541871" y="265.1170648477651">6</text><path d="M 449.427867541871,265.1170648477651 A 66.5290006770173 66.5290006770173 0 0,1 498.2205239343381 381.56379884128035" fill="none" stroke="blue" stroke-width="1" /><path d="M 498.2205239343381,381.56379884128035 A 18.63004153056094 18.63004153056094 0 0,1 472.6543406066348 380.5665152327204" fill="none" stroke="blue" stroke-width="1" /><text fill="red" font-size="10px" text-anchor="middle" x="472.6543406066348" y="380.5665152327204">-8</text><path d="M 472.6543406066348,380.5665152327204 A 5.566981150217115 5.566981150217115 0 0,0 467.8233086323815 378.9602577482182" fill="none" stroke="blue" stroke-width="1" /><path d="M 467.8233086323815,378.9602577482182 A 1.52310126308007 1.52310126308007 0 0,0 466.5341727523884 380.5027003974786" fill="none" stroke="blue" stroke-width="1" /><text fill="red" font-size="10px" text-anchor="middle" x="466.5341727523884" y="380.5027003974786">-2</text><path d="M 466.5341727523884,380.5027003974786 A 0.5070696465227259 0.5070696465227259 0 0,0 467.1480040989835 380.9859369761745" fill="none" stroke="blue" stroke-width="1" /><path d="M 467.1480040989835,380.9859369761745 A 0.16340766859791778 0.16340766859791778 0 0,0 467.2576415371444 380.74913332530724" fill="none" stroke="blue" stroke-width="1" /><path d="M 467.2576415371444,380.74913332530724 A 0.16340766859422987 0.16340766859422987 0 0,0 467.004115765707 380.7048513108965" fill="none" stroke="blue" stroke-width="1" /><text fill="red" font-size="10px" text-anchor="middle" x="467.004115765707" y="380.7048513108965">5</text><path d="M 467.004115765707,380.7048513108965 A 0.5388978196200009 0.5388978196200009 0 0,0 467.01407853679746 381.51401987375556" fill="none" stroke="blue" stroke-width="1" /><path d="M 467.01407853679746,381.51401987375556 A 1.5081557815821462 1.5081557815821462 0 0,0 469.33541507456226 381.0630773786802" fill="none" stroke="blue" stroke-width="1" /><text fill="red" font-size="10px" text-anchor="middle" x="469.33541507456226" y="381.0630773786802">7</text><path d="M 469.33541507456226,381.0630773786802 A 3.5351586461163667 3.5351586461163667 0 0,0 468.43960855244103 376.70510221836423" fill="none" stroke="blue" stroke-width="1" /><path d="M 468.43960855244103,376.70510221836423 A 48.68291811208995 48.68291811208995 0 0,1 463.8535819026724 372.41563433257926" fill="none" stroke="blue" stroke-width="1" /><text fill="red" font-size="10px" text-anchor="middle" x="463.8535819026724" y="372.41563433257926">-3</text><path d="M 463.8535819026724,372.41563433257926 A 2.7344245430847156 2.7344245430847156 0 0,1 464.1283734449164 368.41589829155015" fill="none" stroke="blue" stroke-width="1" /><path d="M 464.1283734449164,368.41589829155015 A 1.0415019014655589 1.0415019014655589 0 0,1 465.799970959296 369.002668765144" fill="none" stroke="blue" stroke-width="1" /><text fill="red" font-size="10px" text-anchor="middle" x="460.9849632018541" y="367.4456772187313">-4</text><path d="M 460.9849632018541,367.4456772187313 A 3.96646888869081 3.96646888869081 0 0,0 464.78273280408905 370.26767177700435" fill="none" stroke="blue" stroke-width="1" /><path d="M 464.78273280408905,370.26767177700435 A 1.041501901465607 1.041501901465607 0 0,0 465.799970959296 369.002668765144" fill="none" stroke="blue" stroke-width="1" /><path d="M 465.799970959296,369.002668765144 A 1.0415019014655589 1.0415019014655589 0 0,0 464.1283734449164 368.41589829155015" fill="none" stroke="blue" stroke-width="1" /><text fill="red" font-size="10px" text-anchor="middle" x="464.1283734449164" y="368.41589829155015">-1</text><path d="M 464.1283734449164,368.41589829155015 A 2.7344245430847156 2.7344245430847156 0 0,0 463.8535819026724 372.41563433257926" fill="none" stroke="blue" stroke-width="1" /><path d="M 463.8535819026724,372.41563433257926 A 48.68291811208995 48.68291811208995 0 0,0 468.43960855244103 376.70510221836423" fill="none" stroke="blue" stroke-width="1" /><text fill="red" font-size="10px" text-anchor="middle" x="468.43960855244103" y="376.70510221836423">3</text><path d="M 468.43960855244103,376.70510221836423 A 3.5351586461163667 3.5351586461163667 0 0,1 469.33541507456226 381.0630773786802" fill="none" stroke="blue" stroke-width="1" /><path d="M 469.33541507456226,381.0630773786802 A 1.5081557815821462 1.5081557815821462 0 0,1 467.01407853679746 381.51401987375556" fill="none" stroke="blue" stroke-width="1" /><text fill="red" font-size="10px" text-anchor="middle" x="467.01407853679746" y="381.51401987375556">-7</text><path d="M 467.01407853679746,381.51401987375556 A 0.5388978196200009 0.5388978196200009 0 0,1 467.004115765707 380.7048513108965" fill="none" stroke="blue" stroke-width="1" /><path d="M 467.004115765707,380.7048513108965 A 0.16340766859422987 0.16340766859422987 0 0,1 467.2576415371444 380.74913332530724" fill="none" stroke="blue" stroke-width="1" /><path d="M 467.2576415371444,380.74913332530724 A 0.16340766859791778 0.16340766859791778 0 0,1 467.1480040989835 380.9859369761745" fill="none" stroke="blue" stroke-width="1" /><text fill="red" font-size="10px" text-anchor="middle" x="467.1480040989835" y="380.9859369761745">-5</text><path d="M 467.1480040989835,380.9859369761745 A 0.5070696465227259 0.5070696465227259 0 0,1 466.5341727523884 380.5027003974786" fill="none" stroke="blue" stroke-width="1" /><path d="M 466.5341727523884,380.5027003974786 A 1.52310126308007 1.52310126308007 0 0,1 467.8233086323815 378.9602577482182" fill="none" stroke="blue" stroke-width="1" /><text fill="red" font-size="10px" text-anchor="middle" x="467.8233086323815" y="378.9602577482182">2</text><path d="M 467.8233086323815,378.9602577482182 A 5.566981150217115 5.566981150217115 0 0,1 472.6543406066348 380.5665152327204" fill="none" stroke="blue" stroke-width="1" /><path d="M 472.6543406066348,380.5665152327204 A 18.63004153056094 18.63004153056094 0 0,0 498.2205239343381 381.56379884128035" fill="none" stroke="blue" stroke-width="1" /><text fill="red" font-size="10px" text-anchor="middle" x="498.2205239343381" y="381.56379884128035">8</text><path d="M 498.2205239343381,381.56379884128035 A 66.52900067701736 66.52900067701736 0 0,0 449.4278675418709 265.11706484776505" fill="none" stroke="blue" stroke-width="1" /><path d="M 449.4278675418709,265.11706484776505 A 115.47005385184855 115.47005385184855 0 0,0 362.8056959481693 445.38519679466833" fill="none" stroke="blue" stroke-width="1" /><path d="M 362.8056959481693,445.38519679466833 A 115.47005384160016 115.47005384160016 0 0,0 562.2335634900403 430.2681319469032" fill="none" stroke="blue" stroke-width="1" /><text fill="red" font-size="10px" text-anchor="middle" x="562.2335634900403" y="430.2681319469032">-6</text><path d="M 562.2335634900403,430.2681319469032 A 66.5290006646551 66.5290006646551 0 0,0 471.5115647803268 342.461047264796" fill="none" stroke="blue" stroke-width="1" /><path d="M 471.5115647803268,342.461047264796 A 21.258843727887193 21.258843727887193 0 0,0 460.9849632018541 367.4456772187313" fill="none" stroke="blue" stroke-width="1" /></svg>