<?xml version="1.0" encoding="utf-8" ?>
<svg baseProfile="full" height="899.5435383920326" version="1.1" viewBox="0,0,855.5668296840302,899.5435383920326" width="855.5668296840302" xmlns="http://www.w3.org/2000/svg" xmlns:ev="http://www.w3.org/2001/xml-events" xmlns:xlink="http://www.w3.org/1999/xlink"><defs /><rect fill="white" height="899.5435383920326" width="855.5668296840302" x="0" y="0" /><circle cx="605.5668296840302" cy="649.5435383920326" fill="none" r="200" stroke="black" stroke-width="1" /><circle cx="605.5668296840302" cy="649.5435383920326" fill="black" r="1" stroke="black" stroke-width="30" /><text fill="black" font-size="55px" text-anchor="middle" x="625.5668296840302" y="649.5435383920326">5</text><circle cx="250.0" cy="466.3162761345192" fill="none" r="200" stroke="black" stroke-width="1" /><circle cx="250.0" cy="466.3162761345192" fill="black" r="1" stroke="black" stroke-width="30" /><text fill="black" font-size="55px" text-anchor="middle" x="270.0" y="466.3162761345192">4</text><circle cx="586.4628786123695" cy="250.0" fill="none" r="200" stroke="black" stroke-width="1" /><circle cx="586.4628786123695" cy="250.0" fill="black" r="1" stroke="black" stroke-width="30" /><text fill="black" font-size="55px" text-anchor="middle" x="606.4628786123695" y="250.0">2</text><circle cx="481.2290631788473" cy="444.504523768909" fill="none" r="4.041208417354966" stroke="black" stroke-width="0.020206042086774827" /><circle cx="481.2290631788473" cy="444.504523768909" fill="black" r="0.020206042086774827" stroke="black" stroke-width="0.6061812626032448" /><text fill="black" font-size="10.909271893904867px" text-anchor="middle" x="481.6331840205828" y="444.504523768909">1</text><circle cx="489.1365261195786" cy="448.57932114851064" fill="none" r="4.041208417354966" stroke="black" stroke-width="0.020206042086774827" /><circle cx="489.1365261195786" cy="448.57932114851064" fill="black" r="0.020206042086774827" stroke="black" stroke-width="0.6061812626032448" /><text fill="black" font-size="10.909271893904867px" text-anchor="middle" x="489.5406469613141" y="448.57932114851064">3</text><circle cx="464.69470623673254" cy="430.4280791948765" fill="none" r="17.673561932141432" stroke="black" stroke-width="0.08836780966070716" /><circle cx="464.69470623673254" cy="430.4280791948765" fill="black" r="0.08836780966070716" stroke="black" stroke-width="2.6510342898212147" /><text fill="black" font-size="13.976551434731823px" text-anchor="middle" x="466.4620624299467" y="430.4280791948765">6</text><circle cx="510.195615750221" cy="453.87516813568476" fill="none" r="17.673561932141432" stroke="black" stroke-width="0.08836780966070716" /><circle cx="510.195615750221" cy="453.87516813568476" fill="black" r="0.08836780966070716" stroke="black" stroke-width="2.6510342898212147" /><text fill="black" font-size="13.976551434731823px" text-anchor="middle" x="511.96297194343515" y="453.87516813568476">7</text><circle cx="486.23268725125615" cy="444.504523768909" fill="none" r="0.9624156550538433" stroke="black" stroke-width="0.004812078275269216" /><circle cx="486.23268725125615" cy="444.504523768909" fill="black" r="0.004812078275269216" stroke="black" stroke-width="0.14436234825807648" /><text fill="black" font-size="10.216543522387115px" text-anchor="middle" x="486.32892881676156" y="444.504523768909">8</text><circle cx="485.16030388934894" cy="446.5855675368779" fill="none" r="0.4068694470660422" stroke="black" stroke-width="0.002034347235330211" /><circle cx="485.16030388934894" cy="446.5855675368779" fill="black" r="0.002034347235330211" stroke="black" stroke-width="0.06103041705990633" /><text fill="black" font-size="10.091545625589859px" text-anchor="middle" x="485.2009908340555" y="446.5855675368779">9</text><circle cx="484.0033627077549" cy="448.83070236578203" fill="none" r="1.098106627272302" stroke="black" stroke-width="0.0054905331363615095" /><circle cx="484.0033627077549" cy="448.83070236578203" fill="black" r="0.0054905331363615095" stroke="black" stroke-width="0.16471599409084528" /><text fill="black" font-size="10.247073991136268px" text-anchor="middle" x="484.1131733704821" y="448.83070236578203">10</text><circle cx="472.9649400242277" cy="470.2516247228197" fill="none" r="22.999666920545103" stroke="black" stroke-width="0.11499833460272552" /><circle cx="472.9649400242277" cy="470.2516247228197" fill="black" r="0.11499833460272552" stroke="black" stroke-width="3.4499500380817656" /><text fill="black" font-size="15.174925057122648px" text-anchor="middle" x="475.2649067162822" y="470.2516247228197">11</text><circle cx="490.7613933558406" cy="435.7162154543084" fill="none" r="8.92411771181342" stroke="black" stroke-width="0.0446205885590671" /><circle cx="490.7613933558406" cy="435.7162154543084" fill="black" r="0.0446205885590671" stroke="black" stroke-width="1.338617656772013" /><text fill="black" font-size="12.00792648515802px" text-anchor="middle" x="491.65380512702194" y="435.7162154543084">13</text><circle cx="485.56925655689025" cy="445.79196290779333" fill="none" r="0.4859074520455378" stroke="black" stroke-width="0.002429537260227689" /><circle cx="485.56925655689025" cy="445.79196290779333" fill="black" r="0.002429537260227689" stroke="black" stroke-width="0.07288611780683067" /><text fill="black" font-size="10.109329176710245px" text-anchor="middle" x="485.6178473020948" y="445.79196290779333">14</text><circle cx="484.74015016866605" cy="447.40090868542313" fill="none" r="0.5103602610813207" stroke="black" stroke-width="0.0025518013054066035" /><circle cx="484.74015016866605" cy="447.40090868542313" fill="black" r="0.0025518013054066035" stroke="black" stroke-width="0.0765540391621981" /><text fill="black" font-size="10.114831058743297px" text-anchor="middle" x="484.7911861947742" y="447.40090868542313">15</text><path d="M 485.2702715962023,444.504523768909 A 1.0036534017418701 1.0036534017418701 0 0,0 484.80070997419756 446.3952127020477" fill="none" stroke="blue" stroke-width="1" /><path d="M 484.80070997419756,446.3952127020477 A 36.857594277031836 36.857594277031836 0 0,0 485.52401230218175 446.7679378672265" fill="none" stroke="blue" stroke-width="1" /><path d="M 485.52401230218175,446.7679378672265 A 1.003653401741414 1.003653401741414 0 0,0 486.79122241420697 445.28828544495616" fill="none" stroke="blue" stroke-width="1" /><path d="M 486.79122241420697,445.28828544495616 A 1.8676428339763584 1.8676428339763584 0 0,0 485.2702715962023 444.504523768909" fill="none" stroke="blue" stroke-width="1" /><path d="M 483.4105839673434,447.9063368916404 A 1.0614618304919667 1.0614618304919667 0 0,1 484.80070997419756 446.3952127020477" fill="none" stroke="blue" stroke-width="1" /><path d="M 484.80070997419756,446.3952127020477 A 36.857594277031836 36.857594277031836 0 0,0 485.52401230218175 446.7679378672265" fill="none" stroke="blue" stroke-width="1" /><path d="M 485.52401230218175,446.7679378672265 A 1.06146183048184 1.06146183048184 0 0,1 485.1001549285953 448.77699027024784" fill="none" stroke="blue" stroke-width="1" /><path d="M 485.1001549285953,448.77699027024784 A 1.8969140356404017 1.8969140356404017 0 0,1 483.4105839673434 447.9063368916404" fill="none" stroke="blue" stroke-width="1" /><path d="M 484.80070997419756,446.3952127020477 A 1.0614618304919667 1.0614618304919667 0 0,0 483.4105839673434 447.9063368916404" fill="none" stroke="blue" stroke-width="1" /><path d="M 483.4105839673434,447.9063368916404 A 1.8969140356404017 1.8969140356404017 0 0,0 485.1001549285953 448.77699027024784" fill="none" stroke="blue" stroke-width="1" /><path d="M 485.1001549285953,448.77699027024784 A 1.06146183048184 1.06146183048184 0 0,0 485.52401230218175 446.7679378672265" fill="none" stroke="blue" stroke-width="1" /><path d="M 485.52401230218175,446.7679378672265 A 36.857594277031836 36.857594277031836 0 0,1 484.80070997419756 446.3952127020477" fill="none" stroke="blue" stroke-width="1" /><path d="M 484.80070997419756,446.3952127020477 A 1.0036534017418701 1.0036534017418701 0 0,1 485.2702715962023 444.504523768909" fill="none" stroke="blue" stroke-width="1" /><path d="M 485.2702715962023,444.504523768909 A 1.8676428339763584 1.8676428339763584 0 0,1 486.79122241420697 445.28828544495616" fill="none" stroke="blue" stroke-width="1" /><path d="M 486.79122241420697,445.28828544495616 A 1.003653401741414 1.003653401741414 0 0,1 485.52401230218175 446.7679378672265" fill="none" stroke="blue" stroke-width="1" /><path d="M 485.52401230218175,446.7679378672265 A 36.857594277031836 36.857594277031836 0 0,1 484.80070997419756 446.3952127020477" fill="none" stroke="blue" stroke-width="1" /></svg>