<?xml version="1.0" encoding="utf-8" ?>
<svg baseProfile="full" height="1110.5332636800724" version="1.1" viewBox="0,0,1161.6865700555302,1110.5332636800724" width="1161.6865700555302" xmlns="http://www.w3.org/2000/svg" xmlns:ev="http://www.w3.org/2001/xml-events" xmlns:xlink="http://www.w3.org/1999/xlink"><defs /><rect fill="white" height="1110.5332636800724" width="1161.6865700555302" x="0" y="0" /><circle cx="649.9614385090941" cy="249.99999999999994" fill="none" r="200" stroke="black" stroke-width="1" /><circle cx="649.9614385090941" cy="249.99999999999994" fill="black" r="1" stroke="black" stroke-width="30" /><text fill="black" font-size="55px" text-anchor="middle" x="669.9614385090941" y="249.99999999999994">5</text><circle cx="911.6865700555302" cy="552.489595716945" fill="none" r="200" stroke="black" stroke-width="1" /><circle cx="911.6865700555302" cy="552.489595716945" fill="black" r="1" stroke="black" stroke-width="30" /><text fill="black" font-size="55px" text-anchor="middle" x="931.6865700555302" y="552.489595716945">4</text><circle cx="649.9614384934188" cy="854.9791914554984" fill="none" r="200" stroke="black" stroke-width="1" /><circle cx="649.9614384934188" cy="854.9791914554984" fill="black" r="1" stroke="black" stroke-width="30" /><text fill="black" font-size="55px" text-anchor="middle" x="669.9614384934188" y="854.9791914554984">6</text><circle cx="312.99062270102837" cy="465.5241733394358" fill="none" r="200" stroke="black" stroke-width="1" /><circle cx="312.99062270102837" cy="465.5241733394358" fill="black" r="1" stroke="black" stroke-width="30" /><text fill="black" font-size="55px" text-anchor="middle" x="332.99062270102837" y="465.5241733394358">11</text><circle cx="250.0" cy="860.5332636800724" fill="none" r="200" stroke="black" stroke-width="1" /><circle cx="250.0" cy="860.5332636800724" fill="black" r="1" stroke="black" stroke-width="30" /><text fill="black" font-size="55px" text-anchor="middle" x="270.0" y="860.5332636800724">3</text><circle cx="606.0223813423187" cy="552.489595716945" fill="none" r="105.66418871321133" stroke="black" stroke-width="0.5283209435660566" /><circle cx="606.0223813423187" cy="552.489595716945" fill="black" r="0.5283209435660566" stroke="black" stroke-width="15.8496283069817" /><text fill="black" font-size="33.77444246047255px" text-anchor="middle" x="616.5888002136398" y="552.489595716945">1</text><circle cx="424.9664991509536" cy="709.1458088675461" fill="none" r="8.352511212470622" stroke="black" stroke-width="0.041762556062353115" /><circle cx="424.9664991509536" cy="709.1458088675461" fill="black" r="0.041762556062353115" stroke="black" stroke-width="1.2528766818705934" /><text fill="black" font-size="11.87931502280589px" text-anchor="middle" x="425.80175027220065" y="709.1458088675461">2</text><circle cx="448.363833661966" cy="741.3206001209634" fill="none" r="31.430053489016952" stroke="black" stroke-width="0.15715026744508476" /><circle cx="448.363833661966" cy="741.3206001209634" fill="black" r="0.15715026744508476" stroke="black" stroke-width="4.7145080233525425" /><text fill="black" font-size="17.071762035028815px" text-anchor="middle" x="451.5068390108677" y="741.3206001209634">7</text><circle cx="438.747811094054" cy="705.1508023369797" fill="none" r="5.996169425806595" stroke="black" stroke-width="0.029980847129032977" /><circle cx="438.747811094054" cy="705.1508023369797" fill="black" r="0.029980847129032977" stroke="black" stroke-width="0.8994254138709893" /><text fill="black" font-size="11.349138120806483px" text-anchor="middle" x="439.34742803663465" y="705.1508023369797">8</text><circle cx="430.9010699353488" cy="696.0819080091513" fill="none" r="5.996169425798369" stroke="black" stroke-width="0.029980847128991846" /><circle cx="430.9010699353488" cy="696.0819080091513" fill="black" r="0.029980847128991846" stroke="black" stroke-width="0.8994254138697554" /><text fill="black" font-size="11.349138120804634px" text-anchor="middle" x="431.5006868779286" y="696.0819080091513">9</text><circle cx="396.489225399348" cy="681.3663680218657" fill="none" r="31.430053488952854" stroke="black" stroke-width="0.15715026744476426" /><circle cx="396.489225399348" cy="681.3663680218657" fill="black" r="0.15715026744476426" stroke="black" stroke-width="4.714508023342928" /><text fill="black" font-size="17.07176203501439px" text-anchor="middle" x="399.6322307482433" y="681.3663680218657">10</text><circle cx="704.2210077240019" cy="467.52452990530867" fill="none" r="24.189700838180563" stroke="black" stroke-width="0.12094850419090282" /><circle cx="704.2210077240019" cy="467.52452990530867" fill="black" r="0.12094850419090282" stroke="black" stroke-width="3.6284551257270845" /><text fill="black" font-size="15.442682688590626px" text-anchor="middle" x="706.63997780782" y="467.52452990530867">12</text><circle cx="482.63045392576754" cy="659.252832839845" fill="none" r="57.50430258499223" stroke="black" stroke-width="0.28752151292496114" /><circle cx="482.63045392576754" cy="659.252832839845" fill="black" r="0.28752151292496114" stroke="black" stroke-width="8.625645387748834" /><text fill="black" font-size="22.93846808162325px" text-anchor="middle" x="488.3808841842668" y="659.252832839845">14</text><circle cx="409.9474638341067" cy="722.1408310113148" fill="none" r="11.508053290978348" stroke="black" stroke-width="0.057540266454891735" /><circle cx="409.9474638341067" cy="722.1408310113148" fill="black" r="0.057540266454891735" stroke="black" stroke-width="1.726207993646752" /><text fill="black" font-size="12.589311990470128px" text-anchor="middle" x="411.0982691632045" y="722.1408310113148">15</text><circle cx="432.05941026354316" cy="703.0087611149967" fill="none" r="1.0268674008034504" stroke="black" stroke-width="0.005134337004017252" /><circle cx="432.05941026354316" cy="703.0087611149967" fill="black" r="0.005134337004017252" stroke="black" stroke-width="0.15403011012051757" /><text fill="black" font-size="10.231045165180776px" text-anchor="middle" x="432.1620970036235" y="703.0087611149967">16</text><path d="M 780.8240042823122,401.24479785847245 A 91.42454511589554 91.42454511589554 0 0,1 711.6865700555301 552.489595716945" fill="none" stroke="blue" stroke-width="1" /><text fill="red" font-size="10px" text-anchor="middle" x="711.6865700555301" y="552.489595716945">2</text><path d="M 711.6865700555301,552.489595716945 A 727.4238408053163 727.4238408053163 0 0,1 504.72506164521667 522.4267648687983" fill="none" stroke="blue" stroke-width="1" /><path d="M 504.72506164521667,522.4267648687983 A 175.490163672742 175.490163672742 0 0,0 281.49531135051416 663.0287185097541" fill="none" stroke="blue" stroke-width="1" /><text fill="red" font-size="10px" text-anchor="middle" x="281.49531135051416" y="663.0287185097541">4</text><path d="M 281.49531135051416,663.0287185097541 A 93.12244468910804 93.12244468910804 0 0,0 421.42443746734887 757.5106339378497" fill="none" stroke="blue" stroke-width="1" /><path d="M 421.42443746734887,757.5106339378497 A 28.790536717436268 28.790536717436268 0 0,0 429.87886466362374 715.9010371118684" fill="none" stroke="blue" stroke-width="1" /><text fill="red" font-size="10px" text-anchor="middle" x="429.87886466362374" y="715.9010371118684">6</text><path d="M 429.87886466362374,715.9010371118684 A 14.335094697930447 14.335094697930447 0 0,1 428.4210724505822 701.5411808777554" fill="none" stroke="blue" stroke-width="1" /><path d="M 428.4210724505822,701.5411808777554 A 3.841980732084257 3.841980732084257 0 0,1 434.8244405146987 700.6163551730624" fill="none" stroke="blue" stroke-width="1" /><path d="M 434.8244405146987,700.6163551730624 A 3.84198073178338 3.84198073178338 0 0,1 432.9887393435628 706.8202754138686" fill="none" stroke="blue" stroke-width="1" /><text fill="red" font-size="10px" text-anchor="middle" x="432.9887393435628" y="706.8202754138686">3</text><path d="M 432.9887393435628,706.8202754138686 A 14.335094696913847 14.335094696913847 0 0,1 418.98757973999943 703.3134023125356" fill="none" stroke="blue" stroke-width="1" /><path d="M 418.98757973999943,703.3134023125356 A 28.79053671444041 28.79053671444041 0 0,0 376.5948161796027 705.6986663949284" fill="none" stroke="blue" stroke-width="1" /><text fill="red" font-size="10px" text-anchor="middle" x="376.5948161796027" y="705.6986663949284">1</text><path d="M 376.5948161796027,705.6986663949284 A 93.12244468916582 93.12244468916582 0 0,0 449.9807192467094 857.7562275677853" fill="none" stroke="blue" stroke-width="1" /><path d="M 449.9807192467094,857.7562275677853 A 175.49016367537666 175.49016367537666 0 0,0 621.2115497111736 657.0563683652452" fill="none" stroke="blue" stroke-width="1" /><text fill="red" font-size="10px" text-anchor="middle" x="621.2115497111736" y="657.0563683652452">5</text><path d="M 621.2115497111736,657.0563683652452 A 727.4238420626923 727.4238420626923 0 0,1 621.2115497165923 447.92282307611447" fill="none" stroke="blue" stroke-width="1" /><path d="M 621.2115497165923,447.92282307611447 A 91.42454511589547 91.42454511589547 0 0,1 780.8240042823122 401.24479785847245" fill="none" stroke="blue" stroke-width="1" /><text fill="red" font-size="10px" text-anchor="middle" x="504.72506164521667" y="522.4267648687983">-4</text><path d="M 504.72506164521667,522.4267648687983 A 727.4238408053163 727.4238408053163 0 0,0 711.6865700555301 552.489595716945" fill="none" stroke="blue" stroke-width="1" /><path d="M 711.6865700555301,552.489595716945 A 91.42454511589554 91.42454511589554 0 0,0 780.8240042823122 401.24479785847245" fill="none" stroke="blue" stroke-width="1" /><path d="M 780.8240042823122,401.24479785847245 A 91.42454511589547 91.42454511589547 0 0,0 621.2115497165923 447.92282307611447" fill="none" stroke="blue" stroke-width="1" /><text fill="red" font-size="10px" text-anchor="middle" x="621.2115497165923" y="447.92282307611447">-2</text><path d="M 621.2115497165923,447.92282307611447 A 727.4238420626923 727.4238420626923 0 0,0 621.2115497111736 657.0563683652452" fill="none" stroke="blue" stroke-width="1" /><path d="M 621.2115497111736,657.0563683652452 A 175.49016367537666 175.49016367537666 0 0,1 449.9807192467094 857.7562275677853" fill="none" stroke="blue" stroke-width="1" /><text fill="red" font-size="10px" text-anchor="middle" x="449.9807192467094" y="857.7562275677853">-5</text><path d="M 449.9807192467094,857.7562275677853 A 93.12244468916582 93.12244468916582 0 0,1 376.5948161796027 705.6986663949284" fill="none" stroke="blue" stroke-width="1" /><path d="M 376.5948161796027,705.6986663949284 A 28.79053671444041 28.79053671444041 0 0,1 418.98757973999943 703.3134023125356" fill="none" stroke="blue" stroke-width="1" /><text fill="red" font-size="10px" text-anchor="middle" x="418.98757973999943" y="703.3134023125356">-1</text><path d="M 418.98757973999943,703.3134023125356 A 14.335094696913847 14.335094696913847 0 0,0 432.9887393435628 706.8202754138686" fill="none" stroke="blue" stroke-width="1" /><path d="M 432.9887393435628,706.8202754138686 A 3.84198073178338 3.84198073178338 0 0,0 434.8244405146987 700.6163551730624" fill="none" stroke="blue" stroke-width="1" /><path d="M 434.8244405146987,700.6163551730624 A 3.841980732084257 3.841980732084257 0 0,0 428.4210724505822 701.5411808777554" fill="none" stroke="blue" stroke-width="1" /><text fill="red" font-size="10px" text-anchor="middle" x="428.4210724505822" y="701.5411808777554">-3</text><path d="M 428.4210724505822,701.5411808777554 A 14.335094697930447 14.335094697930447 0 0,0 429.87886466362374 715.9010371118684" fill="none" stroke="blue" stroke-width="1" /><path d="M 429.87886466362374,715.9010371118684 A 28.790536717436254 28.790536717436254 0 0,1 421.4244374673489 757.5106339378497" fill="none" stroke="blue" stroke-width="1" /><text fill="red" font-size="10px" text-anchor="middle" x="421.4244374673489" y="757.5106339378497">-6</text><path d="M 421.4244374673489,757.5106339378497 A 93.12244468910806 93.12244468910806 0 0,1 281.49531135051416 663.0287185097541" fill="none" stroke="blue" stroke-width="1" /><path d="M 281.49531135051416,663.0287185097541 A 175.490163672742 175.490163672742 0 0,1 504.72506164521667 522.4267648687983" fill="none" stroke="blue" stroke-width="1" /></svg>