<?xml version="1.0" encoding="utf-8" ?>
<svg baseProfile="full" height="1749.4986951357635" version="1.1" viewBox="0,0,1688.3438761100003,1749.4986951357635" width="1688.3438761100003" xmlns="http://www.w3.org/2000/svg" xmlns:ev="http://www.w3.org/2001/xml-events" xmlns:xlink="http://www.w3.org/1999/xlink"><defs /><rect fill="white" height="1749.4986951357635" width="1688.3438761100003" x="0" y="0" /><circle cx="703.9069703551119" cy="250.0" fill="none" r="200" stroke="black" stroke-width="1" /><circle cx="703.9069703551119" cy="250.0" fill="black" r="1" stroke="black" stroke-width="30" /><text fill="black" font-size="55px" text-anchor="middle" x="723.9069703551119" y="250.0">12</text><circle cx="561.4722566421544" cy="623.7811556779385" fill="none" r="200" stroke="black" stroke-width="1" /><circle cx="561.4722566421544" cy="623.7811556779385" fill="black" r="1" stroke="black" stroke-width="30" /><text fill="black" font-size="55px" text-anchor="middle" x="581.4722566421544" y="623.7811556779385">1</text><circle cx="1438.3438761100003" cy="488.6330163328833" fill="none" r="200" stroke="black" stroke-width="1" /><circle cx="1438.3438761100003" cy="488.6330163328833" fill="black" r="1" stroke="black" stroke-width="30" /><text fill="black" font-size="55px" text-anchor="middle" x="1458.3438761100003" y="488.6330163328833">14</text><circle cx="1038.8421252177022" cy="468.6742829890507" fill="none" r="200" stroke="black" stroke-width="1" /><circle cx="1038.8421252177022" cy="468.6742829890507" fill="black" r="1" stroke="black" stroke-width="30" /><text fill="black" font-size="55px" text-anchor="middle" x="1058.8421252177022" y="468.6742829890507">4</text><circle cx="1438.3438761004647" cy="1260.8656788223618" fill="none" r="200" stroke="black" stroke-width="1" /><circle cx="1438.3438761004647" cy="1260.8656788223618" fill="black" r="1" stroke="black" stroke-width="30" /><text fill="black" font-size="55px" text-anchor="middle" x="1458.3438761004647" y="1260.8656788223618">8</text><circle cx="1333.872929194837" cy="874.7493475769156" fill="none" r="200" stroke="black" stroke-width="1" /><circle cx="1333.872929194837" cy="874.7493475769156" fill="black" r="1" stroke="black" stroke-width="30" /><text fill="black" font-size="55px" text-anchor="middle" x="1353.872929194837" y="874.7493475769156">5</text><circle cx="703.9069703438171" cy="1499.4986951357635" fill="none" r="200" stroke="black" stroke-width="1" /><circle cx="703.9069703438171" cy="1499.4986951357635" fill="black" r="1" stroke="black" stroke-width="30" /><text fill="black" font-size="55px" text-anchor="middle" x="723.9069703438171" y="1499.4986951357635">10</text><circle cx="1038.8421252088133" cy="1280.8244121565763" fill="none" r="200" stroke="black" stroke-width="1" /><circle cx="1038.8421252088133" cy="1280.8244121565763" fill="black" r="1" stroke="black" stroke-width="30" /><text fill="black" font-size="55px" text-anchor="middle" x="1058.8421252088133" y="1280.8244121565763">2</text><circle cx="250.0" cy="874.7493475713414" fill="none" r="200" stroke="black" stroke-width="1" /><circle cx="250.0" cy="874.7493475713414" fill="black" r="1" stroke="black" stroke-width="30" /><text fill="black" font-size="55px" text-anchor="middle" x="270.0" y="874.7493475713414">6</text><circle cx="561.4722566403863" cy="1125.7175394669384" fill="none" r="200" stroke="black" stroke-width="1" /><circle cx="561.4722566403863" cy="1125.7175394669384" fill="black" r="1" stroke="black" stroke-width="30" /><text fill="black" font-size="55px" text-anchor="middle" x="581.4722566403863" y="1125.7175394669384">3</text><circle cx="621.808579392479" cy="874.749347572633" fill="none" r="58.119168575143874" stroke="black" stroke-width="0.2905958428757194" /><circle cx="621.808579392479" cy="874.749347572633" fill="black" r="0.2905958428757194" stroke="black" stroke-width="8.717875286271582" /><text fill="black" font-size="23.076812929407374px" text-anchor="middle" x="627.6204962499934" y="874.749347572633">7</text><circle cx="1137.5444167180844" cy="1042.32207917534" fill="none" r="58.119168575143874" stroke="black" stroke-width="0.2905958428757194" /><circle cx="1137.5444167180844" cy="1042.32207917534" fill="black" r="0.2905958428757194" stroke="black" stroke-width="8.717875286271582" /><text fill="black" font-size="23.076812929407374px" text-anchor="middle" x="1143.356333575599" y="1042.32207917534">9</text><circle cx="818.8021400332464" cy="1145.8877228898943" fill="none" r="58.119168575143874" stroke="black" stroke-width="0.2905958428757194" /><circle cx="818.8021400332464" cy="1145.8877228898943" fill="black" r="0.2905958428757194" stroke="black" stroke-width="8.717875286271582" /><text fill="black" font-size="23.076812929407374px" text-anchor="middle" x="824.6140568907607" y="1145.8877228898943">11</text><circle cx="818.8021400370819" cy="603.610972251594" fill="none" r="58.119168575143874" stroke="black" stroke-width="0.2905958428757194" /><circle cx="818.8021400370819" cy="603.610972251594" fill="black" r="0.2905958428757194" stroke="black" stroke-width="8.717875286271582" /><text fill="black" font-size="23.076812929407374px" text-anchor="middle" x="824.6140568945963" y="603.610972251594">13</text><circle cx="1137.544416721564" cy="707.1766159733498" fill="none" r="58.119168575143874" stroke="black" stroke-width="0.2905958428757194" /><circle cx="1137.544416721564" cy="707.1766159733498" fill="black" r="0.2905958428757194" stroke="black" stroke-width="8.717875286271582" /><text fill="black" font-size="23.076812929407374px" text-anchor="middle" x="1143.3563335790784" y="707.1766159733498">15</text><circle cx="506.84470540866755" cy="874.749347572246" fill="none" r="56.844705408667586" stroke="black" stroke-width="0.2842235270433379" /><circle cx="506.84470540866755" cy="874.749347572246" fill="black" r="0.2842235270433379" stroke="black" stroke-width="8.526705811300138" /><text fill="black" font-size="22.790058716950206px" text-anchor="middle" x="512.5291759495343" y="874.749347572246">16</text><circle cx="906.9003385794272" cy="874.749347572633" fill="none" r="226.97259061180435" stroke="black" stroke-width="1.1348629530590217" /><circle cx="906.9003385794272" cy="874.749347572633" fill="black" r="1.1348629530590217" stroke="black" stroke-width="34.045888591770655" /><text fill="black" font-size="61.06883288765598px" text-anchor="middle" x="929.5975976406077" y="874.749347572633">18</text><circle cx="1230.5521445100076" cy="1109.8961488507564" fill="none" r="56.844705408667586" stroke="black" stroke-width="0.2842235270433379" /><circle cx="1230.5521445100076" cy="1109.8961488507564" fill="black" r="0.2842235270433379" stroke="black" stroke-width="8.526705811300138" /><text fill="black" font-size="22.790058716950206px" text-anchor="middle" x="1236.2366150508744" y="1109.8961488507564">19</text><circle cx="783.2763492322314" cy="1255.2248643808014" fill="none" r="56.844705408667586" stroke="black" stroke-width="0.2842235270433379" /><circle cx="783.2763492322314" cy="1255.2248643808014" fill="black" r="0.2842235270433379" stroke="black" stroke-width="8.526705811300138" /><text fill="black" font-size="22.790058716950206px" text-anchor="middle" x="788.9608197730981" y="1255.2248643808014">20</text><circle cx="783.2763492383497" cy="494.2738307589247" fill="none" r="56.844705408667586" stroke="black" stroke-width="0.2842235270433379" /><circle cx="783.2763492383497" cy="494.2738307589247" fill="black" r="0.2842235270433379" stroke="black" stroke-width="8.526705811300138" /><text fill="black" font-size="22.790058716950206px" text-anchor="middle" x="788.9608197792164" y="494.2738307589247">21</text><circle cx="1230.5521445153452" cy="639.6025462999401" fill="none" r="56.844705408667586" stroke="black" stroke-width="0.2842235270433379" /><circle cx="1230.5521445153452" cy="639.6025462999401" fill="black" r="0.2842235270433379" stroke="black" stroke-width="8.526705811300138" /><text fill="black" font-size="22.790058716950206px" text-anchor="middle" x="1236.236615056212" y="639.6025462999401">22</text><text fill="red" font-size="10px" text-anchor="middle" x="405.7361283210772" y="749.26525162464">6</text><path d="M 405.7361283210772,749.26525162464 A 646.5302473324153 646.5302473324153 0 0,1 760.8606901439564 608.152573316011" fill="none" stroke="blue" stroke-width="1" /><path d="M 760.8606901439564,608.152573316011 A 241.7459664571871 241.7459664571871 0 0,0 868.3472438067062 573.2280749506581" fill="none" stroke="blue" stroke-width="1" /><text fill="red" font-size="10px" text-anchor="middle" x="868.3472438067062" y="573.2280749506581">7</text><path d="M 868.3472438067062,573.2280749506581 A 646.5302473392362 646.5302473392362 0 0,1 1238.5930006638514 478.653649660967" fill="none" stroke="blue" stroke-width="1" /><path d="M 1238.5930006638514,478.653649660967 A 161.14962828746627 161.14962828746627 0 0,1 1386.1084026524188 681.6911819548994" fill="none" stroke="blue" stroke-width="1" /><text fill="red" font-size="10px" text-anchor="middle" x="1386.1084026524188" y="681.6911819548994">8</text><path d="M 1386.1084026524188,681.6911819548994 A 646.5302473189456 646.5302473189456 0 0,1 1181.7505482337367 1004.5907169904704" fill="none" stroke="blue" stroke-width="1" /><path d="M 1181.7505482337367,1004.5907169904704 A 241.74596641198275 241.74596641198275 0 0,0 1115.3202047362831 1096.024240749079" fill="none" stroke="blue" stroke-width="1" /><text fill="red" font-size="10px" text-anchor="middle" x="1115.3202047362831" y="1096.024240749079">9</text><path d="M 1115.3202047362831,1096.024240749079 A 646.530247297563 646.530247297563 0 0,1 871.3745477763152 1390.16155364617" fill="none" stroke="blue" stroke-width="1" /><path d="M 871.3745477763152,1390.16155364617 A 161.14962828597035 161.14962828597035 0 0,1 632.6896134921017 1312.6081173013508" fill="none" stroke="blue" stroke-width="1" /><text fill="red" font-size="10px" text-anchor="middle" x="632.6896134921017" y="1312.6081173013508">10</text><path d="M 632.6896134921017,1312.6081173013508 A 646.5302472772613 646.5302472772613 0 0,1 608.2230059823729 931.2583729666843" fill="none" stroke="blue" stroke-width="1" /><path d="M 608.2230059823729,931.2583729666843 A 241.745966387079 241.745966387079 0 0,0 608.223005982771 818.2403221784942" fill="none" stroke="blue" stroke-width="1" /><text fill="red" font-size="10px" text-anchor="middle" x="608.223005982771" y="818.2403221784942">1</text><path d="M 608.223005982771,818.2403221784942 A 646.5302473787951 646.5302473787951 0 0,1 632.6896134986332 436.89057783896925" fill="none" stroke="blue" stroke-width="1" /><path d="M 632.6896134986332,436.89057783896925 A 161.14962828943328 161.14962828943328 0 0,1 871.374547786407 359.3371414945253" fill="none" stroke="blue" stroke-width="1" /><text fill="red" font-size="10px" text-anchor="middle" x="871.374547786407" y="359.3371414945253">2</text><path d="M 871.374547786407,359.3371414945253 A 646.5302473397755 646.5302473397755 0 0,1 1115.3202047409807 653.4744543989211" fill="none" stroke="blue" stroke-width="1" /><path d="M 1115.3202047409807,653.4744543989211 A 241.7459664244351 241.7459664244351 0 0,0 1181.7505482364327 744.9079781593771" fill="none" stroke="blue" stroke-width="1" /><text fill="red" font-size="10px" text-anchor="middle" x="1181.7505482364327" y="744.9079781593771">3</text><path d="M 1181.7505482364327,744.9079781593771 A 646.5302473184071 646.5302473184071 0 0,1 1386.108402647651 1067.8075131996388" fill="none" stroke="blue" stroke-width="1" /><path d="M 1386.108402647651,1067.8075131996388 A 161.14962828671833 161.14962828671833 0 0,1 1238.5930006546391 1270.8450454894692" fill="none" stroke="blue" stroke-width="1" /><text fill="red" font-size="10px" text-anchor="middle" x="1238.5930006546391" y="1270.8450454894692">4</text><path d="M 1238.5930006546391,1270.8450454894692 A 646.5302472981067 646.5302472981067 0 0,1 868.3472438017327 1176.2706201917622" fill="none" stroke="blue" stroke-width="1" /><path d="M 868.3472438017327,1176.2706201917622 A 241.74596639953262 241.74596639953262 0 0,0 760.8606901405864 1141.3461218262405" fill="none" stroke="blue" stroke-width="1" /><text fill="red" font-size="10px" text-anchor="middle" x="760.8606901405864" y="1141.3461218262405">5</text><path d="M 760.8606901405864,1141.3461218262405 A 646.5302472767272 646.5302472767272 0 0,1 405.73612832019313 1000.2334435191399" fill="none" stroke="blue" stroke-width="1" /><path d="M 405.73612832019313,1000.2334435191399 A 161.1496282852219 161.1496282852219 0 0,1 405.7361283210772 749.26525162464" fill="none" stroke="blue" stroke-width="1" /><text fill="red" font-size="10px" text-anchor="middle" x="760.8606901439564" y="608.152573316011">-7</text><path d="M 760.8606901439564,608.152573316011 A 646.5302473324153 646.5302473324153 0 0,0 405.7361283210772 749.26525162464" fill="none" stroke="blue" stroke-width="1" /><path d="M 405.7361283210772,749.26525162464 A 161.1496282852219 161.1496282852219 0 0,0 405.73612832019313 1000.2334435191399" fill="none" stroke="blue" stroke-width="1" /><text fill="red" font-size="10px" text-anchor="middle" x="405.73612832019313" y="1000.2334435191399">-6</text><path d="M 405.73612832019313,1000.2334435191399 A 646.5302472767272 646.5302472767272 0 0,0 760.8606901405864 1141.3461218262405" fill="none" stroke="blue" stroke-width="1" /><path d="M 760.8606901405864,1141.3461218262405 A 241.74596639953262 241.74596639953262 0 0,1 868.3472438017327 1176.2706201917622" fill="none" stroke="blue" stroke-width="1" /><text fill="red" font-size="10px" text-anchor="middle" x="868.3472438017327" y="1176.2706201917622">-5</text><path d="M 868.3472438017327,1176.2706201917622 A 646.5302472981067 646.5302472981067 0 0,0 1238.5930006546391 1270.8450454894692" fill="none" stroke="blue" stroke-width="1" /><path d="M 1238.5930006546391,1270.8450454894692 A 161.1496282867182 161.1496282867182 0 0,0 1386.1084026476508 1067.8075131996388" fill="none" stroke="blue" stroke-width="1" /><text fill="red" font-size="10px" text-anchor="middle" x="1386.1084026476508" y="1067.8075131996388">-4</text><path d="M 1386.1084026476508,1067.8075131996388 A 646.5302473184048 646.5302473184048 0 0,0 1181.7505482364327 744.9079781593771" fill="none" stroke="blue" stroke-width="1" /><path d="M 1181.7505482364327,744.9079781593771 A 241.7459664244351 241.7459664244351 0 0,1 1115.3202047409807 653.4744543989211" fill="none" stroke="blue" stroke-width="1" /><text fill="red" font-size="10px" text-anchor="middle" x="1115.3202047409807" y="653.4744543989211">-3</text><path d="M 1115.3202047409807,653.4744543989211 A 646.5302473397755 646.5302473397755 0 0,0 871.374547786407 359.3371414945253" fill="none" stroke="blue" stroke-width="1" /><path d="M 871.374547786407,359.3371414945253 A 161.14962828943328 161.14962828943328 0 0,0 632.6896134986332 436.89057783896925" fill="none" stroke="blue" stroke-width="1" /><text fill="red" font-size="10px" text-anchor="middle" x="632.6896134986332" y="436.89057783896925">-2</text><path d="M 632.6896134986332,436.89057783896925 A 646.5302473787951 646.5302473787951 0 0,0 608.223005982771 818.2403221784942" fill="none" stroke="blue" stroke-width="1" /><path d="M 608.223005982771,818.2403221784942 A 241.745966387079 241.745966387079 0 0,1 608.2230059823729 931.2583729666843" fill="none" stroke="blue" stroke-width="1" /><text fill="red" font-size="10px" text-anchor="middle" x="608.2230059823729" y="931.2583729666843">-1</text><path d="M 608.2230059823729,931.2583729666843 A 646.5302472772613 646.5302472772613 0 0,0 632.6896134921017 1312.6081173013508" fill="none" stroke="blue" stroke-width="1" /><path d="M 632.6896134921017,1312.6081173013508 A 161.14962828597035 161.14962828597035 0 0,0 871.3745477763152 1390.16155364617" fill="none" stroke="blue" stroke-width="1" /><text fill="red" font-size="10px" text-anchor="middle" x="871.3745477763152" y="1390.16155364617">-10</text><path d="M 871.3745477763152,1390.16155364617 A 646.530247297563 646.530247297563 0 0,0 1115.3202047362831 1096.024240749079" fill="none" stroke="blue" stroke-width="1" /><path d="M 1115.3202047362831,1096.024240749079 A 241.74596641198275 241.74596641198275 0 0,1 1181.7505482337367 1004.5907169904704" fill="none" stroke="blue" stroke-width="1" /><text fill="red" font-size="10px" text-anchor="middle" x="1181.7505482337367" y="1004.5907169904704">-9</text><path d="M 1181.7505482337367,1004.5907169904704 A 646.5302473189433 646.5302473189433 0 0,0 1386.1084026524186 681.6911819548994" fill="none" stroke="blue" stroke-width="1" /><path d="M 1386.1084026524186,681.6911819548994 A 161.1496282874661 161.1496282874661 0 0,0 1238.5930006638514 478.653649660967" fill="none" stroke="blue" stroke-width="1" /><text fill="red" font-size="10px" text-anchor="middle" x="1238.5930006638514" y="478.653649660967">-8</text><path d="M 1238.5930006638514,478.653649660967 A 646.5302473392362 646.5302473392362 0 0,0 868.3472438067062 573.2280749506581" fill="none" stroke="blue" stroke-width="1" /><path d="M 868.3472438067062,573.2280749506581 A 241.7459664571871 241.7459664571871 0 0,1 760.8606901439564 608.152573316011" fill="none" stroke="blue" stroke-width="1" /></svg>