<?xml version="1.0" encoding="utf-8" ?>
<svg baseProfile="full" height="1742.0477798712739" version="1.1" viewBox="0,0,1673.6946002530574,1742.0477798712739" width="1673.6946002530574" xmlns="http://www.w3.org/2000/svg" xmlns:ev="http://www.w3.org/2001/xml-events" xmlns:xlink="http://www.w3.org/1999/xlink"><defs /><rect fill="white" height="1742.0477798712739" width="1673.6946002530574" x="0" y="0" /><path d="M 269.08844538566495,847.5358389309857 A 453.71333011576843 453.71333011576843 0 0,1 448.01570932542904 528.2342363046056" fill="none" stroke="blue" stroke-width="1" /><path d="M 448.01570932542904,528.2342363046056 A 470.4089728715408 470.4089728715408 0 0,0 508.64242946513957 473.80898613775094" fill="none" stroke="blue" stroke-width="1" /><path d="M 508.64242946513957,473.80898613775094 A 453.7133301156897 453.7133301156897 0 0,1 845.3270346654501 330.2403410865136" fill="none" stroke="blue" stroke-width="1" /><path d="M 845.3270346654501,330.2403410865136 A 239.01828011318972 239.01828011318972 0 0,1 1078.1974785292564 529.9403785798194" fill="none" stroke="blue" stroke-width="1" /><path d="M 1078.1974785292564,529.9403785798194 A 647.5502027900388 647.5502027900388 0 0,1 1026.991304794245 908.6808241557159" fill="none" stroke="blue" stroke-width="1" /><path d="M 1026.991304794245,908.6808241557159 A 1409.4504618695096 1409.4504618695096 0 0,0 992.3236058938737 990.0978990552268" fill="none" stroke="blue" stroke-width="1" /><path d="M 992.3236058938737,990.0978990552268 A 163.20013107805457 163.20013107805457 0 0,0 991.6863691717348 1106.8162766510984" fill="none" stroke="blue" stroke-width="1" /><path d="M 991.6863691717348,1106.8162766510984 A 43.51855762892441 43.51855762892441 0 0,0 1003.6774110371247 1124.1596976052604" fill="none" stroke="blue" stroke-width="1" /><path d="M 1003.6774110371247,1124.1596976052604 A 914.7979533753206 914.7979533753206 0 0,0 1021.1062100458473 1139.0990334890462" fill="none" stroke="blue" stroke-width="1" /><path d="M 1021.1062100458473,1139.0990334890462 A 10.608197798011501 10.608197798011501 0 0,1 1023.9930717806787 1142.9200796775922" fill="none" stroke="blue" stroke-width="1" /><path d="M 1023.9930717806787,1142.9200796775922 A 1662.6414454742865 1662.6414454742865 0 0,1 1034.207942886435 1166.3160277078543" fill="none" stroke="blue" stroke-width="1" /><path d="M 1034.207942886435,1166.3160277078543 A 57.42376909684012 57.42376909684012 0 0,0 1051.203014301767 1188.6368452978284" fill="none" stroke="blue" stroke-width="1" /><path d="M 1051.203014301767,1188.6368452978284 A 180.49548163298513 180.49548163298513 0 0,0 1315.6277062080624 1145.0553955837531" fill="none" stroke="blue" stroke-width="1" /><path d="M 1315.6277062080624,1145.0553955837531 A 221.70471557970416 221.70471557970416 0 0,0 1267.3885950352444 851.9918034649206" fill="none" stroke="blue" stroke-width="1" /><path d="M 1267.3885950352444,851.9918034649206 A 545.6957347421146 545.6957347421146 0 0,0 911.16623268899 733.0018883144655" fill="none" stroke="blue" stroke-width="1" /><path d="M 911.16623268899,733.0018883144655 A 3755.0099022399136 3755.0099022399136 0 0,1 802.5786558254712 734.5722873692368" fill="none" stroke="blue" stroke-width="1" /><path d="M 802.5786558254712,734.5722873692368 A 1669.7408119110007 1669.7408119110007 0 0,1 574.4756018292306 718.918346126134" fill="none" stroke="blue" stroke-width="1" /><path d="M 574.4756018292306,718.918346126134 A 764.4388175815905 764.4388175815905 0 0,1 481.3852458595203 700.1260304698934" fill="none" stroke="blue" stroke-width="1" /><path d="M 481.3852458595203,700.1260304698934 A 285.74530155727496 285.74530155727496 0 0,1 270.5805977037512 449.22442237406506" fill="none" stroke="blue" stroke-width="1" /><path d="M 270.5805977037512,449.22442237406506 A 149.98510321930672 149.98510321930672 0 0,1 449.1630033629958 288.909101324116" fill="none" stroke="blue" stroke-width="1" /><path d="M 449.1630033629958,288.909101324116 A 285.74530155725586 285.74530155725586 0 0,1 675.951386635333 525.4619407529949" fill="none" stroke="blue" stroke-width="1" /><path d="M 675.951386635333,525.4619407529949 A 764.4388175317227 764.4388175317227 0 0,1 684.6284800578745 620.032938167758" fill="none" stroke="blue" stroke-width="1" /><path d="M 684.6284800578745,620.032938167758 A 1669.7408119292456 1669.7408119292456 0 0,1 675.6727819948933 848.4970372972807" fill="none" stroke="blue" stroke-width="1" /><path d="M 675.6727819948933,848.4970372972807 A 3755.0099086986825 3755.0099086986825 0 0,1 662.4393341981437 956.2866650993147" fill="none" stroke="blue" stroke-width="1" /><path d="M 662.4393341981437,956.2866650993147 A 545.6957344094805 545.6957344094805 0 0,0 742.4492657247936 1323.2354110840859" fill="none" stroke="blue" stroke-width="1" /><path d="M 742.4492657247936,1323.2354110840859 A 221.70471555299892 221.70471555299892 0 0,0 1028.6296231951492 1402.6966208718914" fill="none" stroke="blue" stroke-width="1" /><path d="M 1028.6296231951492,1402.6966208718914 A 175.8884016432384 175.8884016432384 0 0,0 1096.0806982333904 1147.2967214429825" fill="none" stroke="blue" stroke-width="1" /><path d="M 1096.0806982333904,1147.2967214429825 A 62.24373659246434 62.24373659246434 0 0,0 1070.8494545306273 1125.6453435888166" fill="none" stroke="blue" stroke-width="1" /><path d="M 1070.8494545306273,1125.6453435888166 A 56.630117728098504 56.630117728098504 0 0,0 1031.3213096992931 1122.4327183652265" fill="none" stroke="blue" stroke-width="1" /><path d="M 1031.3213096992931,1122.4327183652265 A 42.15756823140857 42.15756823140857 0 0,0 1022.326822778995 1126.154642100746" fill="none" stroke="blue" stroke-width="1" /><path d="M 1022.326822778995,1126.154642100746 A 16.742691311170397 16.742691311170397 0 0,0 1013.8911023928697 1143.106196759251" fill="none" stroke="blue" stroke-width="1" /><path d="M 1013.8911023928697,1143.106196759251 A 7.476582526149704 7.476582526149704 0 0,0 1017.8561975222876 1148.7072277851441" fill="none" stroke="blue" stroke-width="1" /><path d="M 1017.8561975222876,1148.7072277851441 A 16.232390589124513 16.232390589124513 0 0,0 1037.5689581583138 1144.9488658859575" fill="none" stroke="blue" stroke-width="1" /><path d="M 1037.5689581583138,1144.9488658859575 A 34.823787788337775 34.823787788337775 0 0,0 1043.2024383561688 1136.0461076726108" fill="none" stroke="blue" stroke-width="1" /><path d="M 1043.2024383561688,1136.0461076726108 A 43.38321105490501 43.38321105490501 0 0,0 1041.618133053003 1098.0286554820887" fill="none" stroke="blue" stroke-width="1" /><path d="M 1041.618133053003,1098.0286554820887 A 47.17136602707686 47.17136602707686 0 0,0 1023.747896463437 1079.633546926607" fill="none" stroke="blue" stroke-width="1" /><path d="M 1023.747896463437,1079.633546926607 A 150.31199302287715 150.31199302287715 0 0,0 909.3220981000494 1064.6092335706091" fill="none" stroke="blue" stroke-width="1" /><path d="M 909.3220981000494,1064.6092335706091 A 1409.4502433134319 1409.4502433134319 0 0,0 824.6502928984493 1090.324498176957" fill="none" stroke="blue" stroke-width="1" /><path d="M 824.6502928984493,1090.324498176957 A 647.5502024125466 647.5502024125466 0 0,1 442.6000486111782 1100.5229377053695" fill="none" stroke="blue" stroke-width="1" /><path d="M 442.6000486111782,1100.5229377053695 A 239.01828011323238 239.01828011323238 0 0,1 269.08844538566495 847.5358389309857" fill="none" stroke="blue" stroke-width="1" /><path d="M 448.01570932542904,528.2342363046056 A 453.71333011576843 453.71333011576843 0 0,0 269.08844538566495 847.5358389309857" fill="none" stroke="blue" stroke-width="1" /><path d="M 269.08844538566495,847.5358389309857 A 239.0182801132321 239.0182801132321 0 0,0 442.6000486111782 1100.5229377053693" fill="none" stroke="blue" stroke-width="1" /><path d="M 442.6000486111782,1100.5229377053693 A 647.5502024125466 647.5502024125466 0 0,0 824.6502928984493 1090.324498176957" fill="none" stroke="blue" stroke-width="1" /><path d="M 824.6502928984493,1090.324498176957 A 1409.4502433134319 1409.4502433134319 0 0,1 909.3220981000494 1064.6092335706091" fill="none" stroke="blue" stroke-width="1" /><path d="M 909.3220981000494,1064.6092335706091 A 150.31199302287715 150.31199302287715 0 0,1 1023.747896463437 1079.633546926607" fill="none" stroke="blue" stroke-width="1" /><path d="M 1023.747896463437,1079.633546926607 A 47.17136602707686 47.17136602707686 0 0,1 1041.618133053003 1098.0286554820887" fill="none" stroke="blue" stroke-width="1" /><path d="M 1041.618133053003,1098.0286554820887 A 43.38321105490501 43.38321105490501 0 0,1 1043.2024383561688 1136.0461076726108" fill="none" stroke="blue" stroke-width="1" /><path d="M 1043.2024383561688,1136.0461076726108 A 34.823787788337775 34.823787788337775 0 0,1 1037.5689581583138 1144.9488658859575" fill="none" stroke="blue" stroke-width="1" /><path d="M 1037.5689581583138,1144.9488658859575 A 16.232390589124513 16.232390589124513 0 0,1 1017.8561975222876 1148.7072277851441" fill="none" stroke="blue" stroke-width="1" /><path d="M 1017.8561975222876,1148.7072277851441 A 7.476582526149704 7.476582526149704 0 0,1 1013.8911023928697 1143.106196759251" fill="none" stroke="blue" stroke-width="1" /><path d="M 1013.8911023928697,1143.106196759251 A 16.742691311170397 16.742691311170397 0 0,1 1022.326822778995 1126.154642100746" fill="none" stroke="blue" stroke-width="1" /><path d="M 1022.326822778995,1126.154642100746 A 42.15756823140857 42.15756823140857 0 0,1 1031.3213096992931 1122.4327183652265" fill="none" stroke="blue" stroke-width="1" /><path d="M 1031.3213096992931,1122.4327183652265 A 56.630117728098504 56.630117728098504 0 0,1 1070.8494545306273 1125.6453435888166" fill="none" stroke="blue" stroke-width="1" /><path d="M 1070.8494545306273,1125.6453435888166 A 62.24373659246434 62.24373659246434 0 0,1 1096.0806982333904 1147.2967214429825" fill="none" stroke="blue" stroke-width="1" /><path d="M 1096.0806982333904,1147.2967214429825 A 175.8884016432384 175.8884016432384 0 0,1 1028.6296231951492 1402.6966208718914" fill="none" stroke="blue" stroke-width="1" /><path d="M 1028.6296231951492,1402.6966208718914 A 221.70471555299892 221.70471555299892 0 0,1 742.4492657247936 1323.2354110840859" fill="none" stroke="blue" stroke-width="1" /><path d="M 742.4492657247936,1323.2354110840859 A 545.6957344094805 545.6957344094805 0 0,1 662.4393341981437 956.2866650993147" fill="none" stroke="blue" stroke-width="1" /><path d="M 662.4393341981437,956.2866650993147 A 3755.0099086986825 3755.0099086986825 0 0,0 675.6727819948933 848.4970372972807" fill="none" stroke="blue" stroke-width="1" /><path d="M 675.6727819948933,848.4970372972807 A 1669.7408119292456 1669.7408119292456 0 0,0 684.6284800578745 620.032938167758" fill="none" stroke="blue" stroke-width="1" /><path d="M 684.6284800578745,620.032938167758 A 764.4388175314431 764.4388175314431 0 0,0 675.951386635333 525.461940752995" fill="none" stroke="blue" stroke-width="1" /><path d="M 675.951386635333,525.461940752995 A 285.745301557256 285.745301557256 0 0,0 449.1630033629958 288.909101324116" fill="none" stroke="blue" stroke-width="1" /><path d="M 449.1630033629958,288.909101324116 A 149.98510321930672 149.98510321930672 0 0,0 270.5805977037512 449.22442237406506" fill="none" stroke="blue" stroke-width="1" /><path d="M 270.5805977037512,449.22442237406506 A 285.74530155727496 285.74530155727496 0 0,0 481.3852458595203 700.1260304698934" fill="none" stroke="blue" stroke-width="1" /><path d="M 481.3852458595203,700.1260304698934 A 764.4388175815905 764.4388175815905 0 0,0 574.4756018292306 718.918346126134" fill="none" stroke="blue" stroke-width="1" /><path d="M 574.4756018292306,718.918346126134 A 1669.7408119110007 1669.7408119110007 0 0,0 802.5786558254712 734.5722873692368" fill="none" stroke="blue" stroke-width="1" /><path d="M 802.5786558254712,734.5722873692368 A 3755.0099022399136 3755.0099022399136 0 0,0 911.16623268899 733.0018883144655" fill="none" stroke="blue" stroke-width="1" /><path d="M 911.16623268899,733.0018883144655 A 545.6957347421146 545.6957347421146 0 0,1 1267.3885950352444 851.9918034649206" fill="none" stroke="blue" stroke-width="1" /><path d="M 1267.3885950352444,851.9918034649206 A 221.70471557970416 221.70471557970416 0 0,1 1315.6277062080624 1145.0553955837531" fill="none" stroke="blue" stroke-width="1" /><path d="M 1315.6277062080624,1145.0553955837531 A 180.49548163298513 180.49548163298513 0 0,1 1051.203014301767 1188.6368452978284" fill="none" stroke="blue" stroke-width="1" /><path d="M 1051.203014301767,1188.6368452978284 A 57.42376909684012 57.42376909684012 0 0,1 1034.207942886435 1166.3160277078543" fill="none" stroke="blue" stroke-width="1" /><path d="M 1034.207942886435,1166.3160277078543 A 1662.6414454742865 1662.6414454742865 0 0,0 1023.9930717806787 1142.9200796775922" fill="none" stroke="blue" stroke-width="1" /><path d="M 1023.9930717806787,1142.9200796775922 A 10.608197798011501 10.608197798011501 0 0,0 1021.1062100458473 1139.0990334890462" fill="none" stroke="blue" stroke-width="1" /><path d="M 1021.1062100458473,1139.0990334890462 A 914.7979533753206 914.7979533753206 0 0,1 1003.6774110371247 1124.1596976052604" fill="none" stroke="blue" stroke-width="1" /><path d="M 1003.6774110371247,1124.1596976052604 A 43.51855762892441 43.51855762892441 0 0,1 991.6863691717348 1106.8162766510984" fill="none" stroke="blue" stroke-width="1" /><path d="M 991.6863691717348,1106.8162766510984 A 163.20013107805457 163.20013107805457 0 0,1 992.3236058938737 990.0978990552268" fill="none" stroke="blue" stroke-width="1" /><path d="M 992.3236058938737,990.0978990552268 A 1409.4504618695096 1409.4504618695096 0 0,1 1026.991304794245 908.6808241557159" fill="none" stroke="blue" stroke-width="1" /><path d="M 1026.991304794245,908.6808241557159 A 647.5502027900388 647.5502027900388 0 0,0 1078.1974785292564 529.9403785798194" fill="none" stroke="blue" stroke-width="1" /><path d="M 1078.1974785292564,529.9403785798194 A 239.01828011318972 239.01828011318972 0 0,0 845.3270346654501 330.2403410865136" fill="none" stroke="blue" stroke-width="1" /><path d="M 845.3270346654501,330.2403410865136 A 453.7133301156897 453.7133301156897 0 0,0 508.64242946513957 473.80898613775094" fill="none" stroke="blue" stroke-width="1" /><path d="M 508.64242946513957,473.80898613775094 A 470.4089728715408 470.4089728715408 0 0,1 448.01570932542904 528.2342363046056" fill="none" stroke="blue" stroke-width="1" /></svg>